<svg enable-background="new 0 0 1024 1024" viewBox="0 0 1024 1024" xmlns="http://www.w3.org/2000/svg" xmlns:xlink="http://www.w3.org/1999/xlink"><clipPath id="a"><path d="m0 125h1024v433.3h-1024z"/></clipPath><clipPath id="b"><path d="m0 125.8h585.3v431h-585.3z"/></clipPath><clipPath id="c"><path d="m439 125.8h585v431h-585z"/></clipPath><clipPath id="d"><path d="m22.7 44.7h978.7v533.9h-978.7z"/></clipPath><clipPath id="e"><path d="m64 90.1h896v488h-896z"/></clipPath><clipPath id="f"><path d="m108 137.9h808v440.8h-808z"/></clipPath><clipPath id="g"><path d="m169.3 204.8h685.3v373.9h-685.3z"/></clipPath><clipPath id="h"><path d="m59.7 256h2.9v4h-2.9z"/></clipPath><clipPath id="i"><path d="m644 137.9h4v3.4h-4z"/></clipPath><clipPath id="j"><path d="m826.7 137.9h4v3.4h-4z"/></clipPath><clipPath id="k"><path d="m308 283.5h417.3v294.5h-417.3z"/></clipPath><clipPath id="l"><path d="m306.7 281.3h420v296.7h-420z"/></clipPath><clipPath id="m"><path d="m62.7 568h901.6v10h-901.6z"/></clipPath><clipPath id="n"><path d="m116.2 405.3h111.8v172.7h-111.8z"/></clipPath><clipPath id="o"><path d="m804 405.3h112v172.7h-112z"/></clipPath><clipPath id="p"><path d="m343.2 380h330.1v198h-330.1z"/></clipPath><clipPath id="q"><path d="m1.7 158.7h1014.7v225.3h-1014.7z"/></clipPath><clipPath id="r"><path d="m96.7 148.7h250.7v77.3h-250.7z"/></clipPath><clipPath id="s"><path d="m63.7 211.7h521.3v77.3h-521.3z"/></clipPath><clipPath id="t"><path d="m63.7 213h514.6v74.7h-514.6z"/></clipPath><g clip-path="url(#a)" transform="translate(0 375)"><g clip-path="url(#b)"><path d="m495.8 557.9h-406.7c-49.2 0-89-39.8-89-89v-254.1c0-49.2 39.8-89 89-89h406.7c49.2 0 89 39.8 89 89v254.2c0 49.1-39.8 88.9-89 88.9z" fill="#252026"/></g><g clip-path="url(#c)"><path d="m934.8 557.9h-406.7c-49.2 0-89-39.8-89-89v-254.1c0-49.2 39.8-89 89-89h406.7c49.1 0 89 39.8 89 89v254.2c0 49.1-39.8 88.9-89 88.9z" fill="#252026"/></g></g><g clip-path="url(#d)"><path clip-rule="evenodd" d="m512 44.7c-270.2 0-489.3 219.1-489.3 489.3 0 24.6 19.9 44.5 44.5 44.5h889.6c24.6 0 44.5-19.9 44.5-44.5-0-270.2-219.1-489.3-489.3-489.3z" fill="#252026" fill-rule="evenodd"/></g><g clip-path="url(#e)"><path clip-rule="evenodd" d="m512 90.1c-247.3 0-447.7 200.4-447.7 447.7 0 22.5 18.2 40.7 40.7 40.7h814c22.5 0 40.7-18.2 40.7-40.7 0-247.3-200.4-447.7-447.7-447.7z" fill="#d96c3c" fill-rule="evenodd"/></g><g clip-path="url(#f)"><path clip-rule="evenodd" d="m512 137.9c-223 0-403.9 180.8-403.9 403.9 0 20.3 16.4 36.7 36.7 36.7h734.3c20.3 0 36.7-16.4 36.7-36.7.1-223.1-180.8-403.9-403.8-403.9z" fill="#d78741" fill-rule="evenodd"/></g><g clip-path="url(#g)"><path clip-rule="evenodd" d="m512 204.8c-189.2 0-342.6 153.4-342.6 342.6 0 17.2 13.9 31.1 31.1 31.1h622.8c17.2 0 31.1-13.9 31.1-31.1.2-189.2-153.2-342.6-342.4-342.6z" fill="#dd9b46" fill-rule="evenodd"/></g><path d="m207.8 170.7c0 .7-.6 1.4-1.4 1.4-.7 0-1.3-.6-1.3-1.4s.6-1.3 1.3-1.3c.8-.1 1.4.5 1.4 1.3" fill="#f2ecd3"/><path d="m145.6 176.3c0 .7-.6 1.3-1.4 1.3-.7 0-1.3-.6-1.3-1.3s.6-1.4 1.3-1.4c.8.1 1.4.7 1.4 1.4" fill="#f2ecd3"/><path d="m106.7 220.1c0 .7-.6 1.4-1.3 1.4s-1.4-.6-1.4-1.4.6-1.3 1.4-1.3c.7 0 1.3.6 1.3 1.3" fill="#f2ecd3"/><path d="m154.3 254.7c0 .7-.6 1.4-1.3 1.4s-1.4-.6-1.4-1.4.6-1.3 1.4-1.3c.7 0 1.3.6 1.3 1.3" fill="#f2ecd3"/><path d="m99.1 319.6c0 .7-.6 1.3-1.3 1.3s-1.4-.6-1.4-1.3c0-.8.6-1.4 1.4-1.4.7-0 1.3.6 1.3 1.4" fill="#f2ecd3"/><path d="m100.5 435.1c0 .7-.6 1.4-1.4 1.4-.7 0-1.3-.6-1.3-1.4 0-.7.6-1.3 1.3-1.3.8-.1 1.4.5 1.4 1.3" fill="#f2ecd3"/><path d="m125.7 373.4c0 .7-.6 1.3-1.3 1.3s-1.4-.6-1.4-1.3.6-1.4 1.4-1.4c.7.1 1.3.7 1.3 1.4" fill="#f2ecd3"/><g clip-path="url(#h)"><path d="m62.5 257.4c0 .7-.6 1.4-1.3 1.4s-1.4-.6-1.4-1.4.6-1.3 1.4-1.3c.7 0 1.3.6 1.3 1.3" fill="#f2ecd3"/></g><path d="m212.9 286.9c0 .7-.6 1.3-1.3 1.3-.8 0-1.4-.6-1.4-1.3s.6-1.4 1.4-1.4c.7.1 1.3.7 1.3 1.4" fill="#f2ecd3"/><path d="m183.5 351.5c0 .7-.6 1.3-1.3 1.3s-1.4-.6-1.4-1.3c0-.8.6-1.4 1.4-1.4.7 0 1.3.6 1.3 1.4" fill="#f2ecd3"/><path d="m137.5 294.2c0 .7-.6 1.4-1.4 1.4-.7 0-1.3-.6-1.3-1.4s.6-1.3 1.3-1.3c.8-.1 1.4.5 1.4 1.3" fill="#f2ecd3"/><path d="m269.7 253.4c0 .7-.6 1.3-1.4 1.3s-1.3-.6-1.3-1.3c0-.8.6-1.4 1.3-1.4.8 0 1.4.6 1.4 1.4" fill="#f2ecd3"/><path d="m226.3 226.1c0 .7-.6 1.4-1.3 1.4s-1.4-.6-1.4-1.4.6-1.3 1.4-1.3c.7-.1 1.3.5 1.3 1.3" fill="#f2ecd3"/><path d="m280 185.5c0 .7-.6 1.4-1.4 1.4-.7 0-1.3-.6-1.3-1.4 0-.7.6-1.3 1.3-1.3.8 0 1.4.6 1.4 1.3" fill="#f2ecd3"/><path d="m264 144.4c0 .7-.6 1.4-1.4 1.4-.7 0-1.3-.6-1.3-1.4s.6-1.3 1.3-1.3c.8 0 1.4.6 1.4 1.3" fill="#f2ecd3"/><path d="m368.2 145.8c0 .7-.6 1.3-1.4 1.3s-1.3-.6-1.3-1.3.6-1.4 1.3-1.4c.8 0 1.4.7 1.4 1.4" fill="#f2ecd3"/><path d="m335.5 182.8c0 .7-.6 1.4-1.4 1.4-.7 0-1.3-.6-1.3-1.4 0-.7.6-1.3 1.3-1.3.8 0 1.4.6 1.4 1.3" fill="#f2ecd3"/><path d="m368.2 241.2c0 .7-.6 1.4-1.4 1.4s-1.3-.6-1.3-1.4.6-1.3 1.3-1.3c.8 0 1.4.6 1.4 1.3" fill="#f2ecd3"/><path d="m399.5 193.6c0 .7-.6 1.4-1.4 1.4s-1.3-.6-1.3-1.4c0-.7.6-1.3 1.3-1.3s1.4.6 1.4 1.3" fill="#f2ecd3"/><path d="m540.7 166.1c0 .7-.6 1.3-1.3 1.3s-1.4-.6-1.4-1.3.6-1.4 1.4-1.4c.7 0 1.3.6 1.3 1.4" fill="#f2ecd3"/><path d="m464.4 196.3c0 .7-.6 1.4-1.4 1.4s-1.3-.6-1.3-1.4c0-.7.6-1.3 1.3-1.3.8 0 1.4.6 1.4 1.3" fill="#f2ecd3"/><path d="m513.5 270.1c0 .7-.6 1.4-1.3 1.4s-1.4-.6-1.4-1.4.6-1.3 1.4-1.3c.7 0 1.3.6 1.3 1.3" fill="#f2ecd3"/><path d="m416.5 272.8c0 .7-.6 1.4-1.4 1.4-.7 0-1.3-.6-1.3-1.4s.6-1.3 1.3-1.3c.8 0 1.4.6 1.4 1.3" fill="#f2ecd3"/><path d="m574.9 228.2c0 .7-.6 1.4-1.4 1.4s-1.3-.6-1.3-1.4.6-1.3 1.3-1.3c.8 0 1.4.6 1.4 1.3" fill="#f2ecd3"/><g clip-path="url(#i)"><path d="m647.8 139c0 .7-.6 1.4-1.4 1.4-.7 0-1.3-.6-1.3-1.4s.6-1.3 1.3-1.3c.8 0 1.4.6 1.4 1.3" fill="#f2ecd3"/></g><path d="m697 186.1c0 .7-.6 1.4-1.4 1.4-.7 0-1.3-.6-1.3-1.4 0-.7.6-1.3 1.3-1.3.8-.1 1.4.5 1.4 1.3" fill="#f2ecd3"/><path d="m711.2 241.2c0 .7-.6 1.4-1.3 1.4s-1.4-.6-1.4-1.4.6-1.3 1.4-1.3c.7 0 1.3.6 1.3 1.3" fill="#f2ecd3"/><path d="m636.2 272.8c0 .7-.6 1.4-1.4 1.4-.7 0-1.3-.6-1.3-1.4s.6-1.3 1.3-1.3c.8 0 1.4.6 1.4 1.3" fill="#f2ecd3"/><path d="m802.7 218c0 .7-.6 1.4-1.4 1.4-.7 0-1.3-.6-1.3-1.4s.6-1.3 1.3-1.3c.8-.1 1.4.5 1.4 1.3" fill="#f2ecd3"/><g clip-path="url(#j)"><path d="m830 139.9c0 .7-.6 1.3-1.3 1.3s-1.4-.6-1.4-1.3.6-1.4 1.4-1.4c.7 0 1.3.6 1.3 1.4" fill="#f2ecd3"/></g><g fill="#f2ecd3"><path d="m882.5 184.7c0 .7-.6 1.3-1.3 1.3s-1.4-.6-1.4-1.3.6-1.4 1.4-1.4c.7.1 1.3.7 1.3 1.4"/><path d="m861.9 281.8c0 .7-.6 1.3-1.3 1.3s-1.4-.6-1.4-1.3c0-.8.6-1.3 1.4-1.3.7-.1 1.3.5 1.3 1.3"/><path d="m938.7 234.2c0 .7-.6 1.4-1.4 1.4-.7 0-1.3-.6-1.3-1.4s.6-1.3 1.3-1.3c.8-.1 1.4.5 1.4 1.3"/><path d="m881.1 228.8c0 .7-.6 1.4-1.4 1.4-.7 0-1.3-.6-1.3-1.4s.6-1.3 1.3-1.3c.8-.1 1.4.5 1.4 1.3"/><path d="m931.9 325.5c0 .7-.6 1.4-1.4 1.4-.7 0-1.3-.6-1.3-1.4s.6-1.3 1.3-1.3c.8 0 1.4.6 1.4 1.3"/><path d="m853.5 367.2c0 .7-.6 1.3-1.3 1.3s-1.4-.6-1.4-1.3c0-.8.6-1.4 1.4-1.4.7 0 1.3.6 1.3 1.4"/><path d="m923.8 401.2c0 .7-.6 1.3-1.4 1.3-.7 0-1.3-.6-1.3-1.3 0-.8.6-1.4 1.3-1.4.8.1 1.4.7 1.4 1.4"/><path d="m322.7 271.5c0 .7-.6 1.3-1.3 1.3s-1.4-.6-1.4-1.3c0-.8.6-1.4 1.4-1.4.7 0 1.3.6 1.3 1.4"/><path d="m180.7 554.7c.4 1 .7 2.1.9 3.2l237.5 19.7h37.2z"/><path d="m164.5 553.4-56.6-4.7c-.1 1-.3 2.1-.7 3l56.1 4.6c.2-1 .6-2 1.2-2.9"/><path d="m851.6 466.3 53.6-19.1c-.2-1-.5-2-.7-3l-53.9 19.2c.6.9 1 1.9 1 2.9"/><path d="m825.4 408.6-47.5 26.7c.7.8 1.1 1.8 1.2 2.8l47.5-26.7c-.6-.8-1.1-1.8-1.2-2.8"/><path d="m816.8 381.6 43.5-29.6c-.4-1-.8-1.9-1.2-2.9l-43.6 29.7c.6.8 1.1 1.7 1.3 2.8"/><path d="m789.4 364.2 44.3-35.9c-.8-.7-1.3-1.7-1.5-2.7l-44.7 36.3c.8.4 1.5 1.3 1.9 2.3"/><path d="m773.7 333.6c.5.9 1.1 1.7 1.8 2.6l32.3-31.1c-.8-1-1.1-2.2-.9-3.4z"/><path d="m785.8 273.6-29.5 33.6c.8.7 1.5 1.3 2.4 2l29.4-33.5c-.8-.8-1.6-1.4-2.3-2.1"/><path d="m761.3 247.9-34.5 46.8c1.1-.2 2.2 0 3.3.7l33.8-45.8c-1.2-.3-2-.9-2.6-1.7"/><path d="m723.7 241.6-48 78c1.2.1 2.1.6 2.8 1.3l47.9-78c-.9-0-1.9-.5-2.7-1.3"/><path d="m678.1 261.4c.2.2.5.3.7.5l26.3-52.4c-1-.3-2-.7-2.9-1l-26.3 52.2c.8.1 1.5.3 2.2.7"/><path d="m634 291.4 37.5-93.8c-.9-.4-1.9-.8-2.8-1.2l-37.7 94.1c1 0 2.1.3 3 .9"/><path d="m623.5 233.8 14.5-47.7c-1-.3-2-.5-2.9-.8l-14.4 47.4c1.1-0 2.1.4 2.8 1.1"/><path d="m599 186.1-.3-.1-18.8 88.6c.2 0 .4.1.6.2.4-.1.9-.2 1.4-.2.4 0 .8 0 1.1.1l18.8-88.7c-.8.3-1.8.4-2.8.1"/><path d="m531.7 168.6c-.4 0-.7 0-1.1-.1l-1.6 39.6c.6-.2 1.2-.4 1.9-.4.4 0 .8.1 1.2.1l1.6-39.7c-.6.4-1.3.5-2 .5"/><path d="m495.9 179.5 3 69c.4-.1.9-.1 1.3-.1.6 0 1.2.1 1.7.2l-3-69.6c-.9.2-1.9.5-3 .5"/><path d="m481 309.8-16.3-127.6c-.8.7-1.8 1.2-2.9 1.5l16.2 126.5c.9-.2 1.9-.4 3-.4"/><path d="m448.8 272.9h.4l-20.9-96.6c-1 .3-1.9.7-2.9 1l20.7 95.9c.8-.2 1.7-.3 2.7-.3"/><path d="m404.4 219.2-10.6-34.4c-1 .2-2 .3-3.1.5l10.6 34.6c1-.5 2-.7 3.1-.7"/><path d="m385.6 259.1-24.9-61.7c-.9.6-1.8 1.1-2.7 1.6l24.5 60.6c1-.3 2-.5 3.1-.5"/><path d="m392.4 275.9c-.7.7-1.6 1.4-2.6 1.8l17.2 42.6c.9-.3 1.9-.5 3.1-.6z"/><path d="m339.1 232.9c-.6.9-1.3 1.8-2.2 2.4l31.9 62.9c.9-.4 2-.6 3.1-.7z"/><path d="m317 314.5-38.6-52-.3.2c-.4.9-.9 1.7-1.6 2.4l38 51.2c.7-.7 1.6-1.3 2.5-1.8"/><path d="m259.2 291.9-19.2-21.7c-.3.3-.6.6-1 .9-.4.4-.9.7-1.4 1.1l19.5 22.1c.6-1 1.2-1.8 2.1-2.4"/><path d="m272.1 306.5c-.7.8-1.5 1.4-2.5 1.8l34.3 38.8c.6-.8 1.4-1.5 2.3-2.1z"/><path d="m244.9 323.8-32-30.6-.4.5c-.6.6-1.2 1.2-1.8 1.7l31.1 29.7c.8-.7 1.9-1.1 3.1-1.3"/><path d="m284.2 361.3-28.1-26.8c-.1 1.2-.4 2.3-.9 3.4l27.1 25.9c.5-1 1.1-1.8 1.9-2.5"/><path d="m265.6 381.4-73.8-59.5c-.7.7-1.5 1.4-2.4 2l74.4 60c.5-1 1.1-1.8 1.8-2.5"/><path d="m217.3 381.7-49.9-33.7-.4.5c-.5.7-1 1.3-1.5 1.9l50.7 34.2c.2-1 .6-2 1.1-2.9"/><path d="m237.5 427.9-86.8-48.5c-.6.8-1.2 1.7-1.7 2.5l87 48.5c.3-.8.8-1.7 1.5-2.5"/><path d="m180.6 431.9-46.8-21.1c-.8.8-1.7 1.5-2.8 2.1l47.6 21.5c.5-1 1.2-1.8 2-2.5"/><path d="m184.8 526.5-80.7-13.6c-.2 1-.4 2-.6 3l80.3 13.6c.2-1.1.5-2.1 1-3"/><path d="m550.6 576.5 363-95.1c-.4-1-.7-1.9-1-2.9l-360.5 94.5 290.7-103.4c-.5-.9-.8-2-.7-3l-291.4 103.5 247.3-112.6c-.5-.9-.7-2-.6-3.1l-247.6 112.8 221.3-124.5c-.8-.7-1.3-1.7-1.5-2.7l-224.1 126.1 243.9-165.8c-.8-.7-1.4-1.6-1.7-2.6l-244 166 237.3-192.7c-.9-.6-1.4-1.5-1.7-2.6l-238.9 193.9 227.9-219.2c-.6-.8-1.2-1.7-1.8-2.5l-227.2 218.5 165.8-189c-.6-.8-1.2-1.7-1.8-2.6l-166.7 190 131.6-178.3c-1.2-.2-2.1-.7-2.8-1.4l-130.4 176.7 138.4-225.2c-1.1-.4-1.9-1.1-2.4-1.9l-138.1 224.7 134.5-267.5c-1-.2-2-.7-2.7-1.4l-133.8 266 90.8-226.9c-1-.2-2-.6-2.8-1.3l-91 227.4 90.6-298.2c-.3 0-.5.1-.8.1-.9 0-1.6-.2-2.3-.5l-90.4 297.4 52.3-246.2c-.2 0-.4.1-.7.1-.9 0-1.7-.2-2.4-.6l-52.6 247.2 36.3-290.4c-.9.2-1.8.3-2.7 0l-.4-.2-36.6 293.1 10.2-253.6c-.4.1-.9.2-1.5.2h-.4-.4c-.3 0-.6 0-.8-.1l-10.3 257.7-12.4-287c-.8.2-1.6.3-2.6.3l-.5-.1 12.2 281.3-28.3-220.2c-.8.2-1.6.3-2.5.3l-.5-.1 28 218-52.1-240.9c-.9.4-1.9.6-3 .7l52 240.1-90.9-295.5c-.8.6-1.8 1-2.8 1.3l91.2 296.6-79.7-197.3c-.9.4-1.9.7-3 .8l79.2 196.3-119.3-235.4c-.7.8-1.5 1.5-2.4 2.1l119.5 235.7-199.1-321.7c-.9.5-1.8 1-2.7 1.5l200.7 324.1-158-212.7c-.8.6-1.7 1.1-2.8 1.4l157.9 212.6-174.3-197.2c-.6.8-1.3 1.6-2.2 2.1l175.5 198.6-194-185.5c-.6.8-1.3 1.6-2.2 2.2l193 184.6-208.4-168.1c-.4.9-1.1 1.8-1.8 2.5l208.4 168-253.8-171.4c-.5.9-1.2 1.7-2 2.4l253.3 171-231-128.8c-.2 1-.5 2-1.1 2.9l228.1 127.3-284.3-128.3c0 1.1-.1 2.2-.4 3.2l284.5 128.3-250.4-88c-.1 1-.3 2.1-.6 3l249 87.6-314.4-81.2c0 1-.2 2.1-.5 3l314.5 81.3-266.5-45c-.2 1-.5 2-1 3l257.8 43.6h94l263.1-45.5c-.4-.9-.6-2-.5-3z"/><path d="m143.2 451.8c-.1 1-.3 2.1-.7 3l69 24.3c.2-1 .6-2 1.1-2.9z"/><path d="m526.6 286.9h.4c.7 0 1.3.1 1.8.3l2.8-69.5c-.3 0-.5.1-.8.1-.9 0-1.6-.2-2.3-.5l-2.8 69.7h.4z"/><path d="m559.3 240.8c.3 0 .6 0 .8.1l8.5-67.8c-1-.1-2-.2-3.1-.3l-8.6 68.6c.8-.4 1.5-.6 2.4-.6"/><path d="m711.2 315.8-39.9 54.1c1 .5 1.7 1.4 2.1 2.4l40.2-54.4c-1-.6-1.8-1.3-2.4-2.1"/><path d="m720.1 349.5c.5.7.9 1.4 1.3 2l30.7-34.9c-.4-.3-.7-.5-1.1-.8-.4-.4-.9-.7-1.3-1.1l-30.1 34.3c.2.1.3.3.5.5"/><path d="m834.9 406.8 43.1-24.2c-.5-.9-.9-1.8-1.5-2.7l-43 24.1c.7.8 1.2 1.7 1.4 2.8"/><path d="m856.3 526.7 64.7-11.2c-.2-1-.4-2-.5-3l-65.2 11.3c.6.9.9 1.9 1 2.9"/><path d="m846.8 528.4c-.3-1-.3-2.1 0-3.1l-12.8 2.2c.4.9.5 2 .4 3z"/><path d="m857.8 427-52.6 23.9c.8.7 1.4 1.6 1.7 2.6l51.8-23.6c-.6-.8-.9-1.9-.9-2.9"/><path d="m867.4 426 26.3-12c-.7-.8-1.4-1.6-2-2.5l-25.7 11.8c.7.7 1.2 1.6 1.4 2.7"/><path d="m890.7 553.1 36.6-3.2c-.4-.9-.7-1.9-.9-3l-35.4 3.1c.2 1 .1 2.1-.3 3.1"/><path d="m881.4 550.8-310.3 26.7h35.8l275.1-23.7c-.4-.8-.6-1.9-.6-3"/></g><g clip-path="url(#k)"><path d="m706.1 578c12.3-27.1 18.6-56 18.6-86 0-114.8-93.4-208.1-208.1-208.1s-208.2 93.4-208.2 208.1c0 30 6.3 58.9 18.6 86z" fill="#f2ecd3"/></g><g clip-path="url(#l)"><path d="m328.9 578c-12-26.2-18.8-55.3-18.8-86 0-114 92.4-206.5 206.5-206.5 114 .1 206.4 92.5 206.4 206.5 0 30.7-6.7 59.8-18.8 86h3.7c12.2-27.1 18.4-56 18.4-86 0-115.7-94.1-209.8-209.8-209.8s-209.8 94.1-209.8 209.8c0 30 6.2 58.9 18.4 86z" fill="#241f1e"/></g><g clip-path="url(#m)"><path d="m969.6 578c-1.7-.1-4.4-.3-8.2-.5-6.7-.3-16.4-.9-28.9-1.4-12.4-.5-27.5-1.3-44.9-1.8-17.3-.7-36.9-1.4-58.2-1.9-10.7-.3-21.8-.6-33.3-.9s-23.4-.5-35.6-.8c-24.4-.5-50.2-1.1-76.9-1.3-13.3-.2-26.9-.3-40.6-.5-6.9-.1-13.8-.2-20.7-.3-6.9 0-13.9 0-20.9-.1-28-.1-56.4-.2-84.9-.3-28.4.1-56.9.2-84.9.3-14 0-27.9.2-41.6.4s-27.3.3-40.6.5c-26.7.2-52.4.9-76.9 1.3-24.4.4-47.5 1.1-68.9 1.7-21.3.5-40.9 1.3-58.2 1.9s-32.4 1.3-44.9 1.8c-12.4.5-22.2 1.1-28.9 1.4-3.8.2-6.5.4-8.2.5z" fill="#f2ecd3"/></g><g clip-path="url(#n)"><path d="m118.9 576.6c1.9 0 1.6 1 2.6 1.2s.5.3 2.1 0c1.2-.3.7.2 1.1.3h.3l.4-.1c1.5-.3 3.1-.8 4 .1h85.2c.9-.9 2.5-.4 4-.1l.4.1h.3c.4-.1-.1-.5 1.1-.3 1.5.3 1.1.2 2.1 0s.8-1.2 2.6-1.2 2.4-.1 2.4-1.3-1.6-1.6-2.9-2.2c-1.3-.5-3.8-3.2-4.4-4.3-.5-1.1-5.5-2.2-6.6-2.9-1.1-.6-2.8-.1-3.7-.5s-2.8-2.3-3.9-3.2-4.1-.8-4.6-1.9c-.4-1.1-2-2.6-1.3-3.4s1.2 1.7 2.5 2.3c1.3.5 2-.3 2.6-.5.7-.2-.4-.8-.1-1.5.3-.8 1.4.8 1.7 0s-.7-1-.7-1c0-.6 1.1-.5 2.3-.1s2.8-1.2 4.4-1.8c1.5-.5 2.6.9 2.5 0-.1-.8-1.2-1.5-3.2-2.1-2-.5-3.3-2.5-3.8-3.1-.5-.5-1.3 0-4.4-.8-3-.8-1.3-1-3.2-2.1-1.8-1.1-3.3-1.7-3.2-3.1 0-1.4.3-.7 1.4-2.1s2.2 1 3.7 1.2 0-.9.9-1.5c.9-.7.8 2.1 2.2 2.4s-.7-2.2-.3-3.1c.3-.9 1.4.1 2.3 0s-.1-.6 1.1-1.1c1.2-.4.8 1 1.5 0 .8-1 .2-1 .2-1 .9-.1 1.4 0 2.7-.2s-1.1-1.3-.2-1.8 1 .9 1.7 1.5c.8.7.7 0 1.9-.8s1.7-.8 2.6-1.2 0-1.9-1.2-2.6-2.2-1.2-2.8-1.7c-.7-.6-1-.9-2-1h-.3c-.9-.3-2.1-1.1-3.1-1.9-1.1-.9-2.5-2-4.4-2s-3.5-2.6-4.5-3.4-2.1-1-3.4-1.1c-1.4-.1-3.7-.2-2.3-1.6s.9 0 1.4.4c.6.4 1.6.4 2.6-.4 1-.9 1.1 0 1.6.6.5.7 3.3.3 4.5-1s3-.2 4.6 0c1.5.2 1 1 2.4 0s1.4-.7 3-.7 1.6-1.4 1.6-1.4c1.1.1 1.7.7 2.1 0 .4-.6-.5-1.5.9-1.2s3.7-.1 3.2-.5-3.5-1.3-5.1-2.6-4.7-3.8-6.8-4.5c-2.1-.6-4.4-1.6-6.2-2.8s-4.7-1.3-6.2-2.1-8.2-2-8.2-2c-1.2-1.1-2.5-2.5-2.5-2.5 1.2.6.7.8 2 .3 1.3-.4 5.3-.5 6.9-.8s.5-.7 1.5-1.1 1 1 2.3 1.1c1.4.1 0 0 2.1-.7 2.2-.7 0 0 .8 0s.2-.7.8-1 .5-.1 1.4 0 .9-.6 1.7-1.5c.9-.9 1.5-.1 2.4 0 1 .1 1.8-1 1.2-1.6s-.8-.9-1.7-1.2-5.9-2.2-4.8-2.2 1-.9 1.6-1.4c.7-.5 1.8-.8 2.8-1.4 1-.7-.3-2-1.2-2.5-.9-.6-1.9-1.2-2.2-2.1s-1.1-2.3-3-3c-1.9-.8-1-.8-2.2-1.5-1.3-.8-2 .1-2.5-1.2s-1.6 0-3.4 0 .2-1-.2-2-1.7 0-3.6 0-2-.2-4-1.7c-2.1-1.4-2.1-1.3-3-2.2s.5-2.9 2.6-2.7-1.2-1.7-.1-2.6 1.5.1 2.9.2.6-.5 1.5-.8c1-.2.8.4 1.2.3s.1-1.3.8-1.6.3.6 1.2 1.5 1.1.3 2.8.4c1.8.1 0 0 1.8.4 1.7.4 2.2-.3 2.2-1.3s-1.2-1.5-2.2-2.8-2.9-2.7-4.4-3c-1.4-.3-1.3-1.2-2.2-2s-1.8-.6-2.7-.6c-1-.1-2.1-.7-2.8-1.7s-1.9-1.1-3.2-1.1-2.6.4-3.1-1c-.4-1.4 2.2-1.2 2.3-2.3s1.4 0 2.5 0c1 0 .8-1.4 2.2-1.8 1.4-.5 1.7.5 2.1-.7s-4.1-2.4-6.3-4-2.1-3.4-2.1-3.4c1.2-.3 0-1.6.9-2.3s1.3 1 1.7-.4c.3-1.4-4-3.9-4.5-4.3-.6-.3-.8-2-.1-2s.2-1.5 1-2.5 1.1.8 1.6 0-1.7-3.1-2.5-3.9c-.8-.9-2.5-3-2.8-3.4-.3-.3 1.2.4 2.3 0s.2-1.6 1-2.1c.8-.4.9.6.9-.6s-2.3-1.5-2.6-1.8c-.3-.2 0-1.3 0-2.3s-1.3-.4-2.3-.8c-1-.3-.4-.2-.5-1.3s.8-.4 2.2-.6.2-.9-.9-2.2-.9-1.2-.9-1.2c-1.1-3.5-2.6-4.3-3.1-4.5v-.1h-.1-.1v.1c-.5.2-2 1-3.1 4.5 0 0 .2-.1-.9 1.2s-2.3 2-.9 2.2 2.3-.5 2.2.6.4 1-.5 1.3c-1 .3-2.3-.2-2.3.8s.3 2.1 0 2.3c-.4.2-2.6.6-2.6 1.8s.1.2.9.6-.1 1.6 1 2.1c1.1.4 2.6-.3 2.3 0s-2.1 2.5-2.8 3.4c-.8.9-3 3.2-2.5 3.9.5.8.9-1 1.6 0 .8 1 .3 2.5 1 2.5s.4 1.6-.1 2c-.5.3-4.9 2.8-4.5 4.3.4 1.4.8-.2 1.7.4.9.7-.3 2 .9 2.3 0 0 .1 1.8-2.1 3.4s-6.7 2.8-6.3 4 .7.2 2.1.7c1.4.4 1.2 1.8 2.2 1.8s2.4-1.1 2.5 0 2.7.9 2.3 2.3-1.7 1-3 1-2.4.1-3.2 1.1c-.7 1-1.8 1.5-2.8 1.7-1 .1-1.8-.1-2.7.6-.9.8-.8 1.6-2.2 2-1.4.3-3.4 1.7-4.4 3s-2.2 1.9-2.2 2.8c0 1 .4 1.7 2.2 1.3s0-.3 1.8-.4c1.7-.1 1.9.4 2.8-.4.9-.9.5-1.9 1.2-1.5.7.3.3 1.5.8 1.6.4.1.2-.5 1.2-.3s.1.9 1.5.8 1.7-1.1 2.9-.2c1.1.9-2.1 2.8-.1 2.6 2.1-.2 3.5 1.9 2.6 2.7-.9.9-3.2.8-5.7 2.2-2.4 1.4.5 1.7-1.3 1.7-1.9 0-3.2-1-3.6 0s1.6 2-.2 2-2.9-1.3-3.4 0-1.3.4-2.5 1.2c-1.3.8-.3.8-2.2 1.5-1.9.8-2.7 2.2-3 3-.3.9-1.4 1.5-2.2 2.1-.9.5-2.1 1.8-1.2 2.5 1 .6 2.1.9 2.8 1.4s.6 1.4 1.6 1.4c1.1 0 2.6 1.8 1.9 2.2-.8.3-.9.5-1.4 1.2s.2 1.8 1 1.6c.8-.1 1.3-.9 2 0s.7 1.6 1.4 1.5.6-.3 1.1 0 0 1 .6 1-1.1-.7.6 0c1.8.7.6.8 1.8.7 1.1-.1 1.1-1.5 1.9-1.1s-.1.8 1.2 1.1 1.1.4 2.4.8c1.3.5.8.3 2-.3 0 0-1.3 1.4-2.5 2.5 0 0-2.1 1.2-3.4 2-1.2.8-3.6.9-5.1 2.1s-3.4 2.2-5.1 2.8c-1.7.7-12.1 3.2-13.8 4.5-1.6 1.3-4.6 2.2-5.1 2.6s1.7.9 3.2.5c1.4-.3.4.6.9 1.2.4.7 1 .1 2.1 0 0 0 0 1.4 1.6 1.4s1.6-.3 3.1.7c1.4 1 .9.2 2.4 0s3.4-1.3 4.6 0 3.9 1.6 4.5 1c.5-.6.7-1.5 1.6-.6 1 .9 2.1.9 2.6.4.5-.4 0-1.8 1.4-.4s-1 1.5-2.3 1.6c-1.4.1-2.5.3-3.4 1.1-1 .8-2.6 3.4-4.5 3.4-1.8 0-3.3 1.1-4.3 2-1 .8-2.1 1.6-3.1 1.9h-.3c-1 .1-1.3.4-2 1-.7.5-1.6 1.1-2.8 1.7-1.2.7-2.1 2.2-1.2 2.6.9.5 1.4.5 2.6 1.2 1.2.8 1.1 1.4 1.8.8.8-.7.9-2.1 1.8-1.5.9.5-1.5 1.6-.2 1.8s1.9.1 2.7.2c0 0-.5 0 .2 1 .8 1 .3-.4 1.5 0s.2 1 1.1 1.1 2-.9 2.3 0-1.8 3.4-.3 3.1c1.4-.3 1.3-3.1 2.2-2.4s-.7 1.8.9 1.5c1.5-.2 2.6-2.6 3.7-1.2s1.3.7 1.4 2.1c0 1.4-1.4 2.1-3.2 3.1-1.9 1.1-.1 1.3-3.2 2.1-3 .8-3.8.2-4.4.8-.5.6-1.8 2.5-3.8 3.1-2 .5-3.1 1.2-3.2 2.1s1-.5 2.5 0c1.5.6 3.2 2.2 4.4 1.8s2.3-.5 2.3.1c0 0-1 .3-.7 1 .3.8 1.4-.8 1.7 0s-.8 1.3-.1 1.5c.6.2 1.3 1.1 2.6.5 1.3-.5 1.8-3 2.5-2.3.7.8-.9 2.3-1.3 3.4s-3.5 1-4.6 1.9-3 2.8-3.9 3.2-2.6-.1-3.7.5c-1.1.7-6.1 1.8-6.6 2.9-.6 1.1-3.1 3.8-4.4 4.3s-2.9 1-2.9 2.2c-.4 1.2.2 1.3 2 1.3" fill="#f2ecd3"/></g><path d="m201.2 574.4c1.4 0 1.3.8 2 .9.8.2.4.3 1.6 0 1.2-.2.2.4 1.3.2 1.2-.2 2.4-.7 3.1.1.4.4.5.8.8 1h.7l.2-.1c.8-.7 1.7-.4 2 .1h5.6c0-.2-.1-.4.1-.4s.2.2.2.4h1.2c.2-.2.3-.4.7-.2l.1.2h42.6l.1-.2c.4-.3.5-.1.7.2h1.2c0-.2 0-.4.2-.4s.2.2.1.4h5.6c.4-.5 1.2-.8 2-.1l.2.1h.7c.2-.2.4-.7.8-1 .7-.7 1.9-.3 3.1-.1s.2-.4 1.4-.2c1.2.3.8.2 1.6 0s.6-.9 2-.9 1.9-.1 1.9-1-1.3-1.3-2.3-1.7-2.9-2.5-3.4-3.3c-.4-.8-4.2-1.7-5.1-2.2-.8-.5-2.2-.1-2.9-.4s-2.2-1.8-3-2.5c-.9-.7-3.2-.6-3.5-1.4s-1.5-2-1-2.6.9 1.3 1.9 1.8c1 .4 1.5-.2 2-.4s-.3-.6-.1-1.2 1.1.6 1.3 0c.3-.6-.5-.8-.5-.8 0-.4.8-.4 1.8-.1.9.3 2.2-.9 3.4-1.4 1.2-.4 2 .7 2 0-.1-.7-.9-1.2-2.5-1.6-1.5-.4-2.5-1.9-2.9-2.4-.4-.4-1 0-3.4-.6s-1-.8-2.5-1.6c-1.4-.8-2.5-1.3-2.5-2.4s.2-.5 1.1-1.6c.8-1.1 1.7.8 2.9.9 1.2.2 0-.7.7-1.2s.6 1.6 1.7 1.9-.5-1.7-.3-2.4c.3-.7 1.1.1 1.8 0s-.1-.5.9-.8c.9-.3.6.7 1.2 0 .6-.8.2-.8.2-.8.7-.1 1.1 0 2.1-.1s-.8-1-.2-1.4c.7-.4.8.7 1.4 1.2s.5 0 1.4-.6 1.4-.6 2-.9c.7-.3 0-1.5-.9-2s-1.7-.9-2.2-1.3-.8-.7-1.5-.8h-.2c-.7-.2-1.6-.9-2.4-1.5-.8-.7-1.9-1.5-3.4-1.5s-2.7-2-3.4-2.6c-.8-.6-1.6-.8-2.7-.8-1.1-.1-2.9-.2-1.8-1.3s.7 0 1.1.3 1.3.3 2-.3c.8-.7.8 0 1.3.5.4.5 2.5.2 3.5-.7.9-1 2.4-.2 3.5 0 1.2.2.8.7 1.8 0 1.1-.8 1.1-.5 2.4-.5s1.3-1.1 1.3-1.1c.8.1 1.3.5 1.6 0s-.4-1.2.7-.9 2.9-.1 2.4-.4c-.4-.3-2.7-1-4-2s-3.6-2.9-5.2-3.5c-1.6-.5-3.4-1.3-4.8-2.2s-3.6-1-4.8-1.6-6.4-1.5-6.4-1.5c-.9-.8-1.9-1.9-1.9-1.9.9.5.5.6 1.5.2 1-.3 4.1-.4 5.3-.6s.4-.5 1.1-.9c.8-.3.8.8 1.8.9 1.1.1 0 0 1.7-.5s0 0 .6 0 .2-.5.6-.8c.5-.2.4-.1 1.1 0s.7-.5 1.4-1.2 1.1-.1 1.9 0 1.4-.8.9-1.3-.6-.7-1.3-.9c-.7-.3-4.6-1.7-3.7-1.7s.8-.7 1.3-1.1 1.4-.6 2.2-1.1-.2-1.5-.9-1.9-1.5-.9-1.7-1.6-.8-1.8-2.3-2.4-.8-.6-1.8-1.2-1.6.1-1.9-.9c-.4-1-1.2 0-2.6 0s.2-.8-.2-1.5c-.3-.8-1.3 0-2.8 0-1.4 0-1.5-.2-3.1-1.3s-1.6-1-2.3-1.7.4-2.3 2-2.1-1-1.4-.1-2c.9-.7 1.1.1 2.2.2s.4-.4 1.2-.6.6.3.9.3c.3-.1.1-1 .6-1.3s.2.5.9 1.2.8.2 2.2.3c1.3.1 0 0 1.3.3s1.7-.3 1.7-1c0-.8-.9-1.2-1.7-2.2s-2.3-2.1-3.4-2.4c-1.1-.2-1-.9-1.7-1.5s-1.3-.4-2.1-.5-1.6-.5-2.2-1.3-1.5-.8-2.5-.8-2 .3-2.4-.8c-.3-1.1 1.7-.9 1.8-1.8.1-.8 1.1 0 1.9 0s.6-1.1 1.7-1.4c1.1-.4 1.3.4 1.6-.5s-3.1-1.9-4.9-3.1c-1.7-1.3-1.6-2.6-1.6-2.6.9-.2 0-1.3.7-1.8s1 .8 1.3-.3-3.1-3-3.5-3.3-.6-1.5-.1-1.5.2-1.2.8-1.9c.6-.8.8.6 1.3 0 .4-.6-1.3-2.4-1.9-3-.6-.7-1.9-2.3-2.2-2.6-.2-.3.9.3 1.8 0 .8-.3.2-1.3.8-1.6s.7.4.7-.5-1.8-1.2-2-1.4c-.3-.2 0-1 0-1.8s-1-.3-1.8-.6c-.8-.2-.3-.2-.4-1-.1-.9.6-.3 1.7-.5s.2-.7-.7-1.7c-.8-1-.7-.9-.7-.9-.8-2.7-2-3.4-2.4-3.5h-.1-.1c-.4.1-1.6.8-2.4 3.5 0 0 .2-.1-.7.9-.8 1-1.8 1.5-.7 1.7s1.8-.3 1.7.5.3.8-.4 1c-.8.3-1.8-.2-1.8.6s.3 1.6 0 1.8-2 .4-2 1.4.1.2.7.5-.1 1.3.8 1.6c.8.3 2-.3 1.8 0s-1.6 1.9-2.2 2.6-2.4 2.5-1.9 3c.4.6.7-.8 1.3 0s.2 1.9.8 1.9c.5 0 .3 1.3-.1 1.5s-3.8 2.2-3.5 3.3.6-.2 1.3.3-.2 1.5.7 1.8c0 0 .1 1.3-1.6 2.6s-5.2 2.2-4.9 3.1.5.2 1.6.5.9 1.4 1.7 1.4 1.8-.8 1.9 0 2.1.7 1.8 1.8-1.4.8-2.4.8-1.9.1-2.5.8c-.6.8-1.4 1.2-2.2 1.3s-1.4-.1-2.1.5-.6 1.3-1.7 1.5-2.6 1.3-3.4 2.4c-.8 1-1.7 1.4-1.7 2.2 0 .7.3 1.3 1.7 1s0-.3 1.4-.3c1.3-.1 1.5.3 2.2-.3.7-.7.4-1.4.9-1.2.5.3.3 1.2.6 1.3s.2-.4.9-.3c.8.2.1.7 1.2.6s1.3-.8 2.2-.2c.9.7-1.7 2.2-.1 2s2.7 1.4 2 2.1-2.5.6-4.4 1.7.4 1.3-1 1.3-2.4-.8-2.8 0c-.3.8 1.3 1.5-.2 1.5s-2.3-1-2.6 0c-.4 1-1 .3-2 .9s-.2.6-1.7 1.2-2.1 1.7-2.3 2.4-1.1 1.2-1.7 1.6c-.7.4-1.7 1.4-.9 1.9s1.6.7 2.2 1.1.4 1.1 1.3 1.1 2.1 1.4 1.5 1.7c-.6.2-.7.4-1.1.9s.1 1.4.7 1.3 1-.7 1.5 0c.6.7.6 1.2 1.1 1.2.6-.1.5-.2.9 0s0 .8.5.8-.9-.5.5 0 .5.6 1.4.5.9-1.2 1.5-.9-.1.7.9.9.9.3 1.9.6c1 .4.6.3 1.5-.2 0 0-1 1.1-1.9 1.9 0 0-1.7.9-2.6 1.5-1 .6-2.8.7-3.9 1.6-1.2.9-2.6 1.7-4 2.2-1.3.5-9.4 2.5-10.7 3.5s-3.5 1.7-4 2c-.4.3 1.4.7 2.4.4 1.1-.2.3.4.7.9.3.5.8.1 1.6 0 0 0 0 1.1 1.3 1.1s1.3-.3 2.4.5c1.1.7.7.2 1.9 0s2.6-1 3.5 0 3 1.2 3.5.7c.4-.5.5-1.2 1.3-.5s1.6.7 2 .3c.4-.3 0-1.4 1.1-.3s-.7 1.2-1.8 1.3-1.9.2-2.7.8-2 2.6-3.5 2.6c-1.4 0-2.5.8-3.4 1.5-.8.6-1.7 1.3-2.4 1.5h-.2c-.8.1-1 .3-1.5.8-.5.4-1.3.8-2.2 1.3s-1.6 1.7-.9 2 1.1.3 2 .9.8 1.1 1.4.6.7-1.6 1.3-1.2c.7.4-1.2 1.3-.2 1.4s1.4 0 2.1.1c0 0-.4 0 .2.8.6.7.2-.3 1.2 0 .9.3.2.7.8.8.7.1 1.5-.7 1.8 0 .2.7-1.4 2.6-.3 2.4 1.1-.3 1-2.4 1.7-1.9s-.5 1.4.7 1.2 2-2 2.9-.9c.8 1.1 1 .5 1.1 1.6 0 1.1-1.1 1.6-2.5 2.4s-.1 1-2.4 1.6c-2.4.6-3 .2-3.4.6s-1.4 2-3 2.4c-1.5.4-2.4.9-2.4 1.6-.1.7.8-.4 1.9 0 1.2.4 2.4 1.7 3.4 1.4.9-.3 1.8-.4 1.8.1 0 0-.8.2-.5.8s1.1-.6 1.3 0c.3.6-.6 1-.1 1.2s1 .8 2 .4 1.4-2.3 1.9-1.8c.5.6-.7 1.8-1 2.6s-2.7.7-3.5 1.4-2.4 2.2-3 2.5c-.7.3-2-.1-2.9.4s-4.7 1.4-5.1 2.2c-.4.9-2.4 2.9-3.4 3.3s-2.3.8-2.3 1.7c.2.9.6 1 2 1" fill="#f2ecd3"/><path d="m262.3 575c1.1 0 1 .6 1.5.7.6.1.3.2 1.2 0s.1.3 1 .1 1.8-.5 2.3.1c.3.3.4.6.6.8h.6.1c.6-.5 1.2-.3 1.5 0h4.2l.1-.3.2.3h.9c.1-.2.3-.3.5-.1l.1.1h31.9l.1-.1c.3-.2.4-.1.5.1h.9l.2-.3.1.3h4.2c.3-.4.9-.6 1.5 0h.1.6c.2-.2.3-.5.6-.8.5-.6 1.5-.2 2.3-.1.9.2.1-.3 1-.1s.6.1 1.2 0 .4-.7 1.5-.7 1.4-.1 1.4-.8-.9-.9-1.7-1.3c-.8-.3-2.2-1.8-2.5-2.5-.3-.6-3.2-1.3-3.8-1.7s-1.6-.1-2.1-.3c-.5-.3-1.6-1.4-2.3-1.9-.6-.5-2.4-.4-2.6-1.1-.3-.6-1.1-1.5-.8-2 .4-.4.7 1 1.5 1.3s1.1-.2 1.5-.3-.2-.4-.1-.9c.2-.4.8.4 1 0s-.4-.6-.4-.6c0-.3.6-.3 1.3-.1.7.3 1.7-.7 2.5-1 .9-.3 1.5.5 1.5 0-.1-.5-.7-.9-1.8-1.2s-1.9-1.4-2.2-1.8c-.3-.3-.8 0-2.5-.4-1.8-.4-.8-.6-1.8-1.2-1.1-.6-1.9-1-1.9-1.8s.2-.4.8-1.2 1.3.6 2.1.7c.9.1 0-.5.5-.9s.4 1.2 1.3 1.4c.8.2-.4-1.3-.2-1.8s.8.1 1.3 0-.1-.4.6-.6c.7-.3.4.6.9 0 .4-.6.1-.6.1-.6.5-.1.8 0 1.6-.1s-.6-.7-.1-1 .6.5 1 .9.4 0 1.1-.4 1-.4 1.5-.7c.5-.2 0-1.1-.7-1.5s-1.3-.7-1.6-1c-.4-.3-.6-.5-1.1-.6h-.2c-.5-.2-1.2-.7-1.8-1.1-.6-.5-1.5-1.1-2.5-1.1-1.1 0-2-1.5-2.6-2-.6-.4-1.2-.6-2-.6-.8-.1-2.2-.1-1.3-.9.8-.8.5 0 .8.3.3.2.9.2 1.5-.3s.6 0 .9.4 1.9.2 2.6-.6 1.8-.1 2.6 0c.9.1.6.6 1.4 0s.8-.4 1.8-.4c.9 0 .9-.8.9-.8.6.1 1 .4 1.2 0 .3-.4-.3-.9.5-.7s2.1-.1 1.8-.3c-.3-.3-2-.8-3-1.5-.9-.8-2.7-2.2-3.9-2.6s-2.5-.9-3.6-1.6-2.7-.8-3.6-1.2-4.7-1.2-4.7-1.2c-.7-.6-1.4-1.4-1.4-1.4.7.4.4.4 1.1.2s3.1-.3 4-.5.3-.4.8-.7c.6-.2.6.6 1.3.6.8.1 0 0 1.2-.4s0 0 .5 0 .1-.4.5-.6c.3-.2.3-.1.8 0s.5-.4 1-.9.9-.1 1.4 0c.6.1 1-.6.7-1s-.4-.5-1-.7c-.5-.2-3.4-1.3-2.8-1.3s.6-.5 1-.8 1.1-.4 1.6-.8-.2-1.1-.7-1.4-1.1-.7-1.3-1.2-.6-1.3-1.7-1.8c-1.1-.4-.6-.4-1.3-.9-.7-.4-1.2.1-1.5-.7-.3-.7-.9 0-2 0s.1-.6-.1-1.1c-.3-.6-1 0-2.1 0s-1.1-.1-2.3-1c-1.2-.8-1.2-.8-1.7-1.2-.5-.5.3-1.7 1.5-1.6s-.7-1-.1-1.5c.7-.5.9.1 1.7.1.8.1.3-.3.9-.4s.4.2.7.2c.2-.1.1-.8.4-.9.4-.2.2.4.7.9s.6.2 1.6.2c1 .1 0 0 1 .3 1 .2 1.3-.2 1.3-.8s-.7-.9-1.3-1.7-1.7-1.6-2.5-1.8-.8-.7-1.3-1.1-1-.3-1.6-.4-1.2-.4-1.6-1-1.1-.6-1.8-.6c-.8 0-1.5.3-1.8-.6-.3-.8 1.2-.7 1.3-1.3s.8 0 1.4 0 .5-.8 1.3-1.1 1 .3 1.2-.4-2.3-1.4-3.6-2.3-1.2-2-1.2-2c.7-.2 0-.9.5-1.3s.8.6 1-.2-2.3-2.3-2.6-2.5-.4-1.1-.1-1.1c.4 0 .1-.9.6-1.4.4-.6.6.4 1 0 .3-.4-1-1.8-1.5-2.3-.4-.5-1.5-1.8-1.6-1.9-.2-.2.7.2 1.3 0 .6-.3.1-1 .6-1.2.4-.2.5.3.5-.4s-1.3-.9-1.5-1 0-.8 0-1.3c0-.6-.8-.3-1.3-.4-.6-.2-.3-.1-.3-.8-.1-.6.4-.3 1.3-.4.8-.1.1-.5-.5-1.3s-.5-.7-.5-.7c-.6-2-1.5-2.5-1.8-2.6h-.1c-.3.1-1.2.6-1.8 2.6 0 0 .1-.1-.5.7s-1.3 1.1-.5 1.3c.8.1 1.3-.3 1.3.4-.1.6.2.6-.3.8-.6.2-1.3-.1-1.3.4 0 .6.2 1.2 0 1.3s-1.5.3-1.5 1 .1.1.5.4c.4.2-.1.9.6 1.2.6.2 1.5-.2 1.3 0s-1.2 1.4-1.6 1.9-1.8 1.8-1.4 2.3c.3.4.5-.6.9 0s.2 1.4.6 1.4.3.9-.1 1.1c-.3.2-2.8 1.6-2.6 2.5.2.8.4-.1 1 .2.5.4-.2 1.1.5 1.3 0 0 .1 1-1.2 2-1.3.9-3.9 1.6-3.6 2.3.2.7.4.1 1.2.4.8.2.7 1.1 1.3 1.1s1.4-.6 1.4 0c.1.6 1.6.5 1.3 1.3s-1 .6-1.8.6-1.4.1-1.8.6c-.4.6-1.1.9-1.6 1-.6.1-1.1-.1-1.6.4-.5.4-.4.9-1.3 1.1-.8.2-1.9 1-2.5 1.8s-1.3 1.1-1.3 1.7c0 .5.2 1 1.3.8 1-.3 0-.2 1-.3s1.1.3 1.6-.2.3-1.1.7-.9.2.9.4.9c.3 0 .1-.3.7-.2s.1.5.9.4 1-.6 1.7-.1-1.2 1.7 0 1.5c1.2-.1 2 1.1 1.5 1.6s-1.9.4-3.3 1.2.3 1-.8 1-1.8-.6-2.1 0 .9 1.1-.1 1.1-1.7-.7-2 0c-.3.8-.7.3-1.5.7-.7.5-.2.5-1.3.9s-1.6 1.3-1.7 1.8c-.2.5-.8.9-1.3 1.2s-1.2 1.1-.7 1.4c.6.4 1.2.5 1.6.8s.3.8 1 .8c.6 0 1.5 1.1 1.1 1.3s-.5.3-.8.7.1 1 .5 1c.5-.1.7-.5 1.2 0 .4.5.4.9.8.9.4-.1.4-.2.7 0s0 .6.4.6-.6-.4.4 0 .4.4 1 .4c.6-.1.6-.9 1.1-.6s0 .5.7.7.7.2 1.4.5.5.2 1.2-.2c0 0-.8.8-1.4 1.4 0 0-1.2.7-2 1.2-.7.4-2.1.5-2.9 1.2-.9.7-2 1.3-2.9 1.6-1 .4-7 1.8-8 2.6s-2.6 1.3-3 1.5c-.3.2 1 .5 1.8.3s.3.3.5.7.6.1 1.2 0c0 0 0 .8.9.8s.9-.2 1.8.4c.8.6.5.1 1.4 0s2-.8 2.7 0c.7.7 2.3.9 2.6.6.3-.4.4-.9.9-.4.6.5 1.2.5 1.5.3.3-.3 0-1.1.8-.3s-.5.9-1.3.9c-.8.1-1.4.2-2 .6s-1.5 2-2.6 2-1.9.6-2.5 1.1c-.6.4-1.2 1-1.8 1.1h-.2c-.6.1-.8.2-1.1.6-.4.3-1 .6-1.6 1-.7.4-1.2 1.3-.7 1.5.5.3.8.3 1.5.7s.6.8 1.1.4c.4-.4.5-1.2 1-.9s-.9.9-.1 1 1.1 0 1.6.1c0 0-.3 0 .1.6s.2-.3.9 0c.7.2.1.6.6.6.5.1 1.1-.5 1.3 0s-1 1.9-.2 1.8c.8-.2.8-1.8 1.3-1.4s-.4 1 .5.9 1.5-1.5 2.2-.7c.6.8.8.4.8 1.2s-.8 1.2-1.9 1.8-.1.8-1.8 1.2c-1.8.4-2.2.1-2.5.4s-1.1 1.5-2.2 1.8-1.8.7-1.8 1.2c-.1.5.6-.3 1.4 0 .9.3 1.8 1.3 2.5 1 .7-.2 1.3-.3 1.3.1 0 0-.6.1-.4.6.2.4.8-.4 1 0s-.4.8-.1.9c.4.1.8.6 1.5.3.8-.3 1.1-1.8 1.5-1.3.4.4-.5 1.3-.8 2-.2.6-2 .6-2.7 1.1-.6.5-1.8 1.6-2.3 1.9-.5.2-1.5-.1-2.1.3s-3.5 1-3.8 1.7c-.3.6-1.8 2.2-2.5 2.5-.8.3-1.7.6-1.7 1.3-.3.7 0 .8 1 .8" fill="#f2ecd3"/><g clip-path="url(#o)"><path d="m806.5 576.6c1.9 0 1.6 1 2.6 1.2s.6.3 2.1 0c1.2-.3.7.2 1.1.3h.3l.4-.1c1.5-.3 3.1-.8 4 .1h85.2c.9-.9 2.5-.4 4-.1l.4.1h.3c.4-.1-.1-.5 1.1-.3 1.5.3 1.1.2 2.1 0s.8-1.2 2.6-1.2 2.4-.1 2.4-1.3-1.6-1.6-2.9-2.2c-1.3-.5-3.8-3.2-4.4-4.3-.5-1.1-5.5-2.2-6.6-2.9-1.1-.6-2.8-.1-3.7-.5s-2.8-2.3-3.9-3.2-4.2-.8-4.6-1.9-2-2.6-1.3-3.4 1.2 1.7 2.5 2.3c1.3.5 2-.3 2.6-.5.7-.2-.4-.8-.1-1.5.3-.8 1.4.8 1.7 0s-.7-1-.7-1c0-.6 1.1-.5 2.3-.1s2.8-1.2 4.4-1.8c1.5-.5 2.6.9 2.5 0-.1-.8-1.2-1.5-3.2-2.1-2-.5-3.3-2.5-3.8-3.1-.5-.5-1.3 0-4.4-.8s-1.3-1-3.2-2.1-3.3-1.7-3.2-3.1c0-1.4.3-.7 1.4-2.1s2.2 1 3.7 1.2 0-.9.9-1.5c.9-.7.8 2.1 2.2 2.4s-.6-2.2-.3-3.1 1.4.1 2.3 0-.1-.6 1.1-1.1c1.2-.4.8 1 1.5 0 .8-1 .2-1 .2-1 .9-.1 1.4 0 2.7-.2s-1.1-1.3-.2-1.8 1 .9 1.7 1.5c.8.7.7 0 1.9-.8s1.8-.8 2.6-1.2c.9-.4 0-1.9-1.2-2.6s-2.2-1.2-2.8-1.7c-.7-.6-1-.9-2-1h-.3c-.9-.3-2.1-1.1-3.1-1.9-1.1-.9-2.5-2-4.3-2-1.9 0-3.5-2.6-4.5-3.4s-2.1-1-3.4-1.1c-1.4-.1-3.8-.2-2.3-1.6 1.4-1.4.9 0 1.4.4s1.6.4 2.6-.4c1-.9 1.1 0 1.6.6.6.7 3.3.3 4.5-1s3.1-.2 4.6 0 1 1 2.4 0 1.4-.7 3.1-.7c1.6 0 1.6-1.4 1.6-1.4 1.1.1 1.6.7 2.1 0 .4-.6-.5-1.5.9-1.2s3.7-.1 3.2-.5-3.5-1.3-5.1-2.6-12.1-3.8-13.8-4.5c-1.7-.6-3.6-1.6-5.1-2.8s-3.8-1.3-5.1-2.1-3.4-2-3.4-2c-1.1-1.1-2.5-2.5-2.5-2.5 1.2.6.7.8 2 .3 1.3-.4 1.1-.5 2.4-.8s.4-.7 1.2-1.1.8 1 1.9 1.1 0 0 1.8-.7 0 0 .6 0 .2-.7.6-1c.5-.3.4-.1 1.1 0s.7-.6 1.4-1.5 1.2-.1 2 0 1.4-1 1-1.6c-.5-.6-.6-.9-1.4-1.2-.7-.3.8-2.2 1.9-2.2s1-.9 1.7-1.4 1.8-.8 2.8-1.4c1-.7-.3-2-1.2-2.5-.9-.6-1.9-1.2-2.2-2.1s-1.1-2.3-3-3c-1.9-.8-1-.8-2.2-1.5-1.3-.8-2 .1-2.5-1.2s-1.5 0-3.4 0c-1.8 0 .2-1-.2-2s-1.7 0-3.6 0c-1.8 0 1.1-.2-1.3-1.7-2.4-1.4-4.8-1.3-5.7-2.2s.5-2.9 2.6-2.7-1.2-1.7-.1-2.6 1.5.1 2.9.2.5-.5 1.5-.8c1-.2.8.4 1.2.3s.1-1.3.8-1.6c.6-.3.3.6 1.2 1.5s1.1.3 2.8.4 0 0 1.7.4 2.2-.3 2.2-1.3-1.2-1.5-2.2-2.8-2.9-2.7-4.4-3c-1.4-.3-1.3-1.2-2.2-2s-1.7-.6-2.7-.6c-1-.1-2.1-.7-2.8-1.7s-1.9-1.1-3.2-1.1-2.6.4-3-1 2.2-1.2 2.3-2.3 1.4 0 2.5 0c1 0 .8-1.4 2.2-1.8 1.4-.5 1.7.5 2.1-.7s-4.1-2.4-6.3-4-2.1-3.4-2.1-3.4c1.2-.3 0-1.6.9-2.3s1.3 1 1.7-.4-4-3.9-4.5-4.3c-.5-.3-.8-2-.1-2s.2-1.5 1-2.5 1.1.8 1.6 0-1.7-3.1-2.5-3.9c-.8-.9-2.5-3-2.8-3.4-.3-.3 1.2.4 2.3 0s.2-1.6 1-2.1c.8-.4.9.6.9-.6s-2.3-1.5-2.6-1.8c-.3-.2 0-1.3 0-2.3s-1.3-.4-2.3-.8c-1-.3-.4-.2-.5-1.3s.8-.4 2.2-.6.2-.9-.9-2.2-.9-1.2-.9-1.2c-1.1-3.5-2.6-4.3-3.1-4.5v-.1h-.1-.1v.1c-.5.2-2 1-3.1 4.5 0 0 .2-.1-.9 1.2s-2.3 2-.9 2.2 2.3-.5 2.2.6.4 1-.5 1.3c-1 .3-2.3-.2-2.3.8s.3 2.1 0 2.3-2.6.6-2.6 1.8.1.2.9.6-.1 1.6 1 2.1c1.1.4 2.6-.3 2.3 0s-2.1 2.5-2.8 3.4c-.8.9-3 3.2-2.5 3.9.6.8.9-1 1.6 0 .8 1 .3 2.5 1 2.5s.4 1.6-.1 2c-.5.3-4.8 2.8-4.5 4.3.4 1.4.8-.2 1.7.4.9.7-.3 2 .9 2.3 0 0 .1 1.8-2.1 3.4s-6.7 2.8-6.3 4 .7.2 2.1.7c1.4.4 1.2 1.8 2.2 1.8s2.4-1.1 2.5 0 2.7.9 2.3 2.3-1.7 1-3 1-2.4.1-3.2 1.1c-.7 1-1.8 1.5-2.8 1.7-1 .1-1.8-.1-2.7.6-.9.8-.8 1.6-2.2 2-1.4.3-3.4 1.7-4.4 3s-2.2 1.9-2.2 2.8c0 1 .4 1.7 2.2 1.3 1.7-.4 0-.3 1.7-.4s2 .4 2.8-.4c.9-.9.5-1.9 1.2-1.5.6.3.3 1.5.8 1.6.4.1.2-.5 1.2-.3s.1.9 1.5.8 1.8-1.1 2.9-.2-2.1 2.8-.1 2.6c2.1-.2 3.5 1.9 2.6 2.7-.9.9-.9.8-3 2.2s-2.2 1.7-4 1.7-3.2-1-3.6 0 1.6 2-.2 2-2.9-1.3-3.4 0-1.3.4-2.5 1.2c-1.3.8-.3.8-2.2 1.5-1.9.8-2.7 2.2-3 3-.3.9-1.4 1.5-2.2 2.1-.9.5-2.1 1.8-1.2 2.5 1 .6 2.1.9 2.8 1.4s.6 1.4 1.7 1.4-3.9 1.8-4.8 2.2c-.9.3-1.1.5-1.7 1.2s.2 1.8 1.2 1.6c1-.1 1.6-.9 2.4 0 .9.9.9 1.6 1.7 1.5.9-.1.8-.3 1.4 0s0 1 .8 1-1.4-.7.8 0c2.1.7.8.8 2.1.7 1.4-.1 1.4-1.5 2.3-1.1 1 .4-.1.8 1.5 1.1s5.6.4 6.9.8c1.3.5.8.3 2-.3 0 0-1.3 1.4-2.5 2.5 0 0-6.7 1.2-8.2 2s-4.4.9-6.2 2.1-4.1 2.2-6.2 2.8c-2.1.7-5.1 3.2-6.7 4.5s-4.6 2.2-5.1 2.6c-.6.4 1.7.9 3.2.5 1.4-.3.4.6.9 1.2.4.7 1 .1 2.1 0 0 0 0 1.4 1.6 1.4 1.7 0 1.7-.3 3.1.7s.9.2 2.4 0 3.4-1.3 4.6 0 3.9 1.6 4.5 1c.5-.6.7-1.5 1.6-.6 1 .9 2.1.9 2.6.4.5-.4 0-1.8 1.4-.4s-1 1.5-2.3 1.6c-1.4.1-2.5.3-3.4 1.1-1 .8-2.6 3.4-4.5 3.4-1.8 0-3.3 1.1-4.4 2-1 .8-2.1 1.6-3.1 1.9h-.3c-1 .1-1.3.4-2 1-.6.5-1.6 1.1-2.8 1.7-1.2.7-2.1 2.2-1.2 2.6.9.5 1.4.5 2.6 1.2 1.2.8 1.1 1.4 1.8.8.8-.7.9-2.1 1.7-1.5.9.5-1.5 1.6-.2 1.8s1.9.1 2.7.2c0 0-.6 0 .2 1s.3-.4 1.5 0 .2 1 1.1 1.1 2-.9 2.3 0-1.7 3.4-.3 3.1 1.3-3.1 2.2-2.4-.7 1.8.9 1.5c1.5-.2 2.6-2.6 3.7-1.2s1.3.7 1.4 2.1c0 1.4-1.4 2.1-3.2 3.1-1.9 1.1-.1 1.3-3.2 2.1s-3.8.2-4.4.8c-.5.6-1.8 2.5-3.8 3.1-2 .5-3.1 1.2-3.2 2.1s1-.5 2.5 0c1.5.6 3.2 2.2 4.3 1.8 1.2-.4 2.3-.5 2.3.1 0 0-1 .3-.7 1 .3.8 1.4-.8 1.7 0s-.8 1.3-.1 1.5 1.3 1.1 2.6.5c1.3-.5 1.9-3 2.5-2.3.7.8-.9 2.3-1.3 3.4s-3.5 1-4.6 1.9-3.1 2.8-3.9 3.2c-.9.4-2.6-.1-3.7.5-1.1.7-6.1 1.8-6.6 2.9-.6 1.1-3.1 3.8-4.4 4.3s-2.9 1-2.9 2.2c-.5 1.2 0 1.3 1.9 1.3" fill="#f2ecd3"/></g><path d="m830.2 574.4c-1.4 0-1.3.8-2 .9-.8.2-.4.3-1.6 0-1.2-.2-.2.4-1.3.2-1.2-.2-2.4-.7-3.1.1-.3.4-.5.8-.8 1h-.7l-.2-.1c-.8-.7-1.7-.4-2 .1h-5.6c0-.2.1-.4-.1-.4s-.2.2-.2.4h-1.2c-.2-.2-.3-.4-.7-.2l-.1.2h-42.7l-.1-.2c-.4-.3-.5-.1-.7.2h-1.2c0-.2 0-.4-.2-.4s-.2.2-.1.4h-5.6c-.4-.5-1.2-.8-2-.1l-.2.1h-.8c-.2-.2-.4-.7-.8-1-.7-.7-1.9-.3-3.1-.1s-.2-.4-1.4-.2c-1.2.3-.8.2-1.6 0s-.6-.9-2-.9-1.8-.1-1.8-1 1.3-1.3 2.3-1.7 2.9-2.5 3.4-3.3c.4-.8 4.2-1.7 5.1-2.2.8-.5 2.2-.1 2.9-.4s2.2-1.8 3-2.5c.9-.7 3.2-.6 3.5-1.4s1.5-2 1-2.6-.9 1.3-1.9 1.8c-1 .4-1.5-.2-2-.4s.3-.6.1-1.2-1.1.6-1.3 0c-.3-.6.5-.8.5-.8 0-.4-.8-.4-1.8-.1-.9.3-2.2-.9-3.4-1.4-1.2-.4-2 .7-1.9 0s.9-1.2 2.4-1.6 2.5-1.9 2.9-2.4c.4-.4 1 0 3.4-.6 2.3-.6 1-.8 2.4-1.6s2.5-1.3 2.5-2.4-.2-.5-1.1-1.6c-.8-1.1-1.7.8-2.9.9-1.2.2 0-.7-.7-1.2s-.6 1.6-1.7 1.9.5-1.7.3-2.4c-.3-.7-1.1.1-1.8 0s.1-.5-.9-.8c-.9-.3-.6.7-1.2 0-.6-.8-.2-.8-.2-.8-.7-.1-1.1 0-2.1-.1s.9-1 .2-1.4-.8.7-1.3 1.2c-.6.5-.5 0-1.4-.6s-1.4-.6-2-.9c-.7-.3 0-1.5.9-2s1.7-.9 2.2-1.3.8-.7 1.5-.8h.3c.7-.2 1.6-.9 2.4-1.5.8-.7 1.9-1.5 3.4-1.5 1.4 0 2.7-2 3.5-2.6s1.6-.8 2.7-.8c1.1-.1 2.9-.2 1.8-1.3s-.7 0-1.1.3-1.3.3-2-.3c-.8-.7-.8 0-1.3.5-.4.5-2.5.2-3.4-.7-.9-1-2.4-.2-3.5 0-1.2.2-.8.7-1.9 0-1.1-.8-1.1-.5-2.4-.5s-1.3-1.1-1.3-1.1c-.9.1-1.3.5-1.6 0s.4-1.2-.7-.9-2.9-.1-2.4-.4c.4-.3 2.7-1 4-2s3.6-2.9 5.2-3.5c1.6-.5 3.4-1.3 4.8-2.2s3.6-1 4.8-1.6 6.4-1.5 6.4-1.5c.9-.8 1.9-1.9 1.9-1.9-.9.5-.6.6-1.5.2-1-.3-4.1-.4-5.3-.6s-.4-.5-1.1-.9c-.8-.3-.8.8-1.8.9-1.1.1 0 0-1.6-.5-1.7-.5 0 0-.6 0s-.2-.5-.6-.8c-.5-.2-.4-.1-1.1 0s-.7-.5-1.3-1.2c-.7-.7-1.1-.1-1.9 0s-1.4-.8-.9-1.3c.4-.5.6-.7 1.3-.9.7-.3 4.6-1.7 3.7-1.7-.8 0-.7-.7-1.3-1.1-.5-.4-1.4-.6-2.2-1.1s.2-1.5.9-1.9 1.5-.9 1.7-1.6.8-1.8 2.3-2.4.8-.6 1.7-1.2c1-.6 1.6.1 1.9-.9.4-1 1.2 0 2.6 0s-.2-.8.2-1.5c.3-.8 1.3 0 2.8 0 1.4 0 1.5-.2 3.1-1.3s1.6-1 2.3-1.7-.4-2.3-2-2.1 1-1.4.1-2c-.9-.7-1.1.1-2.2.2s-.4-.4-1.2-.6-.6.3-.9.3c-.3-.1-.1-1-.6-1.3s-.3.5-.9 1.2c-.7.7-.8.2-2.2.3s0 0-1.4.3c-1.3.3-1.7-.3-1.7-1 0-.8.9-1.2 1.7-2.2s2.3-2.1 3.4-2.4c1.1-.2 1-.9 1.7-1.5s1.3-.4 2.1-.5 1.6-.5 2.2-1.3 1.5-.8 2.5-.8 2 .3 2.4-.8c.3-1.1-1.7-.9-1.8-1.8-.1-.8-1.1 0-1.9 0s-.6-1.1-1.7-1.4c-1.1-.4-1.3.4-1.6-.5s3.1-1.9 4.9-3.1c1.7-1.3 1.6-2.6 1.6-2.6-.9-.2 0-1.3-.7-1.8s-1 .8-1.3-.3 3.1-3 3.5-3.3.6-1.5.1-1.5-.2-1.2-.8-1.9c-.6-.8-.8.6-1.3 0-.4-.6 1.3-2.4 1.9-3 .6-.7 1.9-2.3 2.2-2.6.2-.3-.9.3-1.8 0-.8-.3-.2-1.3-.8-1.6s-.7.4-.7-.5 1.8-1.2 2-1.4c.3-.2 0-1 0-1.8s1-.3 1.8-.6c.8-.2.3-.2.4-1 .1-.9-.6-.3-1.7-.5s-.2-.7.7-1.7c.8-1 .7-.9.7-.9.8-2.7 2-3.4 2.4-3.5h.1.1c.4.1 1.6.8 2.4 3.5 0 0-.2-.1.7.9.8 1 1.8 1.5.7 1.7s-1.8-.3-1.7.5-.3.8.4 1c.8.3 1.8-.2 1.8.6s-.3 1.6 0 1.8 2 .4 2 1.4-.1.2-.7.5.1 1.3-.8 1.6c-.8.3-2-.3-1.8 0 .3.3 1.6 1.9 2.2 2.6s2.4 2.5 1.9 3c-.4.6-.7-.8-1.3 0s-.3 1.9-.8 1.9-.3 1.3.1 1.5 3.8 2.2 3.5 3.3-.6-.2-1.3.3.2 1.5-.7 1.8c0 0-.1 1.3 1.6 2.6s5.2 2.2 4.9 3.1-.5.2-1.6.5-.9 1.4-1.7 1.4-1.8-.8-1.9 0-2.1.7-1.8 1.8 1.3.8 2.4.8c1 0 1.9.1 2.5.8.6.8 1.4 1.2 2.2 1.3s1.4-.1 2.1.5.6 1.3 1.7 1.5 2.6 1.3 3.4 2.4c.8 1 1.7 1.4 1.7 2.2 0 .7-.3 1.3-1.7 1s0-.3-1.4-.3c-1.4-.1-1.5.3-2.2-.3-.7-.7-.4-1.4-.9-1.2-.5.3-.3 1.2-.6 1.3s-.2-.4-.9-.3c-.8.2-.1.7-1.2.6s-1.3-.8-2.2-.2c-.9.7 1.7 2.2.1 2s-2.7 1.4-2 2.1 2.5.6 4.4 1.7-.4 1.3 1 1.3 2.4-.8 2.8 0c.3.8-1.3 1.5.2 1.5 1.4 0 2.3-1 2.6 0 .4 1 1 .3 2 .9s.2.6 1.7 1.2 2.1 1.7 2.3 2.4 1.1 1.2 1.7 1.6c.7.4 1.7 1.4.9 1.9s-1.7.7-2.2 1.1-.5 1.1-1.3 1.1-2 1.4-1.5 1.7c.6.2.7.4 1.1.9s-.1 1.4-.7 1.3-1-.7-1.5 0c-.6.7-.6 1.2-1.1 1.2-.6-.1-.5-.2-.9 0s0 .8-.5.8.8-.5-.5 0c-1.4.5-.5.6-1.4.5s-.9-1.2-1.5-.9.1.7-.9.9-.9.3-1.9.6c-1 .4-.6.3-1.5-.2 0 0 1 1.1 1.9 1.9 0 0 1.7.9 2.6 1.5 1 .6 2.8.7 3.9 1.6 1.2.9 2.6 1.7 4 2.2 1.3.5 9.4 2.5 10.7 3.5s3.5 1.7 4 2c.4.3-1.3.7-2.5.4-1.1-.2-.3.4-.7.9-.3.5-.8.1-1.6 0 0 0 0 1.1-1.3 1.1s-1.3-.3-2.4.5c-1.1.7-.7.2-1.9 0s-2.6-1-3.6 0c-.9 1-3 1.2-3.5.7-.4-.5-.5-1.2-1.3-.5s-1.6.7-2 .3c-.4-.3 0-1.4-1.1-.3s.7 1.2 1.8 1.3 1.9.2 2.7.8 2 2.6 3.5 2.6c1.4 0 2.5.8 3.4 1.5.8.6 1.7 1.3 2.4 1.5h.3c.8.1 1 .3 1.5.8.5.4 1.3.8 2.2 1.3s1.6 1.7.9 2-1.1.3-2 .9-.8 1.1-1.4.6-.7-1.6-1.3-1.2c-.7.4 1.2 1.3.2 1.4s-1.4 0-2.1.1c0 0 .4 0-.2.8-.6.7-.2-.3-1.2 0-.9.3-.2.7-.8.8-.7.1-1.5-.7-1.8 0-.2.7 1.4 2.6.3 2.4-1.1-.3-1-2.4-1.7-1.9s.5 1.4-.7 1.2-2-2-2.9-.9c-.8 1.1-1 .5-1.1 1.6 0 1.1 1.1 1.6 2.5 2.4s.1 1 2.5 1.6 3 .2 3.4.6 1.4 2 2.9 2.4 2.4.9 2.4 1.6c.1.7-.8-.4-1.9 0-1.2.4-2.4 1.7-3.4 1.4-.9-.3-1.8-.4-1.8.1 0 0 .8.2.5.8-.2.6-1.1-.6-1.3 0-.3.6.6 1 .1 1.2s-1 .8-2 .4-1.4-2.3-1.9-1.8c-.5.6.7 1.8 1 2.6s2.7.7 3.5 1.4 2.4 2.2 3 2.5c.7.3 2-.1 2.9.4.8.5 4.7 1.4 5.1 2.2.4.9 2.4 2.9 3.4 3.3s2.3.8 2.3 1.7c-.1.9-.5 1-2 1" fill="#f2ecd3"/><path d="m769.1 575c-1.1 0-1 .6-1.5.7-.6.1-.3.2-1.2 0s-.1.3-1 .1-1.8-.5-2.3.1c-.3.3-.4.6-.6.8h-.6-.1c-.6-.5-1.2-.3-1.5 0h-4.2l-.1-.3-.2.3h-.9c-.1-.2-.3-.3-.5-.1l-.1.1h-31.9l-.1-.1c-.3-.2-.4-.1-.5.1h-.8l-.2-.3-.1.3h-4.2c-.3-.4-.9-.6-1.5 0h-.1-.6c-.2-.2-.3-.5-.6-.8-.5-.6-1.5-.2-2.3-.1-.9.2-.1-.3-1-.1s-.6.1-1.2 0-.4-.7-1.5-.7-1.4-.1-1.4-.8.9-.9 1.7-1.3c.8-.3 2.2-1.8 2.5-2.5.3-.6 3.2-1.3 3.8-1.7s1.6-.1 2.1-.3c.5-.3 1.6-1.4 2.3-1.9.6-.5 2.4-.4 2.6-1.1.2-.6 1.1-1.5.8-2-.4-.4-.7 1-1.5 1.3s-1.1-.2-1.5-.3.3-.4.1-.9c-.2-.4-.8.4-1 0s.4-.6.4-.6c0-.3-.6-.3-1.3-.1-.7.3-1.7-.7-2.5-1-.9-.3-1.5.5-1.5 0 .1-.5.7-.9 1.8-1.2s1.9-1.4 2.2-1.8c.3-.3.8 0 2.5-.4 1.8-.4.8-.6 1.8-1.2 1.1-.6 1.9-1 1.9-1.8s-.2-.4-.8-1.2-1.3.6-2.1.7c-.9.1 0-.5-.5-.9s-.4 1.2-1.3 1.4c-.8.2.4-1.3.2-1.8s-.8.1-1.3 0 0-.4-.6-.6c-.7-.3-.4.6-.9 0-.4-.6-.1-.6-.1-.6-.5-.1-.8 0-1.6-.1s.6-.7.1-1-.6.5-1 .9-.4 0-1.1-.4-1-.4-1.5-.7c-.5-.2 0-1.1.7-1.5s1.3-.7 1.6-1c.4-.3.6-.5 1.1-.6h.2c.5-.2 1.2-.7 1.8-1.1.6-.5 1.5-1.1 2.5-1.1 1.1 0 2-1.5 2.6-2 .6-.4 1.2-.6 2-.6.8-.1 2.2-.1 1.3-.9-.8-.8-.5 0-.8.3-.3.2-.9.2-1.5-.3s-.6 0-1 .4c-.3.4-1.9.2-2.6-.6s-1.8-.1-2.6 0c-.9.1-.6.6-1.4 0s-.8-.4-1.8-.4c-.9 0-.9-.8-.9-.8-.6.1-1 .4-1.2 0-.3-.4.3-.9-.5-.7s-2.1-.1-1.8-.3c.3-.3 2-.8 3-1.5.9-.8 2.7-2.2 3.9-2.6s2.5-.9 3.6-1.6 2.7-.8 3.6-1.2 4.8-1.2 4.8-1.2c.7-.6 1.4-1.4 1.4-1.4-.7.4-.4.4-1.2.2-.7-.2-3.1-.3-4-.5s-.3-.4-.8-.7c-.6-.2-.6.6-1.3.6-.8.1 0 0-1.2-.4s0 0-.5 0c-.4 0-.1-.4-.4-.6s-.3-.1-.8 0-.5-.4-1-.9-.8-.1-1.4 0-1-.6-.7-1 .5-.5 1-.7 3.4-1.3 2.8-1.3-.6-.5-1-.8-1.1-.4-1.6-.8c-.6-.4.2-1.1.7-1.4s1.1-.7 1.3-1.2.6-1.3 1.7-1.8c1.1-.4.6-.4 1.3-.9.7-.4 1.2.1 1.5-.7.3-.7.9 0 2 0s-.1-.6.1-1.1c.2-.6 1 0 2.1 0s1.1-.1 2.3-1c1.2-.8 1.2-.8 1.7-1.2.5-.5-.3-1.7-1.5-1.6s.7-1 0-1.5-.9.1-1.7.1c-.8.1-.3-.3-.9-.4s-.4.2-.7.2c-.2-.1-.1-.8-.4-.9-.4-.2-.2.4-.7.9s-.6.2-1.6.2c-1 .1 0 0-1 .3-1 .2-1.2-.2-1.2-.8s.7-.9 1.2-1.7c.6-.8 1.7-1.6 2.5-1.8s.8-.7 1.3-1.1 1-.3 1.6-.4 1.2-.4 1.6-1 1.1-.6 1.8-.6c.8 0 1.5.3 1.8-.6.2-.8-1.2-.7-1.3-1.3s-.8 0-1.4 0-.4-.8-1.3-1.1c-.8-.3-1 .3-1.2-.4s2.3-1.4 3.6-2.3 1.2-2 1.2-2c-.7-.2 0-.9-.5-1.3s-.8.6-1-.2 2.3-2.3 2.6-2.5.4-1.1.1-1.1c-.4 0-.1-.9-.6-1.4-.4-.6-.6.4-.9 0s1-1.8 1.4-2.3 1.5-1.8 1.6-1.9c.2-.2-.7.2-1.3 0-.6-.3-.1-1-.6-1.2-.4-.2-.5.3-.5-.4s1.3-.9 1.5-1 0-.8 0-1.3c0-.6.8-.3 1.3-.4.6-.2.2-.1.3-.8.1-.6-.4-.3-1.3-.4-.8-.1-.1-.5.5-1.3s.5-.7.5-.7c.6-2 1.5-2.5 1.8-2.6h.1c.3.1 1.2.6 1.8 2.6 0 0-.1-.1.5.7s1.3 1.1.5 1.3c-.8.1-1.3-.3-1.3.4.1.6-.2.6.3.8.6.2 1.3-.1 1.3.4 0 .6-.2 1.2 0 1.3s1.5.3 1.5 1-.1.1-.5.4c-.4.2.1.9-.6 1.2-.6.2-1.5-.2-1.3 0s1.2 1.4 1.6 1.9 1.8 1.8 1.4 2.3c-.3.4-.5-.6-1 0-.4.6-.2 1.4-.6 1.4s-.2.9.1 1.1 2.8 1.6 2.6 2.5c-.2.8-.4-.1-1 .2-.5.4.2 1.1-.5 1.3 0 0-.1 1 1.2 2 1.3.9 3.9 1.6 3.6 2.3-.2.7-.4.1-1.2.4-.8.2-.7 1.1-1.3 1.1s-1.4-.6-1.4 0c-.1.6-1.6.5-1.3 1.3.2.8 1 .6 1.8.6s1.4.1 1.8.6c.4.6 1.1.9 1.6 1 .6.1 1.1-.1 1.6.4.5.4.4.9 1.3 1.1.8.2 2 1 2.5 1.8.6.8 1.3 1.1 1.3 1.7 0 .5-.3 1-1.3.8-1-.3 0-.2-1-.3s-1.1.3-1.6-.2-.3-1.1-.7-.9-.2.9-.4.9c-.3 0-.1-.3-.7-.2s-.1.5-.9.4-1-.6-1.7-.1 1.2 1.7.1 1.5c-1.2-.1-2 1.1-1.5 1.6s1.9.4 3.3 1.2-.3 1 .8 1 1.8-.6 2.1 0c.2.6-.9 1.1.1 1.1 1.1 0 1.7-.7 2 0 .3.8.7.3 1.5.7.7.5.2.5 1.3.9s1.6 1.3 1.7 1.8c.2.5.8.9 1.3 1.2s1.2 1.1.7 1.4c-.6.4-1.2.5-1.6.8s-.3.8-1 .8c-.6 0-1.5 1.1-1.1 1.3s.5.3.8.7-.1 1-.6 1c-.5-.1-.7-.5-1.2 0-.4.5-.4.9-.8.9-.4-.1-.4-.2-.6 0-.3.2 0 .6-.4.6s.6-.4-.4 0-.4.4-1 .4c-.7-.1-.7-.9-1.1-.6-.5.3 0 .5-.7.7s-.7.2-1.4.5-.5.2-1.2-.2c0 0 .8.8 1.4 1.4 0 0 1.2.7 2 1.2.7.4 2.1.5 2.9 1.2.9.7 2 1.3 3 1.6 1 .4 7 1.8 8 2.6.9.8 2.6 1.3 3 1.5.3.2-1 .5-1.8.3s-.2.3-.5.7c-.2.4-.6.1-1.2 0 0 0 0 .8-.9.8s-.9-.2-1.8.4c-.8.6-.5.1-1.4 0s-1.9-.8-2.6 0c-.7.7-2.3.9-2.6.6-.3-.4-.4-.9-.9-.4-.6.5-1.2.5-1.5.3-.3-.3 0-1.1-.8-.3s.5.9 1.4.9c.8.1 1.4.2 2 .6s1.5 2 2.6 2 1.9.6 2.5 1.1c.6.4 1.2 1 1.8 1.1h.2c.6.1.8.2 1.1.6.4.3 1 .6 1.6 1 .7.4 1.2 1.3.7 1.5-.5.3-.8.3-1.5.7s-.6.8-1.1.4c-.4-.4-.5-1.2-1-.9s.9.9.1 1-1.1 0-1.6.1c0 0 .3 0-.1.6s-.2-.3-.9 0c-.7.2-.1.6-.6.6-.5.1-1.1-.5-1.3 0s1 1.9.2 1.8c-.8-.2-.8-1.8-1.3-1.4s.4 1-.5.9-1.5-1.5-2.2-.7c-.6.8-.8.4-.8 1.2s.8 1.2 1.9 1.8.1.8 1.8 1.2c1.8.4 2.2.1 2.5.4s1.1 1.5 2.2 1.8 1.8.7 1.8 1.2c.1.5-.6-.3-1.4 0-.9.3-1.8 1.3-2.5 1-.7-.2-1.3-.3-1.3.1 0 0 .6.1.4.6-.2.4-.8-.4-1 0s.4.8.1.9c-.4.1-.8.6-1.5.3-.8-.3-1.1-1.8-1.5-1.3-.4.4.5 1.3.8 2 .3.6 2 .6 2.7 1.1.6.5 1.8 1.6 2.3 1.9.5.2 1.5-.1 2.1.3s3.5 1 3.8 1.7c.3.6 1.8 2.2 2.5 2.5.8.3 1.7.6 1.7 1.3.1.7-.2.8-1.3.8" fill="#f2ecd3"/><g clip-path="url(#p)"><path d="m351 502.4c2.2.8 5.8 3.5 5.8 3.5-.7 8.8 6.8 14.8 6.8 14.8v-2.5c2.7 7 16.3 11.1 16.3 8.6s2.7-7.3 2.7-7.3l1.2 2.8 1-2c0-4.3 0-8.3 0-8.3 1.5-2.8 4.1-5.5 4.1-5.5 6.6-2.5 8.8.5 8.8.5 6.6 15.1 10.4 15.6 10.4 15.6s5.8 2.3 8.5 5.5c2.7 3.3 2.9 16.3 2.4 19.4-.5 3-.7 12.6-.7 15.8 0 3.3-4.9 9-7.1 11.6s-5.6 2.5-5.6 2.5l-.3.8h14.9c1.3-3.4 4.3-8.6 4.3-8.6 1.7-2 5.8-3 5.8-3l-.5 4c1.9-2.3 6.1-10.6 6.1-10.6v3.8c3.4-3.5 12.4-15.8 12.4-15.8l1.9 2c0-5-2.2-12.1-2.2-12.1l2.7 1c-1-3-2.4-10.3-2.4-10.3l11-1 1.1 5.8 1.9-.3s1.5 4.3 2.2 6c.7 1.8 2.7 1.8 7.3 7.5 4.6 5.8 10.2 25.6 10 27.9-.1.9-.5 2.3-.9 3.5h8.5c-.3-4.3-.6-14.5 2.1-19.4 3.4-6.3 2.9-9.7 2.9-9.7 0-.6-.4-2-.4-2 .5.1 1.7 1 1.7 1l-.9-2.1 3.1 1.5c-.4-1.5-2.9-5.3-2.9-5.3l4 .8c-.4-3.4-4.8-9.8-4.8-9.8l5.1.8s0 0-2.9-1.9-8-18.3-8-18.3c3.7-3.4 11-2.7 11-2.7 34.5 7 65.1-6.1 65.1-6.1l-5.5 3.8c0 2.3 6 3.8 12-.8 12-9.1 20.6-8 20.6-8 1.4 4.3 2 7.4 6.8 15.6 1.7 3 10.3 12.4 10.3 20.3s-8 35.1-8.4 38.1c-.2 1.7-2.4 3.2-4.3 4.2h13c.2-.1.4-.1.4-.1.7-4.9 19-43 19-43 3.7-5.3 2.7-14.5 2.7-14.5 0-3.8 9.4 8 9.4 8 8.8 10.1 4.3 34.4 5.4 38.1 1.1 3.8 4.4 11.3 4.4 11.3v.1h9.6c-.3-.3-.5-.5-.5-.5-1.8-1.9-3.6-6-3.6-6 .7-3.4 5.5-5.3 5.5-5.3l-2.9-4.5c.7-2.6 0-8.7 0-8.7s-3.4-27.2-2.7-35.1c.6-7.3-1.1-11.7-1.1-11.7s-10.2-10-14.6-17.7c-3.6-6.4 3.6-7.8 7.7-24.1 4.6-18.5-1.2-35.6-5.9-44.2 4.7-.5 11-.9 12.1.7 1.7 2.5 8.8 18.1 8.8 18.1s-1.5 6.5 0 11.3l1-6s-.3 7.3 1.7 14.1c0 0-.7-4.3 2.9-8.8s0-10.1 0-10.1l3.6 5.5s-3.2-7.8-5.6-10.2-8-14.7-10.9-17-18.9-7-26.4-6.5c-5.6-1.2-11.3-1.6-11.3-1.6-2.2-2.3-14.1-5.6-27.6-6.5-13.1-.9-25.2-8.3-25.2-8.3l5.3-1.1s-14.2-.6-37.9-8.5c-19.4-6.5-28.2-3.7-31.3-3.2l6.5-1.1c-9.5-2.3-50.5 2.6-58.1 5.2-7.7 2.6-12.7 5-20.9 24.1-4.4 10.1-11.3 8.9-21.9 7s-14.4 1-14.4 1c-3.3-1.9-5.1-17.3-3.6-22.2 1.4-4.9-2.2-3.8-2.2-3.8-7.8 10.7-9 21.3-8.7 28.3-15.9 4.3-22.6 12-24.9 14.9-2.3 3 .4 6.5-.3 15.8-.6 8.1-5.3 19.2-5.3 19.2-3.2 11.6-3.9 26.9-3.2 28.9 1 2.3 4.9 2.3 7 3.1" fill="#241f1e"/></g><g clip-path="url(#q)" fill="#f2ecd3" transform="translate(5 476)"><path d="m11.1 202.3v-144c0-2 1-3 3-3h45c8.9 0 15.6 2.3 20.1 6.9 4.6 4.6 6.9 11.4 6.9 20.2v95.8c0 8.8-2.3 15.4-6.9 20.1-4.6 4.6-11.3 6.9-20.1 6.9h-45c-2 .1-3-.9-3-2.9zm25.5-21.8h17.2c5 0 7.5-2.5 7.5-7.5v-85.2c0-5.1-2.5-7.7-7.5-7.7h-17.2z" transform="translate(.210919 139.838473)"/><path d="m109.8 77.1v18.8c0 2.1-1 3.2-3 3.2h-46.3v28.9h35.3c2 0 3 1.1 3 3.2v18.6c0 2.1-1 3.2-3 3.2h-35.3v27.7h46.3c2 0 3 1 3 3v18.8c0 2-1 3-3 3h-69c-1.9 0-2.8-1-2.8-3v-125.4c0-2 .9-3 2.8-3h69c2 0 3 1 3 3z" transform="translate(71.904477 139.838473)"/><path d="m85.8 74.1h21c8.9 0 15.6 2.3 20.1 6.9 4.6 4.6 6.9 11.3 6.9 20.1v12.4c0 2-1 3-3 3h-18.9c-2 0-3-1-3-3v-7.9c0-5-2.5-7.5-7.5-7.5h-10.3c-5 0-7.5 2.5-7.5 7.5v15.9l45.4 14.6c3.2 1.1 4.9 3.4 4.9 6.9v35.2c0 8.8-2.3 15.4-6.9 20.1-4.6 4.6-11.3 6.9-20.1 6.9h-21c-8.7 0-15.4-2.3-20-6.9s-6.9-11.3-6.9-20.1v-12.2c0-2 1-3 3-3h18.9c2 0 3 1 3 3v7.9c0 5 2.5 7.5 7.5 7.5h10.1c5 0 7.5-2.5 7.5-7.5v-18.9l-45-14.6c-3.4-1.1-5.1-3.4-5.1-6.9v-32.4c0-8.9 2.3-15.6 6.9-20.1 4.6-4.6 11.3-6.9 20-6.9z" transform="translate(143.457461 139.838473)"/><path d="m157.6 77.1v18.8c0 2.1-1 3.2-3 3.2h-46.3v28.9h35.2c2 0 3 1.1 3 3.2v18.6c0 2.1-1 3.2-3 3.2h-35.2v27.7h46.3c2 0 3 1 3 3v18.8c0 2-1 3-3 3h-69c-1.9 0-2.8-1-2.8-3v-125.4c0-2 .9-3 2.8-3h69c2 0 3 1 3 3z" transform="translate(215.151019 139.838473)"/><path d="m181.8 101.1v20.2c0 2-1 3-3 3h-17.6c-2 0-3-1-3-3v-15.4c0-5-2.5-7.5-7.5-7.5h-12c-5 0-7.5 2.5-7.5 7.5v68c0 5 2.5 7.5 7.5 7.5h12c5 0 7.5-2.5 7.5-7.5v-15.9c0-2 1-3 3-3h17.6c2 0 3 1 3 3v20.2c0 8.8-2.3 15.4-6.9 20.1s-11.3 6.9-20.1 6.9h-21c-8.7 0-15.5-2.3-20.1-6.9-4.7-4.6-7-11.3-7-20.1v-77.2c0-8.9 2.3-15.6 7-20.1 4.7-4.6 11.4-6.9 20.1-6.9h21c8.8 0 15.4 2.3 20.1 6.9 4.6 4.6 6.9 11.3 6.9 20.2z" transform="translate(286.704003 139.838473)"/><path d="m205.5 101.1v37.7c0 10.9-3.5 18.5-10.5 22.9l9.8 40.3c.6 2.2-.2 3.4-2.6 3.4h-18.4c-1.8 0-2.8-.9-3.2-2.6l-9-36.9h-16.7v36.5c0 2-1 3-3 3h-18.4c-2 0-3-1-3-3v-125.3c0-2 1-3 3-3h45c8.9 0 15.6 2.3 20.1 6.9 4.6 4.5 6.9 11.2 6.9 20.1zm-50.6 40.5h18.8c5 0 7.5-2.5 7.5-7.5v-28.3c0-5-2.5-7.5-7.5-7.5h-18.8z" transform="translate(358.53815 139.838473)"/><path d="m242.9 205.3h-18.2c-1.6 0-2.6-.9-3-2.6l-6-23.6h-35.2l-5.8 23.6c-.4 1.8-1.4 2.6-3 2.6h-18.4c-2.2 0-3.1-1.1-2.4-3.2l31.1-125.4c.4-1.8 1.4-2.6 3.2-2.6h26.1c1.8 0 2.8.9 3.2 2.6l31.1 125.4c.6 2.1-.3 3.2-2.7 3.2zm-33-48-11.8-51-11.8 51z" transform="translate(430.231693 139.838473)"/><path d="m249.7 74.1h-69c-2 0-3 1-3 3v18.8c0 2 1 3 3 3h21.8v103.5c0 2 1 3 3 3h19.5c2 0 3-1 3-3v-103.6h21.8c2 0 3-1 3-3v-18.7c-.1-2-1.1-3-3.1-3z" transform="translate(511.343811 139.838473)"/><path d="m206.5 205.3h19.5c2 0 3-1 3-3v-125.2c0-2-1-3-3-3h-19.5c-2 0-3 1-3 3v125.2c0 2 1 3 3 3z" transform="translate(577.414378 139.838473)"/><path d="m274.5 74.1h17.6c2 0 3 1 3 3v125.2c0 2-1 3-3 3h-14.8c-1.5 0-2.6-.8-3.4-2.4l-35.2-71.6v71c0 2-1 3-3 3h-17.7c-2 0-3-1-3-3v-125.2c0-2 1-3 3-3h14.8c1.5 0 2.6.8 3.4 2.4l35.2 71.6v-71c.1-2 1.1-3 3.1-3z" transform="translate(611.995981 139.838473)"/><path d="m240.2 178.3v-77.2c0-8.9 2.3-15.6 6.9-20.1 4.6-4.6 11.3-6.9 20-6.9h21c8.8 0 15.4 2.3 20.1 6.9 4.6 4.6 6.9 11.3 6.9 20.1v13.9c0 2-1 3-3 3h-17.6c-2 0-3-1-3-3v-9.2c0-5-2.5-7.5-7.5-7.5h-12c-5 0-7.5 2.5-7.5 7.5v67.9c0 5 2.5 7.5 7.5 7.5h12c5 0 7.5-2.5 7.5-7.5v-16.3h-9.8c-2 0-3-1-3-3v-18.8c0-2 1-3 3-3h30.4c2 0 3 1 3 3v42.7c0 8.8-2.3 15.4-6.9 20.1s-11.3 6.9-20.1 6.9h-21c-8.7 0-15.4-2.3-20-6.9s-6.9-11.4-6.9-20.1z" transform="translate(687.485062 139.838473)"/></g><path d="m47.5 622.9 929 4.2" fill="none" stroke="#d78741" stroke-linecap="round" stroke-width="8"/><path d="m47.5 876 929 4.2" fill="none" stroke="#d78741" stroke-linecap="round" stroke-width="8"/><g clip-path="url(#r)" transform="translate(290 446)"><path d="m109.3 150.3h225.4c6.1 0 11.1 5 11.1 11.1v51.9c0 6.1-5 11.1-11.1 11.1h-225.4c-6.1 0-11.1-5-11.1-11.1v-51.9c0-6.1 4.9-11.1 11.1-11.1z" fill="#252026"/><g fill="#d78741"><path d="m109.2 135.2h10.2v6.8h-10.2v13.8h12.8v6.8h-20.2v-47.3h20.2v6.8h-12.8z" transform="translate(7.252811 41.480957)"/><path d="m107.9 126.6c0-3.8.9-6.8 2.7-8.8 1.8-2.1 4.6-3.1 8.2-3.1 3.7 0 6.4 1 8.2 3.1 1.8 2 2.7 5 2.7 8.8v1.8h-7v-2.3c0-1.7-.3-2.9-1-3.6s-1.6-1.1-2.7-1.1c-1.2 0-2.1.4-2.7 1.1-.7.7-1 1.9-1 3.6 0 1.6.4 3 1.1 4.3.7 1.2 1.6 2.4 2.7 3.5s2.2 2.2 3.5 3.3c1.2 1.1 2.4 2.3 3.5 3.6s2 2.8 2.7 4.5 1.1 3.6 1.1 5.9c0 3.8-.9 6.8-2.8 8.8s-4.6 3.1-8.2 3.1c-3.7 0-6.4-1-8.3-3.1s-2.8-5-2.8-8.8v-3.2h7v3.7c0 1.7.3 2.9 1 3.6s1.6 1 2.8 1 2.1-.3 2.8-1 1.1-1.9 1.1-3.6c0-1.6-.4-3-1.1-4.3-.7-1.2-1.6-2.4-2.7-3.5s-2.2-2.2-3.5-3.3c-1.2-1.1-2.4-2.3-3.5-3.6s-2-2.8-2.7-4.5c-.8-1.7-1.1-3.7-1.1-5.9z" transform="translate(28.412503 41.480957)"/><path d="m114 115.2h23v6.8h-7.8v40.5h-7.4v-40.5h-7.8z" transform="translate(49.875914 41.480957)"/><path d="m130.1 155.3v7.1h-7.1v-7.1z" transform="translate(70.630655 41.480957)"/><path d="m134.9 121.2c1.4 0 2.6-.2 3.5-.5s1.7-.8 2.2-1.3c.6-.5 1.1-1.2 1.4-1.9.4-.7.7-1.5.9-2.3h5v47.3h-7.4v-36h-5.7v-5.3z" transform="translate(92.955269 41.480957)"/><path d="m136.1 147.2 13.5-31.9h8.1v31.9h3.5v6.8h-3.5v8.6h-7.4v-8.6h-14.2zm14.2 0v-17.5l-7.4 17.5z" transform="translate(115.532316 41.480957)"/><path d="m167.2 150.7c0 4-.9 7.1-2.8 9.2-1.8 2.1-4.7 3.1-8.6 3.1-3.7 0-6.4-1-8.3-3.1s-2.8-5-2.8-8.8v-1.2h7v1.7c0 1.7.3 2.9 1 3.6s1.6 1 2.8 1c1.3 0 2.3-.4 3-1.2s1.1-2.4 1.1-4.6v-8.6c-1.3 2.8-3.6 4.2-6.9 4.2-2.7 0-4.8-.9-6.2-2.8-1.4-1.8-2.1-4.5-2.1-8v-8.6c0-3.8 1-6.8 2.9-8.8 1.9-2.1 4.7-3.1 8.4-3.1 3.6 0 6.4 1 8.4 3.1 1.9 2 2.9 5 2.9 8.8v24.1zm-11.3-11.4c1.2 0 2.1-.3 2.8-1s1.1-1.9 1.1-3.6v-8.5c0-1.7-.4-2.9-1.1-3.6s-1.6-1-2.8-1-2.1.3-2.8 1-1 1.9-1 3.6v8.5c0 1.7.3 2.9 1 3.6.7.6 1.7 1 2.8 1z" transform="translate(138.109363 41.480957)"/><path d="m167.6 126.8c0-2.1-.4-3.5-1.1-4.3s-1.6-1.1-2.8-1.1-2.1.4-2.8 1.1-1 1.9-1 3.6v5.1h-7v-4.6c0-3.8.9-6.8 2.8-8.8 1.9-2.1 4.6-3.1 8.3-3.1 3.6 0 6.4 1 8.2 3.1 1.9 2 2.8 5 2.8 8.8 0 2.6-.4 4.9-1.2 7s-1.8 4-2.9 5.7c-1.2 1.7-2.4 3.3-3.8 4.7-1.3 1.4-2.6 2.8-3.6 4.1-1.1 1.3-1.9 2.6-2.6 3.8-.6 1.3-.8 2.6-.6 4h14v6.8h-21.5v-5.8c0-2.3.4-4.3 1.1-6.1s1.6-3.4 2.7-4.8c1.1-1.5 2.3-2.8 3.5-4.1 1.3-1.3 2.4-2.7 3.5-4.1s2-3 2.8-4.7c.9-1.9 1.2-3.9 1.2-6.3z" transform="translate(160.68641 41.480957)"/></g></g><g clip-path="url(#s)" transform="translate(191 635)"><g clip-path="url(#t)"><path d="m75.7 213.1h490.6c2.9 0 5.8 1.2 7.9 3.3s3.3 4.9 3.3 7.9v51.9c0 3-1.2 5.8-3.3 7.9s-4.9 3.3-7.9 3.3h-490.6c-6.1 0-11.1-5-11.1-11.1v-51.9c-0-6.4 5-11.3 11.1-11.3z" fill="#252026"/></g><g fill="#d78741"><path d="m69.3 178.2h23v6.8h-7.8v40.5h-7.4v-40.5h-7.8z" transform="translate(15.041218 41.268135)"/><path d="m91.2 225.4h-7.4v-47.3h7.4v20.2h8.4v-20.2h7.6v47.3h-7.6v-20.3h-8.4z" transform="translate(52.251738 41.268135)"/><path d="m104.7 198.1h10.2v6.8h-10.2v13.8h12.8v6.8h-20.2v-47.3h20.2v6.8h-12.8z" transform="translate(92.853769 41.268135)"/><path d="m117.9 189.5c0-3.8.9-6.8 2.7-8.8 1.8-2.1 4.6-3.1 8.2-3.1 3.7 0 6.4 1 8.2 3.1 1.8 2 2.7 5 2.7 8.8v1.8h-7v-2.3c0-1.7-.3-2.9-1-3.6s-1.6-1.1-2.7-1.1c-1.2 0-2.1.4-2.7 1.1-.7.7-1 1.9-1 3.6 0 1.6.4 3 1.1 4.3.7 1.2 1.6 2.4 2.7 3.5s2.2 2.2 3.5 3.3c1.2 1.1 2.4 2.3 3.5 3.6s2 2.8 2.7 4.5 1.1 3.6 1.1 5.9c0 3.8-.9 6.8-2.8 8.8s-4.6 3.1-8.2 3.1c-3.7 0-6.4-1-8.3-3.1s-2.8-5-2.8-8.8v-3.2h7v3.7c0 1.7.3 2.9 1 3.6s1.6 1 2.8 1 2.1-.3 2.8-1 1.1-1.9 1.1-3.6c0-1.6-.4-3-1.1-4.3-.7-1.2-1.6-2.4-2.7-3.5s-2.2-2.2-3.5-3.3c-1.2-1.1-2.4-2.3-3.5-3.6s-2-2.8-2.7-4.5c-.8-1.7-1.1-3.6-1.1-5.9z" transform="translate(157.302722 41.268135)"/><path d="m155.5 225.4h-7.5l-1.3-8.6h-9.1l-1.3 8.6h-6.8l7.6-47.3h10.9zm-17-15h7.1l-3.6-23.9z" transform="translate(195.221911 41.268135)"/><path d="m166.2 207.8v6.3c0 3.8-.9 6.8-2.8 8.8s-4.6 3.1-8.2 3.1c-3.7 0-6.4-1-8.3-3.1s-2.8-5-2.8-8.8v-24.6c0-3.8.9-6.8 2.8-8.8 1.9-2.1 4.6-3.1 8.3-3.1 3.6 0 6.4 1 8.2 3.1 1.9 2 2.8 5 2.8 8.8v4.6h-7v-5.1c0-1.7-.3-2.9-1-3.6s-1.6-1.1-2.8-1.1-2.1.4-2.8 1.1-1 1.9-1 3.6v25.5c0 1.7.3 2.9 1 3.6s1.6 1 2.8 1 2.1-.3 2.8-1 1-1.9 1-3.6v-6.8h7z" transform="translate(234.811555 41.268135)"/><path d="m173 225.4c-.1-.3-.2-.6-.3-.9s-.2-.6-.2-1c-.1-.4-.1-.9-.1-1.5s0-1.4 0-2.4v-7.4c0-2.2-.4-3.8-1.1-4.6-.8-.9-2-1.4-3.7-1.4h-2.6v19.2h-7.4v-47.3h11.2c3.9 0 6.7.9 8.4 2.7s2.6 4.5 2.6 8.2v3.7c0 4.9-1.6 8.1-4.9 9.6 1.9.8 3.2 2 3.9 3.8.7 1.7 1.1 3.8 1.1 6.3v7.3c0 1.2 0 2.2.1 3.1s.3 1.8.7 2.7h-7.7zm-8.1-40.5v14.5h2.9c1.4 0 2.5-.4 3.3-1.1s1.2-2 1.2-3.9v-4.7c0-1.7-.3-2.9-.9-3.7s-1.6-1.1-2.9-1.1z" transform="translate(273.338195 41.268135)"/><path d="m178 198.1h10.2v6.8h-10.2v13.8h12.8v6.8h-20.2v-47.3h20.2v6.8h-12.8z" transform="translate(312.674738 41.268135)"/><path d="m183.1 178.2h11.7c3.7 0 6.5 1 8.3 3s2.8 4.9 2.8 8.7v23.9c0 3.8-.9 6.7-2.8 8.7-1.8 2-4.6 3-8.3 3h-11.7zm7.5 6.7v33.8h4.2c1.2 0 2.1-.3 2.8-1s1-1.9 1-3.6v-24.6c0-1.7-.3-2.9-1-3.6s-1.6-1-2.8-1z" transform="translate(350.290208 41.268135)"/></g></g></svg>