<svg xmlns="http://www.w3.org/2000/svg" xmlns:xlink="http://www.w3.org/1999/xlink" width="500" zoomAndPan="magnify" viewBox="0 0 375 374.999991" height="500" preserveAspectRatio="xMidYMid meet" version="1.0"><defs><g/><clipPath id="0cd0eaea8a"><path d="M 58.433594 58.433594 L 316.566406 58.433594 L 316.566406 316.566406 L 58.433594 316.566406 Z M 58.433594 58.433594 " clip-rule="nonzero"/></clipPath><clipPath id="5965b011e3"><path d="M 187.5 58.433594 C 116.21875 58.433594 58.433594 116.21875 58.433594 187.5 C 58.433594 258.78125 116.21875 316.566406 187.5 316.566406 C 258.78125 316.566406 316.566406 258.78125 316.566406 187.5 C 316.566406 116.21875 258.78125 58.433594 187.5 58.433594 Z M 187.5 58.433594 " clip-rule="nonzero"/></clipPath><clipPath id="3b03fda1bf"><path d="M 0.433594 0.433594 L 258.566406 0.433594 L 258.566406 258.566406 L 0.433594 258.566406 Z M 0.433594 0.433594 " clip-rule="nonzero"/></clipPath><clipPath id="bd059c7e68"><path d="M 129.5 0.433594 C 58.21875 0.433594 0.433594 58.21875 0.433594 129.5 C 0.433594 200.78125 58.21875 258.566406 129.5 258.566406 C 200.78125 258.566406 258.566406 200.78125 258.566406 129.5 C 258.566406 58.21875 200.78125 0.433594 129.5 0.433594 Z M 129.5 0.433594 " clip-rule="nonzero"/></clipPath><clipPath id="4083914223"><rect x="0" width="259" y="0" height="259"/></clipPath><clipPath id="fee846f24e"><path d="M 0.28125 0.28125 L 372.71875 0.28125 L 372.71875 372.71875 L 0.28125 372.71875 Z M 0.28125 0.28125 " clip-rule="nonzero"/></clipPath><clipPath id="68634a39ae"><path d="M 186.5 372.71875 C 136.78125 372.71875 89.96875 353.367188 54.835938 318.164062 C 19.632812 283.03125 0.28125 236.21875 0.28125 186.5 C 0.28125 136.78125 19.632812 89.96875 54.835938 54.835938 C 89.96875 19.632812 136.78125 0.28125 186.5 0.28125 C 236.21875 0.28125 283.03125 19.632812 318.164062 54.835938 C 353.367188 90.042969 372.71875 136.78125 372.71875 186.5 C 372.71875 236.21875 353.367188 283.03125 318.164062 318.164062 C 283.03125 353.367188 236.21875 372.71875 186.5 372.71875 Z M 186.5 11.445312 C 139.757812 11.445312 95.773438 29.679688 62.726562 62.726562 C 29.679688 95.773438 11.445312 139.757812 11.445312 186.5 C 11.445312 233.242188 29.679688 277.226562 62.726562 310.273438 C 95.773438 343.320312 139.757812 361.554688 186.5 361.554688 C 233.242188 361.554688 277.226562 343.320312 310.273438 310.273438 C 343.320312 277.226562 361.554688 233.242188 361.554688 186.5 C 361.554688 139.757812 343.320312 95.773438 310.273438 62.726562 C 277.226562 29.679688 233.242188 11.445312 186.5 11.445312 Z M 186.5 11.445312 " clip-rule="nonzero"/></clipPath><clipPath id="1fd3281e6e"><path d="M 0.28125 0.28125 L 372.71875 0.28125 L 372.71875 372.71875 L 0.28125 372.71875 Z M 0.28125 0.28125 " clip-rule="nonzero"/></clipPath><clipPath id="0140860cd5"><path d="M 186.5 372.71875 C 136.78125 372.71875 89.96875 353.367188 54.835938 318.164062 C 19.632812 283.03125 0.28125 236.21875 0.28125 186.5 C 0.28125 136.78125 19.632812 89.96875 54.835938 54.835938 C 89.96875 19.632812 136.78125 0.28125 186.5 0.28125 C 236.21875 0.28125 283.03125 19.632812 318.164062 54.835938 C 353.367188 90.042969 372.71875 136.78125 372.71875 186.5 C 372.71875 236.21875 353.367188 283.03125 318.164062 318.164062 C 283.03125 353.367188 236.21875 372.71875 186.5 372.71875 Z M 186.5 11.445312 C 139.757812 11.445312 95.773438 29.679688 62.726562 62.726562 C 29.679688 95.773438 11.445312 139.757812 11.445312 186.5 C 11.445312 233.242188 29.679688 277.226562 62.726562 310.273438 C 95.773438 343.320312 139.757812 361.554688 186.5 361.554688 C 233.242188 361.554688 277.226562 343.320312 310.273438 310.273438 C 343.320312 277.226562 361.554688 233.242188 361.554688 186.5 C 361.554688 139.757812 343.320312 95.773438 310.273438 62.726562 C 277.226562 29.679688 233.242188 11.445312 186.5 11.445312 Z M 186.5 11.445312 " clip-rule="nonzero"/></clipPath><clipPath id="7fee98bf2b"><rect x="0" width="373" y="0" height="373"/></clipPath><clipPath id="d5ebdfdda8"><path d="M 31.027344 193.828125 L 48.753906 193.828125 L 48.753906 211.558594 L 31.027344 211.558594 Z M 31.027344 193.828125 " clip-rule="nonzero"/></clipPath><clipPath id="a2f74718b7"><path d="M 39.890625 193.828125 C 34.996094 193.828125 31.027344 197.796875 31.027344 202.691406 C 31.027344 207.589844 34.996094 211.558594 39.890625 211.558594 C 44.785156 211.558594 48.753906 207.589844 48.753906 202.691406 C 48.753906 197.796875 44.785156 193.828125 39.890625 193.828125 Z M 39.890625 193.828125 " clip-rule="nonzero"/></clipPath><clipPath id="0fb5283dce"><path d="M 0.0273438 0.828125 L 17.753906 0.828125 L 17.753906 18.558594 L 0.0273438 18.558594 Z M 0.0273438 0.828125 " clip-rule="nonzero"/></clipPath><clipPath id="6d3857e3c5"><path d="M 8.890625 0.828125 C 3.996094 0.828125 0.0273438 4.796875 0.0273438 9.691406 C 0.0273438 14.589844 3.996094 18.558594 8.890625 18.558594 C 13.785156 18.558594 17.753906 14.589844 17.753906 9.691406 C 17.753906 4.796875 13.785156 0.828125 8.890625 0.828125 Z M 8.890625 0.828125 " clip-rule="nonzero"/></clipPath><clipPath id="039255eafc"><rect x="0" width="18" y="0" height="19"/></clipPath><clipPath id="311e2ff26c"><path d="M 324.246094 193.828125 L 341.972656 193.828125 L 341.972656 211.558594 L 324.246094 211.558594 Z M 324.246094 193.828125 " clip-rule="nonzero"/></clipPath><clipPath id="627eeae63e"><path d="M 333.109375 193.828125 C 328.214844 193.828125 324.246094 197.796875 324.246094 202.691406 C 324.246094 207.589844 328.214844 211.558594 333.109375 211.558594 C 338.003906 211.558594 341.972656 207.589844 341.972656 202.691406 C 341.972656 197.796875 338.003906 193.828125 333.109375 193.828125 Z M 333.109375 193.828125 " clip-rule="nonzero"/></clipPath><clipPath id="46fe11b303"><path d="M 0.246094 0.828125 L 17.972656 0.828125 L 17.972656 18.558594 L 0.246094 18.558594 Z M 0.246094 0.828125 " clip-rule="nonzero"/></clipPath><clipPath id="2e6db59ab1"><path d="M 9.109375 0.828125 C 4.214844 0.828125 0.246094 4.796875 0.246094 9.691406 C 0.246094 14.589844 4.214844 18.558594 9.109375 18.558594 C 14.003906 18.558594 17.972656 14.589844 17.972656 9.691406 C 17.972656 4.796875 14.003906 0.828125 9.109375 0.828125 Z M 9.109375 0.828125 " clip-rule="nonzero"/></clipPath><clipPath id="0668d5431e"><rect x="0" width="18" y="0" height="19"/></clipPath><clipPath id="29ece7c78e"><path d="M 95.949219 91.574219 L 277.703125 91.574219 L 277.703125 307.210938 L 95.949219 307.210938 Z M 95.949219 91.574219 " clip-rule="nonzero"/></clipPath><clipPath id="84b73ecbf3"><rect x="0" width="284" y="0" height="102"/></clipPath><clipPath id="e822cdf06e"><rect x="0" width="290" y="0" height="107"/></clipPath><clipPath id="4397340b1b"><rect x="0" width="373" y="0" height="373"/></clipPath></defs><g clip-path="url(#0cd0eaea8a)"><g clip-path="url(#5965b011e3)"><g transform="matrix(1, 0, 0, 1, 58, 58)"><g clip-path="url(#4083914223)"><g clip-path="url(#3b03fda1bf)"><g clip-path="url(#bd059c7e68)"><path fill="#171b39" d="M 0.433594 0.433594 L 258.566406 0.433594 L 258.566406 258.566406 L 0.433594 258.566406 Z M 0.433594 0.433594 " fill-opacity="1" fill-rule="nonzero"/></g></g></g></g></g></g><g transform="matrix(1, 0, 0, 1, 1, 1)"><g clip-path="url(#4397340b1b)"><g clip-path="url(#fee846f24e)"><g clip-path="url(#68634a39ae)"><g><g clip-path="url(#7fee98bf2b)"><g clip-path="url(#1fd3281e6e)"><g clip-path="url(#0140860cd5)"><path fill="#171b39" d="M 0.28125 0.28125 L 372.71875 0.28125 L 372.71875 372.71875 L 0.28125 372.71875 Z M 0.28125 0.28125 " fill-opacity="1" fill-rule="nonzero"/></g></g></g></g></g></g><g clip-path="url(#d5ebdfdda8)"><g clip-path="url(#a2f74718b7)"><g transform="matrix(1, 0, 0, 1, 31, 193)"><g clip-path="url(#039255eafc)"><g clip-path="url(#0fb5283dce)"><g clip-path="url(#6d3857e3c5)"><path fill="#171b39" d="M 0.0273438 0.828125 L 17.753906 0.828125 L 17.753906 18.558594 L 0.0273438 18.558594 Z M 0.0273438 0.828125 " fill-opacity="1" fill-rule="nonzero"/></g></g></g></g></g></g><g clip-path="url(#311e2ff26c)"><g clip-path="url(#627eeae63e)"><g transform="matrix(1, 0, 0, 1, 324, 193)"><g clip-path="url(#0668d5431e)"><g clip-path="url(#46fe11b303)"><g clip-path="url(#2e6db59ab1)"><path fill="#171b39" d="M 0.246094 0.828125 L 17.972656 0.828125 L 17.972656 18.558594 L 0.246094 18.558594 Z M 0.246094 0.828125 " fill-opacity="1" fill-rule="nonzero"/></g></g></g></g></g></g><g clip-path="url(#29ece7c78e)"><path fill="#f8f8f0" d="M 178.386719 101.902344 C 176.6875 99.894531 175.429688 98.054688 173.253906 96.296875 C 177.4375 96.40625 180.5625 97.746094 183.238281 99.839844 C 185.304688 101.457031 186.667969 102.570312 189.011719 99.921875 C 191.410156 97.246094 195.121094 96.6875 199.050781 96.324219 C 196.683594 98.136719 194.8125 99.976562 193.503906 102.824219 C 199.527344 99.671875 205.660156 99.363281 212.605469 100.589844 C 209.902344 101.847656 207.558594 102.597656 204.964844 104.410156 C 212.632812 102.878906 219.382812 103.855469 226.355469 107.003906 C 224.152344 107.621094 222.226562 107.453125 220.414062 108.511719 C 228.835938 109.207031 235.445312 112.609375 240.382812 119.890625 C 237.929688 119.386719 236.058594 118.550781 233.355469 118.832031 C 238.679688 120.976562 242.195312 124.351562 244.957031 128.589844 C 245.292969 129.09375 245.597656 129.625 245.875 130.179688 C 246.101562 130.628906 246.519531 131.183594 246.042969 131.632812 C 245.679688 131.992188 245.179688 131.574219 244.761719 131.519531 C 243.730469 131.378906 242.667969 131.324219 241.246094 131.183594 C 242.195312 132.46875 244.371094 133.386719 241.804688 134.726562 C 241.246094 135.003906 241.414062 135.898438 241.582031 136.457031 C 242.53125 139.410156 243.449219 142.367188 243.617188 145.519531 C 244.621094 143.09375 244.511719 140.582031 243.980469 138.15625 C 243.617188 136.457031 244.148438 135.675781 245.652344 135.3125 C 247.046875 134.949219 248.5 134.726562 249.863281 134.308594 C 256.835938 132.105469 260.433594 126.917969 262.246094 120.167969 C 264.253906 112.667969 262.722656 105.472656 260.296875 98.359375 C 259.875 97.132812 259.375 95.933594 259.066406 94.679688 C 258.929688 94.175781 258.203125 93.5625 258.984375 93.0625 C 259.542969 92.699219 260.238281 92.921875 260.742188 93.230469 C 262.527344 94.289062 264.199219 95.515625 265.59375 97.078125 C 273.457031 105.835938 277.667969 116.042969 276.945312 127.839844 C 275.914062 144.125 264.617188 156.871094 248.695312 160.382812 C 248.109375 160.523438 247.4375 160.410156 247.132812 161.222656 C 250.199219 161.667969 253.070312 160.664062 255.945312 160.132812 C 262.582031 158.90625 270.976562 163.257812 273.570312 169.503906 C 273.738281 169.921875 273.792969 170.394531 273.90625 170.84375 C 272.902344 171.289062 271.898438 170.871094 270.753906 170.953125 C 271.226562 172.152344 272.371094 173.015625 271.980469 174.328125 C 271.617188 175.582031 270.585938 176.335938 269.664062 177.117188 C 266.097656 180.269531 262.414062 183.308594 257.058594 183.53125 C 258.539062 185.289062 260.492188 184.648438 262.246094 185.066406 C 257.5625 188.996094 250.8125 190.671875 243.476562 186.597656 C 243.089844 189.804688 241.917969 192.761719 240.96875 195.773438 C 239.742188 199.625 241.414062 203.191406 242.140625 206.789062 C 243.144531 211.839844 242.808594 216.859375 242.308594 221.90625 C 242.25 222.464844 241.917969 223.019531 241.5 224.21875 C 240.074219 220.652344 238.875 217.609375 237.675781 214.597656 C 239.378906 222.101562 240.019531 229.574219 238.125 237.078125 C 237.539062 239.449219 236.449219 241.652344 234.722656 244.105469 C 234.273438 240.675781 233.886719 237.691406 233.4375 234.398438 C 231.488281 247.394531 227.972656 252.054688 222.8125 260.449219 C 221.894531 257.128906 223.871094 253.894531 222.449219 250.074219 C 221.085938 254.171875 220.078125 257.714844 218.714844 261.089844 C 217.320312 264.546875 215.507812 267.808594 212.046875 270.347656 C 211.851562 268.003906 212.160156 265.941406 211.265625 264.074219 C 209.566406 265.410156 209.121094 266.972656 209.539062 269.234375 C 210.710938 275.480469 210.652344 281.613281 206.609375 287.023438 C 206.109375 287.695312 205.71875 288.417969 204.65625 288.921875 C 205.632812 284.402344 204.519531 280.332031 202.902344 276.261719 C 202.675781 285.15625 201.867188 293.800781 194.253906 300.691406 C 195.121094 297.203125 195.648438 294.21875 194.867188 291.097656 C 193.25 297.371094 191.019531 303.257812 185.136719 307.410156 C 186.222656 301.304688 185.695312 295.78125 182.347656 290.289062 C 182.320312 294.890625 182.792969 299.296875 180.117188 303.257812 C 175.878906 295.195312 169.714844 288.027344 169.769531 278.242188 C 167.871094 282.199219 168.625 286.328125 168.542969 290.457031 C 167.511719 290.371094 166.925781 289.5625 166.3125 288.78125 C 161.710938 282.980469 160.761719 276.316406 161.878906 269.261719 C 162.238281 267.058594 161.847656 265.523438 159.980469 264.378906 C 158.726562 265.578125 159.839844 267.417969 158.53125 268.84375 C 153.34375 263.542969 151.335938 256.792969 149.269531 249.90625 C 148.40625 253.28125 148.433594 256.597656 148.824219 260 C 142.800781 252.917969 139.648438 244.691406 138.867188 235.433594 C 138.507812 238.054688 137.390625 240.480469 137.308594 243.128906 C 131.480469 233.953125 131.421875 224.136719 134.015625 213.957031 C 132.59375 217.386719 131.144531 220.816406 129.441406 224.863281 C 128.242188 218.503906 127.851562 212.785156 128.96875 207.042969 C 129.246094 205.535156 129.636719 204.058594 130.113281 202.605469 C 131.253906 199.039062 131.339844 195.523438 129.664062 192.121094 C 128.886719 190.53125 129.414062 187.992188 127.992188 187.378906 C 126.847656 186.878906 124.953125 188.355469 123.28125 188.636719 C 118.621094 189.472656 114.660156 187.714844 110.507812 185.484375 C 112.152344 184.425781 114.019531 184.980469 115.5 183.53125 C 109.027344 183.28125 104.761719 179.597656 100.773438 175.414062 C 100.355469 174.996094 99.460938 174.496094 99.824219 173.992188 C 101.246094 172.070312 100.214844 171.066406 98.738281 169.976562 C 98.039062 169.476562 98.652344 168.804688 98.933594 168.359375 C 102.167969 163.035156 108.859375 157.316406 117.785156 160.078125 C 120.238281 160.859375 122.804688 161.054688 125.398438 160.382812 C 116.140625 158.851562 108.832031 154.054688 103.117188 146.832031 C 97.316406 139.496094 95.390625 130.933594 96.089844 121.785156 C 97.257812 107.089844 107.773438 93.394531 114.800781 91.640625 C 115.332031 92.867188 114.632812 93.871094 114.214844 94.902344 C 111.484375 101.625 109.476562 108.484375 109.894531 115.820312 C 110.421875 124.9375 116 131.714844 124.003906 135.089844 C 124.617188 135.339844 124.980469 135.3125 125.398438 134.839844 C 125.875 134.308594 126.515625 134.253906 127.042969 134.726562 C 127.546875 135.171875 128.046875 135.703125 127.714844 136.511719 C 127.128906 137.90625 126.429688 139.328125 126.542969 140.890625 C 126.652344 142.3125 126.90625 143.734375 127.128906 145.4375 C 128.214844 143.820312 127.796875 142.0625 128.355469 140.527344 C 129.082031 138.519531 129.527344 136.429688 130.667969 134.585938 C 131.5625 133.164062 130.894531 132.941406 129.582031 132.996094 C 128.4375 133.054688 127.265625 132.996094 126.125 132.996094 C 124.757812 133.027344 124.5625 132.441406 125.175781 131.296875 C 126.515625 128.8125 128.242188 126.75 130.667969 125.160156 C 129.246094 125.523438 127.851562 125.886719 125.816406 126.386719 C 129.359375 119.835938 134.324219 115.957031 141.492188 113.976562 C 139.734375 113.53125 138.535156 113.226562 136.75 112.777344 C 142.746094 107.898438 149.078125 105.191406 156.746094 105.222656 C 155.265625 103.992188 153.398438 103.964844 152.003906 102.433594 C 157.304688 100.980469 162.324219 100.980469 167.871094 102.710938 C 165.753906 100.589844 163.410156 99.949219 161.097656 98.722656 C 164.21875 97.636719 167.007812 97.941406 169.769531 98.835938 C 172.53125 99.894531 175.234375 100.84375 178.386719 101.902344 Z M 167.007812 204.613281 C 168.347656 203.277344 169.65625 201.9375 171.050781 200.542969 C 169.964844 199.847656 169.183594 201.015625 168.402344 200.347656 C 169.128906 198.703125 171.609375 198.507812 171.75 196.359375 C 170.996094 196.25 170.550781 197.335938 169.992188 196.667969 C 169.351562 195.914062 170.328125 195.71875 170.691406 195.300781 C 171.21875 194.6875 171.664062 193.988281 172.222656 193.238281 C 171.21875 193.152344 170.4375 194.183594 169.460938 193.320312 C 170.328125 192.484375 171.332031 191.730469 171.804688 190.585938 C 171.945312 190.253906 172.558594 189.609375 171.804688 189.527344 C 169.742188 189.332031 171.273438 188.46875 171.609375 188.246094 C 173.003906 187.210938 173.617188 185.902344 173.839844 184.171875 C 173.925781 183.53125 173.644531 182.414062 174.902344 181.96875 C 175.292969 184.507812 176.324219 186.65625 178.441406 188.160156 C 178.664062 188.300781 178.722656 188.636719 178.859375 188.886719 C 176.351562 189.945312 178.972656 190.699219 179.027344 191.589844 C 179.054688 191.953125 179.390625 192.289062 179.113281 192.511719 C 178.386719 192.984375 177.886719 192.234375 177.1875 192.484375 C 177.886719 194.324219 179.503906 195.441406 180.644531 197.03125 C 179.585938 197.390625 178.695312 197.671875 177.550781 198.0625 C 179.195312 199.59375 180.703125 200.933594 181.761719 202.773438 C 180.144531 203.054688 178.722656 202.71875 177.105469 201.828125 C 178.136719 204.335938 180.671875 204.78125 181.902344 206.511719 C 181.316406 207.238281 180.617188 206.066406 180.089844 207.011719 C 181.035156 207.960938 181.453125 209.832031 182.847656 210.054688 C 183.9375 210.25 184.328125 208.519531 185.082031 207.515625 C 184.105469 207.460938 183.378906 207.402344 182.292969 207.347656 C 183.601562 206.09375 184.691406 205.089844 185.75 204.058594 C 185.164062 203.414062 184.269531 204.167969 183.769531 203.25 C 184.464844 201.992188 186.28125 201.210938 185.890625 199.289062 C 185.332031 198.871094 184.746094 200.097656 184.300781 199.316406 C 183.9375 198.675781 184.578125 198.199219 184.941406 197.726562 C 185.5 197 186.054688 196.277344 186.558594 195.496094 C 186.726562 195.214844 187.367188 194.6875 186.445312 194.519531 C 184.996094 194.296875 185.75 193.738281 186.222656 193.207031 C 186.808594 192.566406 187.617188 192.09375 187.925781 191.171875 C 187.394531 190.949219 187.058594 191.648438 186.503906 191.117188 C 188.34375 189.777344 188.816406 187.601562 190.015625 185.539062 C 190.40625 187.324219 191.382812 188.441406 192.332031 189.527344 C 191.886719 190.226562 191.132812 189.191406 190.882812 189.835938 C 190.65625 190.449219 191.160156 191.003906 191.660156 191.339844 C 192.136719 191.703125 192.75 191.898438 193.25 192.234375 C 193.390625 192.316406 193.363281 192.652344 193.417969 192.816406 C 192.890625 193.265625 192.136719 192.761719 191.605469 193.460938 C 192.386719 194.4375 193.195312 195.441406 194.058594 196.5 C 193 196.945312 192.527344 195.96875 191.605469 196.109375 C 192.722656 198.144531 193.78125 200.070312 195.789062 201.15625 C 194.980469 202.328125 193.726562 201.464844 192.695312 201.964844 C 193.25 203.414062 195.453125 203.722656 195.371094 205.648438 C 194.535156 205.871094 194.03125 204.585938 192.859375 205.675781 C 193.503906 206.148438 194.285156 206.484375 194.730469 207.070312 C 195.761719 208.492188 196.933594 208.324219 197.296875 206.902344 C 197.769531 205.144531 198.914062 204.671875 200.308594 204.226562 C 200.863281 204.03125 200.976562 203.609375 200.808594 203.136719 C 200.640625 202.691406 200.195312 202.773438 199.832031 202.773438 C 198.996094 202.773438 198.074219 203.640625 197.324219 202.578125 C 198.800781 200.402344 201.449219 199.175781 202.371094 196.277344 C 200.835938 196.277344 199.722656 197.476562 198.132812 197.085938 C 199.527344 195.328125 201.449219 194.15625 202.148438 191.980469 C 201.171875 191.871094 200.699219 192.875 199.75 192.957031 C 200.503906 190.113281 203.234375 188.605469 204.070312 185.679688 C 203.125 186.460938 202.621094 187.40625 201.089844 187.519531 C 204.296875 183.449219 204.460938 178.707031 205.328125 173.769531 C 207.277344 177.199219 206.273438 180.992188 208.730469 183.476562 C 207.863281 184.3125 207.277344 182.890625 206.527344 183.558594 C 207.195312 184.980469 209.257812 185.09375 209.566406 186.792969 C 208.8125 187.324219 208.058594 186.710938 207.308594 186.933594 C 208.171875 188.859375 210.683594 189.609375 210.933594 191.730469 C 210.097656 192.59375 209.425781 191.199219 208.730469 191.925781 C 209.761719 194.324219 212.382812 195.132812 213.917969 197.390625 C 212.382812 197.726562 210.90625 197.085938 209.648438 198.199219 C 210.488281 198.8125 211.296875 199.371094 212.046875 199.929688 C 212.773438 200.460938 214.445312 200.347656 214.195312 201.4375 C 213.890625 202.71875 212.382812 202.050781 211.378906 202.160156 C 211.296875 202.160156 211.238281 202.382812 211.183594 202.496094 C 212.410156 203.777344 215.003906 203.722656 215.171875 206.316406 C 214.167969 206.066406 213.46875 205.480469 212.355469 205.703125 C 213.414062 207.878906 216.257812 208.40625 216.707031 210.863281 C 215.507812 211.503906 214.558594 210.21875 213.332031 210.445312 C 215.644531 211.585938 216.230469 214.292969 218.460938 215.828125 C 218.238281 211.671875 219.019531 207.738281 217.625 203.917969 C 218.992188 205.367188 219.019531 207.488281 220.75 209.132812 C 220.609375 206.371094 219.800781 204.28125 218.714844 202.246094 C 213.722656 192.902344 211.964844 183.28125 216.59375 173.242188 C 218.601562 168.890625 217.347656 166.742188 212.886719 165.042969 C 212.886719 166.074219 212.886719 167.050781 212.886719 168.554688 C 210.542969 165.460938 208.449219 162.839844 206.527344 160.105469 C 205.746094 159.019531 205.71875 157.625 206.21875 156.367188 C 206.609375 155.421875 206.246094 154.863281 205.328125 154.027344 C 204.824219 155.921875 205.355469 157.789062 204.183594 159.101562 C 202.398438 161.082031 203.652344 162.28125 205.242188 163.285156 C 206.527344 164.09375 207.28125 165.097656 207.726562 166.882812 C 207.167969 166.4375 206.945312 166.242188 206.695312 166.074219 C 204.015625 164.007812 203.960938 163.953125 202.316406 166.882812 C 198.886719 172.988281 193.976562 177.5625 187.8125 180.796875 C 187.171875 181.132812 186.472656 181.914062 185.414062 181.246094 C 188.371094 177.480469 190.628906 173.296875 193.921875 169.867188 C 195.539062 168.164062 196.011719 166.269531 196.261719 164.007812 C 189.347656 171.007812 187.171875 172.65625 184.355469 173.046875 C 185.890625 171.09375 187.644531 169.308594 188.316406 166.828125 C 186.28125 168.945312 184.464844 171.203125 182.207031 173.046875 C 179.222656 175.472656 176.601562 176.753906 174.148438 176.921875 C 177.242188 175.472656 178.859375 172.933594 181.453125 170.953125 C 179.472656 170.980469 177.941406 170.898438 176.546875 169.921875 C 174.175781 168.25 173.617188 168.445312 171.777344 170.757812 C 169.882812 173.15625 168.710938 176 165.308594 177.257812 C 161.152344 178.816406 159.867188 182.777344 159.3125 187.015625 C 158.476562 193.65625 156.773438 200.011719 151.894531 205.507812 C 153.59375 205.367188 154.457031 204.335938 156.105469 203.445312 C 153.007812 207.792969 152.226562 212.035156 152.953125 216.886719 C 153.425781 215.769531 153.902344 214.152344 154.125 214.179688 C 156.746094 214.542969 156.996094 212.0625 158.417969 211.03125 C 158.027344 210.917969 157.722656 210.917969 157.46875 211.03125 C 156.886719 211.308594 156.269531 211.558594 155.851562 210.890625 C 155.351562 210.136719 156.269531 209.886719 156.550781 209.410156 C 157.023438 208.632812 158.222656 208.632812 158.476562 207.597656 C 157.609375 207.152344 157.082031 208.546875 156.214844 207.933594 C 157.191406 206.59375 158.726562 205.757812 159.5625 204.167969 C 158.808594 204.085938 158.222656 204 157.554688 203.917969 C 158.195312 202.382812 159.3125 201.351562 160.203125 200.179688 C 159.617188 199.429688 159.003906 200.878906 158.503906 200.097656 C 159.339844 199.066406 160.789062 198.367188 160.648438 196.972656 C 160.511719 195.605469 160.257812 195.636719 160.84375 195.078125 C 161.152344 194.769531 161.847656 194.546875 161.542969 194.046875 C 160.734375 192.707031 161.738281 191.730469 162.128906 190.53125 C 163.019531 195.46875 165.667969 199.734375 167.148438 204.449219 C 166.617188 204.503906 166.117188 204.53125 165.445312 204.585938 C 166.03125 205.480469 166.5625 206.261719 167.0625 206.984375 C 166.507812 207.542969 166.003906 206.789062 165.472656 207.125 C 165.726562 207.988281 166.394531 208.464844 167.121094 209.105469 C 167.789062 207.238281 169.628906 206.511719 171.191406 204.78125 C 169.40625 205.394531 167.957031 206.175781 167.007812 204.613281 Z M 156.605469 172.070312 C 157.109375 173.4375 157.917969 173.910156 158.503906 174.578125 C 159.480469 175.695312 160.175781 175.804688 161.011719 174.355469 C 161.765625 173.074219 163.214844 172.207031 164.636719 172.207031 C 167.121094 172.207031 168.292969 170.703125 169.492188 168.972656 C 170.132812 168.027344 170.941406 167.1875 171.582031 166.210938 C 172.78125 164.457031 173.867188 164.175781 175.625 165.738281 C 178.304688 168.136719 179.613281 167.886719 182.292969 165.347656 C 183.070312 164.59375 183.65625 163.703125 184.328125 162.867188 C 186.667969 159.964844 189.179688 156.953125 192.5 155.449219 C 195.984375 153.859375 199.304688 152.128906 202.398438 149.898438 C 204.265625 148.558594 206.109375 148.867188 208.003906 149.898438 C 210.402344 151.238281 212.4375 153.160156 213.859375 155.335938 C 215.980469 158.515625 219.578125 158.90625 222.339844 160.800781 C 223.34375 161.472656 224.625 161.445312 225.878906 160.96875 C 228.308594 160.050781 230.734375 160.1875 233.269531 161.804688 C 232.574219 159.714844 231.347656 158.570312 230.007812 157.566406 C 228.585938 156.507812 226.855469 156.257812 224.988281 156.144531 C 226.074219 154.472656 227.945312 153.273438 226.773438 151.011719 C 225.628906 148.78125 223.871094 147.695312 221.390625 147.945312 C 220.359375 148.058594 219.886719 147.5 219.328125 146.832031 C 217.933594 145.242188 216.371094 144.238281 214.085938 145.101562 C 211.15625 146.1875 207.949219 145.269531 205.019531 146.273438 C 204.628906 146.410156 204.628906 146.160156 204.601562 145.992188 C 204.183594 143.847656 202.203125 143.652344 200.667969 142.953125 C 199.527344 142.453125 198.300781 142.171875 197.101562 141.78125 C 198.605469 141.476562 200.027344 141.449219 201.476562 141.476562 C 202.648438 141.503906 203.988281 141.699219 204.769531 140.835938 C 206.191406 139.300781 207.699219 139.023438 209.484375 139.96875 C 209.675781 139.105469 209.371094 138.4375 208.980469 138.351562 C 206.136719 137.683594 204.324219 135.199219 201.785156 134.195312 C 200.667969 133.75 200.25 133.386719 200.027344 132.410156 C 199.527344 130.179688 198.550781 128.257812 196.457031 127.058594 C 192.332031 124.660156 188.425781 125.523438 185.246094 129.679688 C 184.691406 130.402344 184.269531 130.824219 183.265625 130.851562 C 180.226562 130.933594 178.5 132.859375 178.664062 135.84375 C 178.777344 137.824219 177.214844 138.992188 175.234375 138.4375 C 174.871094 138.324219 174.59375 137.710938 174.0625 138.296875 C 174.929688 141.226562 177.105469 142.675781 179.949219 143.484375 C 176.910156 144.402344 173.8125 144.933594 170.996094 143.566406 C 166.394531 141.335938 166.644531 136.734375 166.589844 132.300781 C 162.210938 135.785156 160.707031 140.109375 162.546875 144.265625 C 165.667969 151.375 171.636719 150.148438 178.164062 148.753906 C 175.152344 150.761719 172.894531 152.601562 169.546875 152.574219 C 170.746094 153.859375 172.417969 153.96875 173.703125 155.113281 C 170.269531 155.613281 167.007812 154.640625 163.941406 155.894531 C 163.828125 155.949219 163.578125 155.949219 163.550781 155.894531 C 162.6875 153.636719 160.871094 153.1875 158.726562 153.328125 C 158.585938 153.328125 158.417969 152.882812 158.25 152.660156 C 156.464844 149.898438 154.765625 149.144531 151.667969 149.785156 C 149.269531 150.261719 147.542969 152.15625 147.125 154.917969 C 146.984375 155.78125 146.84375 156.144531 145.839844 156.257812 C 143.136719 156.5625 140.933594 158.152344 140.011719 160.132812 C 144.808594 157.511719 152.898438 161.304688 153.316406 166.324219 C 152.480469 166.324219 152.003906 165.238281 150.917969 165.597656 C 153.511719 167.941406 153.648438 171.566406 155.769531 174.214844 C 156.078125 173.6875 156.242188 173.183594 156.605469 172.070312 Z M 208.671875 249.320312 C 209.121094 247.480469 209.675781 245.667969 210.011719 243.828125 C 210.234375 242.628906 210.125 241.371094 210.125 240.144531 C 210.125 235.488281 205.691406 229.660156 199.636719 231.027344 C 197.769531 231.445312 195.957031 231.972656 194.171875 232.644531 C 188.621094 234.789062 183.15625 235.292969 177.605469 232.644531 C 175.960938 231.863281 174.203125 231.332031 172.417969 230.832031 C 167.59375 229.519531 164.304688 231.25 162.601562 235.878906 C 160.902344 240.453125 161.597656 244.800781 163.800781 249.125 C 163.996094 248.371094 163.828125 247.8125 163.746094 247.199219 C 163.300781 243.632812 163.078125 240.035156 164.582031 236.601562 C 165.585938 234.289062 166.644531 233.871094 168.90625 234.816406 C 171.582031 235.960938 174.316406 236.910156 177.074219 237.773438 C 184.855469 240.144531 192.5 240.730469 199.804688 236.101562 C 203.652344 233.675781 205.855469 234.429688 207.667969 238.667969 C 208.644531 240.953125 209.121094 243.351562 208.476562 245.835938 C 208.171875 246.949219 208.199219 248.09375 208.671875 249.320312 Z M 129.695312 176.808594 C 129.722656 176.671875 129.777344 176.503906 129.75 176.363281 C 128.605469 171.625 127.65625 166.910156 131.03125 162.585938 C 131.394531 162.140625 131.644531 161.386719 131.5625 160.859375 C 130.863281 156.84375 131.867188 152.828125 131.480469 148.78125 C 130.445312 151.125 128.605469 153.441406 128.996094 155.894531 C 129.527344 159.210938 128.996094 161.917969 127.433594 164.789062 C 125.34375 168.695312 126.683594 174.636719 129.695312 176.808594 Z M 170.382812 263.851562 C 175.457031 263.097656 180.507812 262.429688 185.664062 262.371094 C 190.796875 262.316406 195.789062 263.402344 200.863281 263.738281 C 190.6875 258.105469 180.535156 259.777344 170.382812 263.851562 Z M 240.269531 146.605469 C 240.96875 150.539062 241.191406 154.5 241.023438 158.460938 C 240.941406 160.496094 241.386719 162.390625 242.445312 164.148438 C 243.507812 165.90625 243.867188 167.773438 243.839844 169.839844 C 243.785156 172.375 242.726562 174.71875 242.417969 177.871094 C 245.125 173.4375 246.992188 169.421875 244.59375 164.957031 C 242.921875 161.863281 242.335938 158.710938 242.417969 155.28125 C 242.472656 152.269531 241.582031 149.367188 240.269531 146.605469 Z M 148.296875 187.183594 C 145.703125 188.800781 143.277344 189.472656 140.792969 187.769531 C 138.367188 186.097656 138.3125 183.449219 138.507812 180.40625 C 136.890625 183.585938 137.667969 188.300781 139.84375 190.613281 C 141.238281 192.09375 142.914062 193.070312 144.921875 192.234375 C 146.929688 191.394531 148.101562 189.777344 148.296875 187.183594 Z M 136.386719 178.175781 C 143.609375 175.222656 147.234375 179.515625 150.527344 184.589844 C 149.691406 180.6875 148.238281 177.3125 144.726562 175.082031 C 142.214844 173.492188 137.863281 173.992188 136.386719 178.175781 Z M 224.375 187.210938 C 224.710938 190.976562 227.386719 193.238281 230.289062 192.203125 C 234.164062 190.808594 236.476562 185.066406 234.722656 181.214844 C 233.996094 188.496094 229.867188 190.894531 224.375 187.210938 Z M 235.949219 178.203125 C 234.554688 175.25 232.460938 173.546875 230.734375 173.882812 C 226.410156 174.71875 222.507812 179.792969 222.199219 184.199219 C 225.492188 178.902344 229.3125 175.414062 235.949219 178.203125 Z M 194.535156 242.238281 C 191.523438 246.417969 191.4375 250.714844 193.863281 252.304688 C 196.320312 253.894531 200.390625 252.136719 202.621094 248.316406 C 200.335938 249.738281 198.105469 250.824219 195.789062 249.042969 C 193.726562 247.453125 193.613281 245.191406 194.535156 242.238281 Z M 169.324219 249.152344 C 171.75 252.640625 175.152344 253.867188 177.1875 252.25 C 179.085938 250.714844 179.726562 246.613281 178.332031 244.859375 C 178.917969 250.15625 174.902344 251.746094 169.324219 249.152344 Z M 200.027344 208.855469 C 197.851562 209.246094 196.179688 210.332031 193.835938 209.300781 C 196.625 211.726562 197.128906 211.671875 200.027344 208.855469 Z M 231.765625 181.410156 C 231.570312 180.769531 231.039062 180.351562 230.425781 180.351562 C 229.671875 180.351562 229.449219 180.964844 229.507812 181.636719 C 229.5625 182.277344 229.953125 182.582031 230.59375 182.582031 C 231.347656 182.582031 231.597656 182.027344 231.765625 181.410156 Z M 231.765625 181.410156 " fill-opacity="1" fill-rule="nonzero"/></g><g transform="matrix(1, 0, 0, 1, 44, 15)"><g clip-path="url(#84b73ecbf3)"><g fill="#171b39" fill-opacity="1"><g transform="translate(28.686469, 94.653778)"><g><path d="M -18.015625 -18.046875 L -15.15625 -21.78125 L 4.921875 -6.421875 L 2.0625 -2.6875 Z M -18.015625 -18.046875 "/></g></g></g><g fill="#171b39" fill-opacity="1"><g transform="translate(36.975539, 82.976164)"><g><path d="M 1.65625 -36.125 L 18.90625 -17.640625 L 16.078125 -15 L -5.78125 -18 L 5.890625 -5.484375 L 2.484375 -2.3125 L -14.765625 -20.796875 L -11.9375 -23.4375 L 9.9375 -20.4375 L -1.75 -32.953125 Z M 1.65625 -36.125 "/></g></g></g><g fill="#171b39" fill-opacity="1"><g transform="translate(60.009275, 61.770599)"><g><path d="M -9.6875 -23.59375 L -0.109375 -29.109375 C 2.222656 -30.460938 4.554688 -31.207031 6.890625 -31.34375 C 9.222656 -31.488281 11.367188 -31.015625 13.328125 -29.921875 C 15.296875 -28.835938 16.90625 -27.210938 18.15625 -25.046875 C 19.40625 -22.878906 20.003906 -20.675781 19.953125 -18.4375 C 19.910156 -16.207031 19.242188 -14.113281 17.953125 -12.15625 C 16.660156 -10.207031 14.847656 -8.554688 12.515625 -7.203125 L 2.9375 -1.6875 Z M 10.34375 -10.546875 C 11.945312 -11.460938 13.179688 -12.582031 14.046875 -13.90625 C 14.910156 -15.238281 15.34375 -16.65625 15.34375 -18.15625 C 15.34375 -19.664062 14.910156 -21.175781 14.046875 -22.6875 C 13.179688 -24.1875 12.09375 -25.316406 10.78125 -26.078125 C 9.46875 -26.835938 8.023438 -27.171875 6.453125 -27.078125 C 4.878906 -26.984375 3.289062 -26.476562 1.6875 -25.5625 L -3.625 -22.5 L 5.03125 -7.484375 Z M 10.34375 -10.546875 "/></g></g></g><g fill="#171b39" fill-opacity="1"><g transform="translate(88.632212, 46.421787)"><g><path d="M -5.578125 -24.890625 L -1.171875 -26.53125 L 7.59375 -2.8125 L 3.1875 -1.171875 Z M -5.578125 -24.890625 "/></g></g></g><g fill="#171b39" fill-opacity="1"><g transform="translate(101.943778, 41.037285)"><g><path d="M 17.8125 -16.625 L 22.171875 -17.46875 L 24.09375 -7.59375 C 23.007812 -6.3125 21.671875 -5.234375 20.078125 -4.359375 C 18.484375 -3.492188 16.785156 -2.882812 14.984375 -2.53125 C 12.460938 -2.039062 10.078125 -2.144531 7.828125 -2.84375 C 5.578125 -3.550781 3.6875 -4.765625 2.15625 -6.484375 C 0.625 -8.203125 -0.375 -10.273438 -0.84375 -12.703125 C -1.3125 -15.140625 -1.15625 -17.4375 -0.375 -19.59375 C 0.394531 -21.757812 1.695312 -23.59375 3.53125 -25.09375 C 5.363281 -26.59375 7.554688 -27.585938 10.109375 -28.078125 C 12.179688 -28.484375 14.132812 -28.503906 15.96875 -28.140625 C 17.8125 -27.785156 19.441406 -27.0625 20.859375 -25.96875 L 18.5 -22.5625 C 16.25 -24.09375 13.785156 -24.597656 11.109375 -24.078125 C 9.359375 -23.734375 7.875 -23.0625 6.65625 -22.0625 C 5.445312 -21.070312 4.582031 -19.835938 4.0625 -18.359375 C 3.550781 -16.890625 3.460938 -15.304688 3.796875 -13.609375 C 4.117188 -11.953125 4.789062 -10.535156 5.8125 -9.359375 C 6.84375 -8.191406 8.109375 -7.359375 9.609375 -6.859375 C 11.109375 -6.367188 12.722656 -6.289062 14.453125 -6.625 C 16.390625 -7.007812 18.007812 -7.769531 19.3125 -8.90625 Z M 17.8125 -16.625 "/></g></g></g><g fill="#171b39" fill-opacity="1"><g transform="translate(131.635596, 35.705915)"><g><path d="M 22.40625 -3.65625 L 22.359375 0.28125 L 3.390625 0.046875 L 3.71875 -25.234375 L 22.171875 -25 L 22.125 -21.0625 L 8.375 -21.234375 L 8.28125 -14.65625 L 20.484375 -14.5 L 20.4375 -10.640625 L 8.234375 -10.796875 L 8.140625 -3.828125 Z M 22.40625 -3.65625 "/></g></g></g><g fill="#171b39" fill-opacity="1"><g transform="translate(158.112305, 36.021117)"><g><path d="M 30.78125 -18.96875 L 25.21875 5.6875 L 21.4375 4.84375 L 11.609375 -14.921875 L 7.84375 1.765625 L 3.3125 0.75 L 8.875 -23.90625 L 12.65625 -23.0625 L 22.484375 -3.28125 L 26.25 -19.984375 Z M 30.78125 -18.96875 "/></g></g></g><g fill="#171b39" fill-opacity="1"><g transform="translate(188.60151, 43.072404)"><g><path d="M 13.515625 6.96875 C 11.203125 5.84375 9.359375 4.320312 7.984375 2.40625 C 6.609375 0.488281 5.820312 -1.613281 5.625 -3.90625 C 5.4375 -6.207031 5.878906 -8.460938 6.953125 -10.671875 C 8.023438 -12.878906 9.519531 -14.617188 11.4375 -15.890625 C 13.363281 -17.171875 15.503906 -17.859375 17.859375 -17.953125 C 20.210938 -18.054688 22.546875 -17.546875 24.859375 -16.421875 C 27.179688 -15.304688 29.03125 -13.789062 30.40625 -11.875 C 31.78125 -9.96875 32.566406 -7.867188 32.765625 -5.578125 C 32.960938 -3.285156 32.519531 -1.023438 31.4375 1.203125 C 30.351562 3.429688 28.851562 5.175781 26.9375 6.4375 C 25.019531 7.695312 22.882812 8.378906 20.53125 8.484375 C 18.175781 8.585938 15.835938 8.082031 13.515625 6.96875 Z M 15.3125 3.265625 C 16.832031 3.992188 18.363281 4.3125 19.90625 4.21875 C 21.445312 4.125 22.859375 3.632812 24.140625 2.75 C 25.421875 1.863281 26.429688 0.660156 27.171875 -0.859375 C 27.910156 -2.378906 28.234375 -3.914062 28.140625 -5.46875 C 28.046875 -7.03125 27.554688 -8.445312 26.671875 -9.71875 C 25.785156 -10.988281 24.582031 -11.988281 23.0625 -12.71875 C 21.550781 -13.457031 20.023438 -13.78125 18.484375 -13.6875 C 16.941406 -13.59375 15.523438 -13.101562 14.234375 -12.21875 C 12.941406 -11.34375 11.925781 -10.144531 11.1875 -8.625 C 10.445312 -7.101562 10.128906 -5.5625 10.234375 -4 C 10.335938 -2.4375 10.832031 -1.019531 11.71875 0.25 C 12.601562 1.519531 13.800781 2.523438 15.3125 3.265625 Z M 15.3125 3.265625 "/></g></g></g><g fill="#171b39" fill-opacity="1"><g transform="translate(217.654305, 57.542278)"><g><path d="M 10.890625 9.234375 C 8.171875 7.046875 6.664062 4.570312 6.375 1.8125 C 6.082031 -0.945312 7.085938 -3.75 9.390625 -6.59375 L 18.34375 -17.6875 L 22 -14.734375 L 13.15625 -3.765625 C 10.039062 0.0859375 10.148438 3.359375 13.484375 6.046875 C 16.796875 8.722656 20.007812 8.132812 23.125 4.28125 L 31.96875 -6.6875 L 35.578125 -3.78125 L 26.625 7.3125 C 24.320312 10.15625 21.800781 11.734375 19.0625 12.046875 C 16.320312 12.367188 13.597656 11.429688 10.890625 9.234375 Z M 10.890625 9.234375 "/></g></g></g><g fill="#171b39" fill-opacity="1"><g transform="translate(241.296216, 77.288149)"><g><path d="M 6.875 8.890625 C 5.632812 7.390625 4.648438 5.757812 3.921875 4 C 3.191406 2.25 2.84375 0.671875 2.875 -0.734375 L 6.703125 -1.78125 C 6.734375 -0.476562 7.023438 0.914062 7.578125 2.40625 C 8.140625 3.90625 8.90625 5.238281 9.875 6.40625 C 11.0625 7.851562 12.1875 8.738281 13.25 9.0625 C 14.3125 9.394531 15.222656 9.25 15.984375 8.625 C 16.535156 8.164062 16.828125 7.585938 16.859375 6.890625 C 16.898438 6.191406 16.765625 5.453125 16.453125 4.671875 C 16.148438 3.890625 15.691406 2.863281 15.078125 1.59375 C 14.191406 -0.175781 13.546875 -1.664062 13.140625 -2.875 C 12.742188 -4.082031 12.648438 -5.328125 12.859375 -6.609375 C 13.066406 -7.898438 13.816406 -9.070312 15.109375 -10.125 C 16.179688 -11.019531 17.394531 -11.535156 18.75 -11.671875 C 20.113281 -11.816406 21.539062 -11.515625 23.03125 -10.765625 C 24.53125 -10.015625 25.984375 -8.789062 27.390625 -7.09375 C 28.378906 -5.90625 29.195312 -4.609375 29.84375 -3.203125 C 30.5 -1.804688 30.898438 -0.460938 31.046875 0.828125 L 27.28125 2.015625 C 27.082031 0.742188 26.726562 -0.457031 26.21875 -1.59375 C 25.707031 -2.738281 25.085938 -3.75 24.359375 -4.625 C 23.179688 -6.050781 22.066406 -6.910156 21.015625 -7.203125 C 19.960938 -7.503906 19.039062 -7.328125 18.25 -6.671875 C 17.6875 -6.210938 17.394531 -5.632812 17.375 -4.9375 C 17.351562 -4.25 17.488281 -3.515625 17.78125 -2.734375 C 18.082031 -1.960938 18.539062 -0.941406 19.15625 0.328125 C 20.019531 2.054688 20.65625 3.535156 21.0625 4.765625 C 21.46875 5.992188 21.566406 7.242188 21.359375 8.515625 C 21.160156 9.785156 20.429688 10.941406 19.171875 11.984375 C 18.097656 12.878906 16.878906 13.390625 15.515625 13.515625 C 14.160156 13.648438 12.734375 13.335938 11.234375 12.578125 C 9.734375 11.828125 8.28125 10.597656 6.875 8.890625 Z M 6.875 8.890625 "/></g></g></g></g></g><g transform="matrix(1, 0, 0, 1, 42, 246)"><g clip-path="url(#e822cdf06e)"><g fill="#171b39" fill-opacity="1"><g transform="translate(8.751686, 18.459535)"><g><path d="M 20.640625 -10.046875 L 22.96875 -6.53125 L 7.015625 4.078125 L 13.59375 13.984375 L 10.609375 15.96875 L 1.703125 2.546875 Z M 20.640625 -10.046875 "/></g></g></g><g fill="#171b39" fill-opacity="1"><g transform="translate(22.802065, 39.113844)"><g><path d="M 16.09375 9.265625 L 8.25 1.03125 L 2.890625 3.03125 L -0.109375 -0.109375 L 23.421875 -8.390625 L 26.28125 -5.390625 L 16.90625 17.734375 L 13.859375 14.53125 Z M 17.515625 5.953125 L 21.78125 -4 L 11.625 -0.234375 Z M 17.515625 5.953125 "/></g></g></g><g fill="#171b39" fill-opacity="1"><g transform="translate(43.83267, 61.223152)"><g><path d="M 42.84375 0.640625 L 24.140625 15.640625 L 20.375 13.203125 L 24.8125 -3.984375 L 10.859375 7.03125 L 7.0625 4.578125 L 13.109375 -18.625 L 16.796875 -16.234375 L 12.140625 1.359375 L 26.46875 -9.953125 L 29.75 -7.828125 L 25.125 9.890625 L 39.453125 -1.546875 Z M 42.84375 0.640625 "/></g></g></g><g fill="#171b39" fill-opacity="1"><g transform="translate(80.581647, 82.908928)"><g/></g></g><g fill="#171b39" fill-opacity="1"><g transform="translate(93.304811, 87.975695)"><g><path d="M 9.65625 -20.828125 L 13.6875 -19.578125 L 6.953125 2.15625 L 2.921875 0.90625 Z M 9.65625 -20.828125 "/></g></g></g><g fill="#171b39" fill-opacity="1"><g transform="translate(108.216387, 92.809047)"><g><path d="M 26.40625 -19.015625 L 23 3.484375 L 19.578125 2.96875 L 9.484375 -14.15625 L 7.171875 1.078125 L 3.03125 0.453125 L 6.4375 -22.046875 L 9.859375 -21.515625 L 19.953125 -4.40625 L 22.265625 -19.640625 Z M 26.40625 -19.015625 "/></g></g></g><g fill="#171b39" fill-opacity="1"><g transform="translate(139.863095, 96.803281)"><g><path d="M 10.125 -0.015625 C 8.363281 0.046875 6.65625 -0.144531 5 -0.59375 C 3.34375 -1.039062 2.03125 -1.660156 1.0625 -2.453125 L 2.390625 -5.78125 C 3.359375 -5.070312 4.523438 -4.507812 5.890625 -4.09375 C 7.265625 -3.675781 8.632812 -3.488281 10 -3.53125 C 11.6875 -3.59375 12.929688 -3.90625 13.734375 -4.46875 C 14.546875 -5.039062 14.9375 -5.769531 14.90625 -6.65625 C 14.882812 -7.3125 14.632812 -7.84375 14.15625 -8.25 C 13.6875 -8.65625 13.09375 -8.960938 12.375 -9.171875 C 11.65625 -9.390625 10.671875 -9.628906 9.421875 -9.890625 C 7.679688 -10.242188 6.265625 -10.609375 5.171875 -10.984375 C 4.085938 -11.359375 3.144531 -11.96875 2.34375 -12.8125 C 1.539062 -13.664062 1.113281 -14.835938 1.0625 -16.328125 C 1.019531 -17.585938 1.320312 -18.738281 1.96875 -19.78125 C 2.613281 -20.832031 3.613281 -21.6875 4.96875 -22.34375 C 6.320312 -23 8 -23.363281 10 -23.4375 C 11.382812 -23.476562 12.753906 -23.347656 14.109375 -23.046875 C 15.460938 -22.742188 16.632812 -22.285156 17.625 -21.671875 L 16.40625 -18.34375 C 15.382812 -18.894531 14.328125 -19.300781 13.234375 -19.5625 C 12.148438 -19.832031 11.097656 -19.953125 10.078125 -19.921875 C 8.410156 -19.859375 7.179688 -19.53125 6.390625 -18.9375 C 5.597656 -18.351562 5.21875 -17.597656 5.25 -16.671875 C 5.269531 -16.015625 5.519531 -15.488281 6 -15.09375 C 6.488281 -14.695312 7.09375 -14.390625 7.8125 -14.171875 C 8.53125 -13.960938 9.515625 -13.734375 10.765625 -13.484375 C 12.453125 -13.148438 13.84375 -12.789062 14.9375 -12.40625 C 16.039062 -12.019531 16.992188 -11.40625 17.796875 -10.5625 C 18.597656 -9.726562 19.023438 -8.578125 19.078125 -7.109375 C 19.117188 -5.847656 18.8125 -4.695312 18.15625 -3.65625 C 17.507812 -2.613281 16.503906 -1.765625 15.140625 -1.109375 C 13.785156 -0.453125 12.113281 -0.0859375 10.125 -0.015625 Z M 10.125 -0.015625 "/></g></g></g><g fill="#171b39" fill-opacity="1"><g transform="translate(165.639826, 95.445893)"><g><path d="M 3.796875 -20.296875 L -3.609375 -18.828125 L -4.3125 -22.34375 L 14.625 -26.09375 L 15.328125 -22.578125 L 7.921875 -21.109375 L 11.65625 -2.3125 L 7.53125 -1.5 Z M 3.796875 -20.296875 "/></g></g></g><g fill="#171b39" fill-opacity="1"><g transform="translate(189.644749, 90.048747)"><g><path d="M -4.328125 -22.53125 L -0.328125 -23.875 L 6.90625 -2.3125 L 2.90625 -0.96875 Z M -4.328125 -22.53125 "/></g></g></g><g fill="#171b39" fill-opacity="1"><g transform="translate(204.269077, 85.111475)"><g><path d="M -1.453125 -20.59375 L -8.25 -17.296875 L -9.8125 -20.515625 L 7.5625 -28.953125 L 9.125 -25.734375 L 2.34375 -22.4375 L 10.703125 -5.1875 L 6.90625 -3.34375 Z M -1.453125 -20.59375 "/></g></g></g><g fill="#171b39" fill-opacity="1"><g transform="translate(226.779276, 73.94664)"><g><path d="M 10.5625 -7.3125 C 8.019531 -5.457031 5.519531 -4.722656 3.0625 -5.109375 C 0.601562 -5.503906 -1.59375 -7.03125 -3.53125 -9.6875 L -11.109375 -20.0625 L -7.703125 -22.546875 L -0.21875 -12.3125 C 2.414062 -8.695312 5.289062 -8.03125 8.40625 -10.3125 C 11.507812 -12.570312 11.742188 -15.507812 9.109375 -19.125 L 1.625 -29.359375 L 4.984375 -31.8125 L 12.5625 -21.4375 C 14.5 -18.78125 15.28125 -16.222656 14.90625 -13.765625 C 14.539062 -11.304688 13.09375 -9.15625 10.5625 -7.3125 Z M 10.5625 -7.3125 "/></g></g></g><g fill="#171b39" fill-opacity="1"><g transform="translate(251.488531, 54.955766)"><g><path d="M -8.59375 -18.78125 L -13.796875 -13.3125 L -16.390625 -15.78125 L -3.078125 -29.765625 L -0.484375 -27.296875 L -5.6875 -21.828125 L 8.203125 -8.609375 L 5.296875 -5.5625 Z M -8.59375 -18.78125 "/></g></g></g><g fill="#171b39" fill-opacity="1"><g transform="translate(268.457891, 36.618122)"><g><path d="M 8.328125 -18.65625 L 11.265625 -16.671875 L 1.71875 -2.53125 L -17.125 -15.28125 L -7.828125 -29.03125 L -4.890625 -27.03125 L -11.828125 -16.78125 L -6.9375 -13.484375 L -0.78125 -22.578125 L 2.109375 -20.625 L -4.046875 -11.53125 L 1.140625 -8.015625 Z M 8.328125 -18.65625 "/></g></g></g></g></g></g></g></svg>