<?xml version="1.0" encoding="utf-8"?>
<!-- Generator: Adobe Illustrator 29.7.1, SVG Export Plug-In . SVG Version: 9.03 Build 0)  -->
<svg version="1.0" id="Layer_1" xmlns="http://www.w3.org/2000/svg" xmlns:xlink="http://www.w3.org/1999/xlink" x="0px" y="0px"
	 viewBox="0 0 241.8 241.8" style="enable-background:new 0 0 241.8 241.8;" xml:space="preserve">
<style type="text/css">
	.st0{clip-path:url(#SVGID_00000089533924558967514400000017498856059565676432_);}
	.st1{clip-path:url(#SVGID_00000071527186225398415460000002792229109984327089_);}
	.st2{clip-path:url(#SVGID_00000035511403394487204790000001850587614106862475_);}
	.st3{clip-path:url(#SVGID_00000078764882633154270130000004937179761149369773_);}
	.st4{clip-path:url(#SVGID_00000062193485259264613440000015255020679790993281_);}
	.st5{fill:#F8F8F0;}
	.st6{clip-path:url(#SVGID_00000025421587551006231780000010118824256455614139_);}
	.st7{clip-path:url(#SVGID_00000024698202722405371770000015149475161990384034_);}
	.st8{clip-path:url(#SVGID_00000055666948353663897300000001549916479884073600_);}
	.st9{clip-path:url(#SVGID_00000131334348508692577770000014935466110865698458_);}
	.st10{clip-path:url(#SVGID_00000036971952785580261810000010850434360106901399_);}
	.st11{clip-path:url(#SVGID_00000012473143319219809160000014892051473728472233_);}
	.st12{clip-path:url(#SVGID_00000152259681424136129540000005939082875347477913_);}
	.st13{clip-path:url(#SVGID_00000183927707855051212200000009616020136294142110_);}
	.st14{clip-path:url(#SVGID_00000057119309942890735820000016567159388967824801_);}
	.st15{clip-path:url(#SVGID_00000000938259093302759940000003004815925514957738_);}
	.st16{clip-path:url(#SVGID_00000165225564345466699150000017298043008165162166_);}
	.st17{clip-path:url(#SVGID_00000124127249833494002040000017111995092502682535_);}
	.st18{clip-path:url(#SVGID_00000159471861718505675920000004752344885212286348_);}
	.st19{clip-path:url(#SVGID_00000034812316089394910760000004810265173639662013_);}
	.st20{clip-path:url(#SVGID_00000074400762041329189940000015951468292518060935_);}
	.st21{clip-path:url(#SVGID_00000155147694655841905050000014183689383450775457_);}
	.st22{fill:#171B39;}
	.st23{clip-path:url(#SVGID_00000048468567590388272590000014310589511141530517_);}
	.st24{clip-path:url(#SVGID_00000018958287589391272150000017625261045619941055_);}
</style>
<g>
	<defs>
		<rect id="SVGID_1_" width="241.8" height="241.8"/>
	</defs>
	<clipPath id="SVGID_00000111163140614674216240000002618044237609347506_">
		<use xlink:href="#SVGID_1_"  style="overflow:visible;"/>
	</clipPath>
	<g style="clip-path:url(#SVGID_00000111163140614674216240000002618044237609347506_);">
		<g>
			<defs>
				<path id="SVGID_00000071536852263212243180000006761976935598558100_" d="M120.9,241.8c-32.3,0-62.7-12.6-85.5-35.4
					C12.6,183.6,0,153.2,0,120.9s12.6-62.7,35.4-85.5C58.2,12.6,88.6,0,120.9,0s62.7,12.6,85.5,35.4c22.9,22.9,35.4,53.2,35.4,85.5
					s-12.6,62.7-35.4,85.5C183.6,229.2,153.2,241.8,120.9,241.8z M120.9,7.2C90.6,7.2,62,19.1,40.5,40.5C19.1,62,7.2,90.6,7.2,120.9
					s11.8,58.9,33.3,80.4c21.5,21.5,50,33.3,80.4,33.3s58.9-11.8,80.4-33.3c21.5-21.5,33.3-50,33.3-80.4S222.7,62,201.3,40.5
					C179.8,19.1,151.2,7.2,120.9,7.2z"/>
			</defs>
			<clipPath id="SVGID_00000000941886783440622170000002115321127517736838_">
				<use xlink:href="#SVGID_00000071536852263212243180000006761976935598558100_"  style="overflow:visible;"/>
			</clipPath>
			<g style="clip-path:url(#SVGID_00000000941886783440622170000002115321127517736838_);">
				<g transform="matrix(1, 0, 0, 1, 96, 96)">
					<g>
						<defs>
							<rect id="SVGID_00000129919266761616413660000010361608420339411101_" x="-97.1" y="-97.1" width="244" height="244"/>
						</defs>
						<clipPath id="SVGID_00000173118526571762099850000003067120160295940250_">
							<use xlink:href="#SVGID_00000129919266761616413660000010361608420339411101_"  style="overflow:visible;"/>
						</clipPath>
						<g style="clip-path:url(#SVGID_00000173118526571762099850000003067120160295940250_);">
							<g>
								<defs>
									<rect id="SVGID_00000160191951486012245430000000951299863519018907_" x="-96" y="-96" width="241.8" height="241.8"/>
								</defs>
								<clipPath id="SVGID_00000155104600828022159960000013764009377524064683_">
									<use xlink:href="#SVGID_00000160191951486012245430000000951299863519018907_"  style="overflow:visible;"/>
								</clipPath>
								<g style="clip-path:url(#SVGID_00000155104600828022159960000013764009377524064683_);">
									<g>
										<defs>
											<path id="SVGID_00000029768028684187119170000005176266998512506548_" d="M24.9,145.8c-32.3,0-62.7-12.6-85.5-35.4
												C-83.4,87.6-96,57.2-96,24.9s12.6-62.7,35.4-85.5C-37.8-83.4-7.4-96,24.9-96s62.7,12.6,85.5,35.4
												c22.9,22.9,35.4,53.2,35.4,85.5s-12.6,62.7-35.4,85.5C87.6,133.2,57.2,145.8,24.9,145.8z M24.9-88.8
												c-30.3,0-58.9,11.8-80.4,33.3C-76.9-34-88.8-5.4-88.8,24.9s11.8,58.9,33.3,80.4c21.5,21.5,50,33.3,80.4,33.3
												s58.9-11.8,80.4-33.3c21.5-21.5,33.3-50,33.3-80.4S126.7-34,105.3-55.5C83.8-76.9,55.2-88.8,24.9-88.8z"/>
										</defs>
										<clipPath id="SVGID_00000011726519315225602920000005126970419664327553_">
											<use xlink:href="#SVGID_00000029768028684187119170000005176266998512506548_"  style="overflow:visible;"/>
										</clipPath>
										<g style="clip-path:url(#SVGID_00000011726519315225602920000005126970419664327553_);">
											<path class="st5" d="M-96-96h241.8v241.8H-96V-96z"/>
										</g>
									</g>
								</g>
							</g>
						</g>
					</g>
				</g>
			</g>
		</g>
	</g>
</g>
<g>
	<defs>
		<rect id="SVGID_00000009551752571503219460000000687217276657268636_" x="42.3" y="42.3" width="157.1" height="157.1"/>
	</defs>
	<clipPath id="SVGID_00000012461169582908648100000017851872248500530859_">
		<use xlink:href="#SVGID_00000009551752571503219460000000687217276657268636_"  style="overflow:visible;"/>
	</clipPath>
	<g style="clip-path:url(#SVGID_00000012461169582908648100000017851872248500530859_);">
		<g>
			<defs>
				<circle id="SVGID_00000181788450698593657900000005500165233029922474_" cx="120.9" cy="120.9" r="78.6"/>
			</defs>
			<clipPath id="SVGID_00000135666696167092414090000015128955655214059392_">
				<use xlink:href="#SVGID_00000181788450698593657900000005500165233029922474_"  style="overflow:visible;"/>
			</clipPath>
			<g style="clip-path:url(#SVGID_00000135666696167092414090000015128955655214059392_);">
				<g transform="matrix(1, 0, 0, 1, 128, 128)">
					<g>
						<defs>
							<rect id="SVGID_00000033371125997110094360000016865431184937313160_" x="-86.4" y="-86.4" width="158.7" height="158.7"/>
						</defs>
						<clipPath id="SVGID_00000041271521839581115050000001658055065151534510_">
							<use xlink:href="#SVGID_00000033371125997110094360000016865431184937313160_"  style="overflow:visible;"/>
						</clipPath>
						<g style="clip-path:url(#SVGID_00000041271521839581115050000001658055065151534510_);">
							<g>
								<defs>
									<rect id="SVGID_00000103983093146541086830000018094833061227695233_" x="-85.7" y="-85.7" width="157.1" height="157.1"/>
								</defs>
								<clipPath id="SVGID_00000042016253402233062980000015195858150006005379_">
									<use xlink:href="#SVGID_00000103983093146541086830000018094833061227695233_"  style="overflow:visible;"/>
								</clipPath>
								<g style="clip-path:url(#SVGID_00000042016253402233062980000015195858150006005379_);">
									<g>
										<defs>
											<circle id="SVGID_00000179627848802978869480000008212825106479303604_" cx="-7.1" cy="-7.1" r="78.6"/>
										</defs>
										<clipPath id="SVGID_00000050657629989338768980000013748748926497793684_">
											<use xlink:href="#SVGID_00000179627848802978869480000008212825106479303604_"  style="overflow:visible;"/>
										</clipPath>
										<g style="clip-path:url(#SVGID_00000050657629989338768980000013748748926497793684_);">
											<path class="st5" d="M-85.7-85.7H71.5V71.5H-85.7V-85.7z"/>
										</g>
									</g>
								</g>
							</g>
						</g>
					</g>
				</g>
			</g>
		</g>
	</g>
</g>
<g>
	<defs>
		<rect id="SVGID_00000164502599295790549960000010113853877971529120_" x="20" y="125.7" width="11.5" height="11.5"/>
	</defs>
	<clipPath id="SVGID_00000167391165305951391960000011445737268399576236_">
		<use xlink:href="#SVGID_00000164502599295790549960000010113853877971529120_"  style="overflow:visible;"/>
	</clipPath>
	<g style="clip-path:url(#SVGID_00000167391165305951391960000011445737268399576236_);">
		<g>
			<defs>
				<path id="SVGID_00000043441646998849374890000003515113333416401313_" d="M25.7,125.7c-3.2,0-5.8,2.6-5.8,5.8
					c0,3.2,2.6,5.8,5.8,5.8c3.2,0,5.8-2.6,5.8-5.8C31.5,128.2,28.9,125.7,25.7,125.7z"/>
			</defs>
			<clipPath id="SVGID_00000059278447288194635330000005783495886679584426_">
				<use xlink:href="#SVGID_00000043441646998849374890000003515113333416401313_"  style="overflow:visible;"/>
			</clipPath>
			<g style="clip-path:url(#SVGID_00000059278447288194635330000005783495886679584426_);">
				<g transform="matrix(1, 0, 0, 1, 111, 191)">
					<g>
						<defs>
							<rect id="SVGID_00000132080747605724751080000016551985877504487588_" x="-92.1" y="-65.4" width="13.3" height="12"/>
						</defs>
						<clipPath id="SVGID_00000070079738509149980500000009259323644349215415_">
							<use xlink:href="#SVGID_00000132080747605724751080000016551985877504487588_"  style="overflow:visible;"/>
						</clipPath>
						<g style="clip-path:url(#SVGID_00000070079738509149980500000009259323644349215415_);">
							<g>
								<defs>
									<rect id="SVGID_00000087394368822447921370000013708392235508846990_" x="-91" y="-65.3" width="11.5" height="11.5"/>
								</defs>
								<clipPath id="SVGID_00000181073588190856485970000014003624641001945480_">
									<use xlink:href="#SVGID_00000087394368822447921370000013708392235508846990_"  style="overflow:visible;"/>
								</clipPath>
								<g style="clip-path:url(#SVGID_00000181073588190856485970000014003624641001945480_);">
									<g>
										<defs>
											<path id="SVGID_00000063618162761977857830000007604681805264719240_" d="M-85.3-65.3c-3.2,0-5.8,2.6-5.8,5.8
												c0,3.2,2.6,5.8,5.8,5.8c3.2,0,5.8-2.6,5.8-5.8C-79.5-62.8-82.1-65.3-85.3-65.3z"/>
										</defs>
										<clipPath id="SVGID_00000093139213123212234620000008995900280289822895_">
											<use xlink:href="#SVGID_00000063618162761977857830000007604681805264719240_"  style="overflow:visible;"/>
										</clipPath>
										<g style="clip-path:url(#SVGID_00000093139213123212234620000008995900280289822895_);">
											<path class="st5" d="M-91-65.3h11.5v11.5H-91V-65.3z"/>
										</g>
									</g>
								</g>
							</g>
						</g>
					</g>
				</g>
			</g>
		</g>
	</g>
</g>
<g>
	<defs>
		<rect id="SVGID_00000013192641557409411690000004032664243237060256_" x="210.3" y="125.7" width="11.5" height="11.5"/>
	</defs>
	<clipPath id="SVGID_00000167357404241272459850000013687642546051258282_">
		<use xlink:href="#SVGID_00000013192641557409411690000004032664243237060256_"  style="overflow:visible;"/>
	</clipPath>
	<g style="clip-path:url(#SVGID_00000167357404241272459850000013687642546051258282_);">
		<g>
			<defs>
				<path id="SVGID_00000090981530782541990040000007320004226005456521_" d="M216.1,125.7c-3.2,0-5.8,2.6-5.8,5.8
					c0,3.2,2.6,5.8,5.8,5.8c3.2,0,5.8-2.6,5.8-5.8C221.8,128.2,219.3,125.7,216.1,125.7z"/>
			</defs>
			<clipPath id="SVGID_00000049904870822013089800000003152115919054678666_">
				<use xlink:href="#SVGID_00000090981530782541990040000007320004226005456521_"  style="overflow:visible;"/>
			</clipPath>
			<g style="clip-path:url(#SVGID_00000049904870822013089800000003152115919054678666_);">
				<g transform="matrix(1, 0, 0, 1, 254, 191)">
					<g>
						<defs>
							<rect id="SVGID_00000103961831118558464470000017182975928657376928_" x="-44.4" y="-65.4" width="13.3" height="12"/>
						</defs>
						<clipPath id="SVGID_00000100369325259015044910000011878977939020736415_">
							<use xlink:href="#SVGID_00000103961831118558464470000017182975928657376928_"  style="overflow:visible;"/>
						</clipPath>
						<g style="clip-path:url(#SVGID_00000100369325259015044910000011878977939020736415_);">
							<g>
								<defs>
									<rect id="SVGID_00000031886278001019769480000004517845753694902176_" x="-43.7" y="-65.3" width="11.5" height="11.5"/>
								</defs>
								<clipPath id="SVGID_00000152238216101406311210000014392726775877224864_">
									<use xlink:href="#SVGID_00000031886278001019769480000004517845753694902176_"  style="overflow:visible;"/>
								</clipPath>
								<g style="clip-path:url(#SVGID_00000152238216101406311210000014392726775877224864_);">
									<g>
										<defs>
											<path id="SVGID_00000003789979436276864860000004684333439062557081_" d="M-37.9-65.3c-3.2,0-5.8,2.6-5.8,5.8
												c0,3.2,2.6,5.8,5.8,5.8s5.8-2.6,5.8-5.8C-32.2-62.8-34.7-65.3-37.9-65.3z"/>
										</defs>
										<clipPath id="SVGID_00000063604608746593369320000006829716792172550037_">
											<use xlink:href="#SVGID_00000003789979436276864860000004684333439062557081_"  style="overflow:visible;"/>
										</clipPath>
										<g style="clip-path:url(#SVGID_00000063604608746593369320000006829716792172550037_);">
											<path class="st5" d="M-43.7-65.3h11.5v11.5h-11.5V-65.3z"/>
										</g>
									</g>
								</g>
							</g>
						</g>
					</g>
				</g>
			</g>
		</g>
	</g>
</g>
<g>
	<defs>
		<rect id="SVGID_00000037670570004540823960000011848398285957321621_" x="62.1" y="59.3" width="118" height="140"/>
	</defs>
	<clipPath id="SVGID_00000123410808541560707310000003236342584686873231_">
		<use xlink:href="#SVGID_00000037670570004540823960000011848398285957321621_"  style="overflow:visible;"/>
	</clipPath>
	<g style="clip-path:url(#SVGID_00000123410808541560707310000003236342584686873231_);">
		<path class="st22" d="M115.6,66c-1.1-1.3-1.9-2.5-3.3-3.6c2.7,0.1,4.7,0.9,6.5,2.3c1.3,1.1,2.2,1.8,3.7,0.1c1.6-1.7,4-2.1,6.5-2.3
			c-1.5,1.2-2.8,2.4-3.6,4.2c3.9-2,7.9-2.2,12.4-1.4c-1.8,0.8-3.3,1.3-5,2.5c5-1,9.4-0.4,13.9,1.7c-1.4,0.4-2.7,0.3-3.9,1
			c5.5,0.4,9.8,2.7,13,7.4c-1.6-0.3-2.8-0.9-4.6-0.7c3.5,1.4,5.7,3.6,7.5,6.3c0.2,0.3,0.4,0.7,0.6,1c0.1,0.3,0.4,0.7,0.1,0.9
			c-0.2,0.2-0.6,0-0.8-0.1c-0.7-0.1-1.4-0.1-2.3-0.2c0.6,0.8,2,1.4,0.4,2.3c-0.4,0.2-0.3,0.8-0.1,1.1c0.6,1.9,1.2,3.8,1.3,5.9
			c0.7-1.6,0.6-3.2,0.2-4.8c-0.2-1.1,0.1-1.6,1.1-1.8c0.9-0.2,1.8-0.4,2.7-0.7c4.5-1.4,6.9-4.8,8-9.2c1.3-4.9,0.3-9.5-1.3-14.2
			c-0.3-0.8-0.6-1.6-0.8-2.4c-0.1-0.3-0.6-0.7-0.1-1c0.4-0.2,0.8-0.1,1.1,0.1c1.2,0.7,2.2,1.5,3.2,2.5c5.1,5.7,7.8,12.3,7.4,20
			c-0.7,10.6-8,18.8-18.3,21.1c-0.4,0.1-0.8,0-1,0.5c2,0.3,3.9-0.4,5.7-0.7c4.3-0.8,9.8,2,11.4,6.1c0.1,0.3,0.1,0.6,0.2,0.9
			c-0.7,0.3-1.3,0-2,0.1c0.3,0.8,1.1,1.3,0.8,2.2c-0.2,0.8-0.9,1.3-1.5,1.8c-2.3,2-4.7,4-8.2,4.2c1,1.1,2.2,0.7,3.4,1
			c-3,2.6-7.4,3.6-12.2,1c-0.3,2.1-1,4-1.6,6c-0.8,2.5,0.3,4.8,0.8,7.2c0.7,3.3,0.4,6.5,0.1,9.8c0,0.4-0.2,0.7-0.5,1.5
			c-0.9-2.3-1.7-4.3-2.5-6.2c1.1,4.9,1.5,9.7,0.3,14.6c-0.4,1.5-1.1,3-2.2,4.6c-0.3-2.2-0.5-4.2-0.8-6.3c-1.3,8.4-3.5,11.5-6.9,16.9
			c-0.6-2.2,0.7-4.3-0.2-6.7c-0.9,2.7-1.5,5-2.4,7.2c-0.9,2.2-2.1,4.4-4.3,6c-0.1-1.5,0.1-2.9-0.5-4.1c-1.1,0.9-1.4,1.9-1.1,3.3
			c0.8,4.1,0.7,8-1.9,11.6c-0.3,0.4-0.6,0.9-1.3,1.2c0.6-2.9-0.1-5.6-1.1-8.2c-0.1,5.8-0.7,11.4-5.6,15.9c0.6-2.3,0.9-4.2,0.4-6.2
			c-1,4.1-2.5,7.9-6.3,10.6c0.7-4,0.4-7.6-1.8-11.1c0,3,0.3,5.8-1.4,8.4c-2.8-5.2-6.8-9.9-6.7-16.2c-1.2,2.6-0.7,5.2-0.8,7.9
			c-0.7-0.1-1.1-0.6-1.5-1.1c-3-3.8-3.6-8.1-2.9-12.7c0.2-1.4,0-2.4-1.2-3.2c-0.8,0.8-0.1,2-0.9,2.9c-3.4-3.4-4.7-7.8-6-12.3
			c-0.6,2.2-0.5,4.3-0.3,6.6c-3.9-4.6-6-9.9-6.5-16c-0.2,1.7-1,3.3-1,5c-3.8-6-3.8-12.3-2.1-18.9c-0.9,2.2-1.9,4.5-3,7.1
			c-0.8-4.1-1-7.8-0.3-11.6c0.2-1,0.4-1.9,0.7-2.9c0.7-2.3,0.8-4.6-0.3-6.8c-0.5-1-0.2-2.7-1.1-3.1c-0.7-0.3-2,0.6-3.1,0.8
			c-3,0.5-5.6-0.6-8.3-2c1.1-0.7,2.3-0.3,3.2-1.3c-4.2-0.2-7-2.6-9.6-5.3c-0.3-0.3-0.8-0.6-0.6-0.9c0.9-1.2,0.2-1.9-0.7-2.6
			c-0.5-0.3-0.1-0.8,0.1-1c2.1-3.5,6.4-7.2,12.2-5.4c1.6,0.5,3.3,0.6,4.9,0.2c-6-1-10.8-4.1-14.5-8.8c-3.8-4.8-5-10.3-4.6-16.3
			c0.8-9.5,7.6-18.4,12.2-19.6c0.3,0.8-0.1,1.4-0.4,2.1c-1.8,4.4-3.1,8.8-2.8,13.6c0.3,5.9,4,10.3,9.2,12.5c0.4,0.2,0.6,0.1,0.9-0.2
			c0.3-0.3,0.7-0.4,1.1-0.1c0.3,0.3,0.7,0.6,0.4,1.2c-0.4,0.9-0.8,1.8-0.8,2.8c0.1,0.9,0.2,1.8,0.4,2.9c0.7-1,0.4-2.2,0.8-3.2
			c0.5-1.3,0.8-2.7,1.5-3.9c0.6-0.9,0.1-1.1-0.7-1c-0.7,0-1.5,0-2.2,0c-0.9,0-1-0.4-0.6-1.1c0.9-1.6,2-3,3.6-4
			c-0.9,0.2-1.8,0.5-3.2,0.8c2.3-4.3,5.5-6.8,10.2-8.1c-1.1-0.3-1.9-0.5-3.1-0.8c3.9-3.2,8-4.9,13-4.9c-1-0.8-2.2-0.8-3.1-1.8
			c3.4-0.9,6.7-0.9,10.3,0.2c-1.4-1.4-2.9-1.8-4.4-2.6c2-0.7,3.8-0.5,5.6,0.1C111.8,64.7,113.6,65.3,115.6,66z M108.2,132.7
			c0.9-0.9,1.7-1.7,2.6-2.6c-0.7-0.5-1.2,0.3-1.7-0.1c0.5-1.1,2.1-1.2,2.2-2.6c-0.5-0.1-0.8,0.6-1.1,0.2c-0.4-0.5,0.2-0.6,0.5-0.9
			c0.3-0.4,0.6-0.8,1-1.3c-0.7-0.1-1.2,0.6-1.8,0.1c0.6-0.5,1.2-1,1.5-1.8c0.1-0.2,0.5-0.6,0-0.7c-1.3-0.1-0.3-0.7-0.1-0.8
			c0.9-0.7,1.3-1.5,1.4-2.6c0.1-0.4-0.1-1.1,0.7-1.4c0.3,1.7,0.9,3,2.3,4c0.1,0.1,0.2,0.3,0.3,0.5c-1.6,0.7,0.1,1.2,0.1,1.8
			c0,0.2,0.2,0.5,0.1,0.6c-0.5,0.3-0.8-0.2-1.2,0c0.5,1.2,1.5,1.9,2.2,3c-0.7,0.2-1.3,0.4-2,0.7c1.1,1,2,1.9,2.7,3.1
			c-1,0.2-2,0-3-0.6c0.7,1.6,2.3,1.9,3.1,3c-0.4,0.5-0.8-0.3-1.2,0.3c0.6,0.6,0.9,1.8,1.8,2c0.7,0.1,1-1,1.4-1.6
			c-0.6,0-1.1-0.1-1.8-0.1c0.9-0.8,1.6-1.5,2.2-2.1c-0.4-0.4-1,0.1-1.3-0.5c0.5-0.8,1.6-1.3,1.4-2.6c-0.4-0.3-0.7,0.5-1,0
			c-0.2-0.4,0.2-0.7,0.4-1c0.4-0.5,0.7-0.9,1-1.4c0.1-0.2,0.5-0.5-0.1-0.6c-0.9-0.1-0.5-0.5-0.1-0.9c0.4-0.4,0.9-0.7,1.1-1.3
			c-0.3-0.1-0.6,0.3-0.9,0c1.2-0.9,1.5-2.3,2.3-3.6c0.3,1.2,0.9,1.9,1.5,2.6c-0.3,0.5-0.8-0.2-0.9,0.2c-0.1,0.4,0.2,0.8,0.5,1
			c0.3,0.2,0.7,0.4,1,0.6c0.1,0.1,0.1,0.3,0.1,0.4c-0.3,0.3-0.8,0-1.2,0.4c0.5,0.6,1,1.3,1.6,2c-0.7,0.3-1-0.3-1.6-0.2
			c0.7,1.3,1.4,2.6,2.7,3.3c-0.5,0.8-1.3,0.2-2,0.5c0.4,0.9,1.8,1.1,1.7,2.4c-0.5,0.1-0.9-0.7-1.6,0c0.4,0.3,0.9,0.5,1.2,0.9
			c0.7,0.9,1.4,0.8,1.7-0.1c0.3-1.1,1-1.4,2-1.7c0.4-0.1,0.4-0.4,0.3-0.7c-0.1-0.3-0.4-0.2-0.6-0.2c-0.5,0-1.1,0.6-1.6-0.1
			c1-1.4,2.7-2.2,3.3-4.1c-1,0-1.7,0.8-2.8,0.5c0.9-1.1,2.2-1.9,2.6-3.3c-0.6-0.1-0.9,0.6-1.6,0.6c0.5-1.8,2.3-2.8,2.8-4.7
			c-0.6,0.5-0.9,1.1-1.9,1.2c2.1-2.6,2.2-5.7,2.8-8.9c1.3,2.2,0.6,4.7,2.2,6.3c-0.6,0.5-0.9-0.4-1.4,0.1c0.4,0.9,1.8,1,2,2.1
			c-0.5,0.3-1-0.1-1.5,0.1c0.6,1.2,2.2,1.7,2.4,3.1c-0.5,0.6-1-0.3-1.4,0.1c0.7,1.6,2.4,2.1,3.4,3.6c-1,0.2-2-0.2-2.8,0.5
			c0.5,0.4,1.1,0.8,1.6,1.1c0.5,0.3,1.6,0.3,1.4,1c-0.2,0.8-1.2,0.4-1.8,0.5c-0.1,0-0.1,0.1-0.1,0.2c0.8,0.8,2.5,0.8,2.6,2.5
			c-0.7-0.2-1.1-0.5-1.8-0.4c0.7,1.4,2.5,1.8,2.8,3.3c-0.8,0.4-1.4-0.4-2.2-0.3c1.5,0.7,1.9,2.5,3.3,3.5c-0.1-2.7,0.4-5.3-0.5-7.7
			c0.9,0.9,0.9,2.3,2,3.4c-0.1-1.8-0.6-3.2-1.3-4.5c-3.2-6.1-4.4-12.3-1.4-18.8c1.3-2.8,0.5-4.2-2.4-5.3c0,0.7,0,1.3,0,2.3
			c-1.5-2-2.9-3.7-4.1-5.5c-0.5-0.7-0.5-1.6-0.2-2.4c0.3-0.6,0-1-0.6-1.5c-0.3,1.2,0,2.4-0.7,3.3c-1.2,1.3-0.3,2.1,0.7,2.7
			c0.8,0.5,1.3,1.2,1.6,2.3c-0.4-0.3-0.5-0.4-0.7-0.5c-1.7-1.3-1.8-1.4-2.8,0.5c-2.2,4-5.4,6.9-9.4,9c-0.4,0.2-0.9,0.7-1.6,0.3
			c1.9-2.4,3.4-5.2,5.5-7.4c1.1-1.1,1.4-2.3,1.5-3.8c-4.5,4.5-5.9,5.6-7.7,5.9c1-1.3,2.1-2.4,2.6-4c-1.3,1.4-2.5,2.8-4,4
			c-1.9,1.6-3.6,2.4-5.2,2.5c2-0.9,3.1-2.6,4.7-3.9c-1.3,0-2.3,0-3.2-0.7c-1.5-1.1-1.9-1-3.1,0.5c-1.2,1.6-2,3.4-4.2,4.2
			c-2.7,1-3.5,3.6-3.9,6.3c-0.5,4.3-1.6,8.4-4.8,12c1.1-0.1,1.7-0.8,2.7-1.3c-2,2.8-2.5,5.6-2,8.7c0.3-0.7,0.6-1.8,0.8-1.8
			c1.7,0.2,1.9-1.4,2.8-2c-0.3-0.1-0.5-0.1-0.6,0c-0.4,0.2-0.8,0.3-1-0.1c-0.3-0.5,0.3-0.7,0.5-1c0.3-0.5,1.1-0.5,1.2-1.2
			c-0.6-0.3-0.9,0.6-1.5,0.2c0.6-0.9,1.6-1.4,2.2-2.4c-0.5-0.1-0.9-0.1-1.3-0.2c0.4-1,1.1-1.7,1.7-2.4c-0.4-0.5-0.8,0.5-1.1-0.1
			c0.5-0.7,1.5-1.1,1.4-2c-0.1-0.9-0.3-0.9,0.1-1.2c0.2-0.2,0.7-0.3,0.5-0.7c-0.5-0.9,0.1-1.5,0.4-2.3c0.6,3.2,2.3,6,3.3,9
			c-0.3,0-0.7,0.1-1.1,0.1c0.4,0.6,0.7,1.1,1,1.6c-0.4,0.4-0.7-0.1-1,0.1c0.2,0.6,0.6,0.9,1.1,1.3c0.4-1.2,1.6-1.7,2.6-2.8
			C109.8,133.2,108.9,133.7,108.2,132.7z M101.5,111.5c0.3,0.9,0.8,1.2,1.2,1.6c0.6,0.7,1.1,0.8,1.6-0.1c0.5-0.8,1.4-1.4,2.4-1.4
			c1.6,0,2.4-1,3.2-2.1c0.4-0.6,0.9-1.2,1.4-1.8c0.8-1.1,1.5-1.3,2.6-0.3c1.7,1.6,2.6,1.4,4.3-0.3c0.5-0.5,0.9-1.1,1.3-1.6
			c1.5-1.9,3.2-3.8,5.3-4.8c2.3-1,4.4-2.2,6.4-3.6c1.2-0.9,2.4-0.7,3.6,0c1.6,0.9,2.9,2.1,3.8,3.5c1.4,2.1,3.7,2.3,5.5,3.6
			c0.7,0.4,1.5,0.4,2.3,0.1c1.6-0.6,3.2-0.5,4.8,0.5c-0.5-1.4-1.2-2.1-2.1-2.8c-0.9-0.7-2-0.8-3.3-0.9c0.7-1.1,1.9-1.9,1.2-3.3
			c-0.7-1.5-1.9-2.2-3.5-2c-0.7,0.1-1-0.3-1.3-0.7c-0.9-1-1.9-1.7-3.4-1.1c-1.9,0.7-4,0.1-5.9,0.8c-0.3,0.1-0.3-0.1-0.3-0.2
			c-0.3-1.4-1.6-1.5-2.6-2c-0.7-0.3-1.5-0.5-2.3-0.8c1-0.2,1.9-0.2,2.8-0.2c0.8,0,1.6,0.1,2.1-0.4c0.9-1,1.9-1.2,3.1-0.6
			c0.1-0.6-0.1-1-0.3-1.1c-1.8-0.4-3-2-4.7-2.7c-0.7-0.3-1-0.5-1.1-1.2c-0.3-1.4-1-2.7-2.3-3.5c-2.7-1.6-5.2-1-7.3,1.7
			c-0.4,0.5-0.6,0.7-1.3,0.8c-2,0.1-3.1,1.3-3,3.2c0.1,1.3-0.9,2-2.2,1.7c-0.2-0.1-0.4-0.5-0.8-0.1c0.6,1.9,2,2.8,3.8,3.4
			c-2,0.6-4,0.9-5.8,0.1c-3-1.4-2.8-4.4-2.9-7.3c-2.8,2.3-3.8,5.1-2.6,7.8c2,4.6,5.9,3.8,10.1,2.9c-2,1.3-3.4,2.5-5.6,2.5
			c0.8,0.8,1.9,0.9,2.7,1.7c-2.2,0.3-4.3-0.3-6.3,0.5c-0.1,0-0.2,0-0.3,0c-0.6-1.5-1.7-1.8-3.1-1.7c-0.1,0-0.2-0.3-0.3-0.4
			c-1.2-1.8-2.3-2.3-4.3-1.9c-1.6,0.3-2.7,1.5-2.9,3.3c-0.1,0.6-0.2,0.8-0.8,0.9c-1.8,0.2-3.2,1.2-3.8,2.5c3.1-1.7,8.4,0.8,8.6,4
			c-0.5,0-0.8-0.7-1.6-0.5c1.7,1.5,1.8,3.9,3.2,5.6C101.2,112.6,101.3,112.3,101.5,111.5z M135.3,161.7c0.3-1.2,0.7-2.4,0.9-3.6
			c0.1-0.8,0.1-1.6,0.1-2.4c0-3-2.9-6.8-6.8-5.9c-1.2,0.3-2.4,0.6-3.6,1.1c-3.6,1.4-7.2,1.7-10.8,0c-1.1-0.5-2.2-0.9-3.4-1.2
			c-3.1-0.9-5.3,0.3-6.4,3.3c-1.1,3-0.7,5.8,0.8,8.6c0.1-0.5,0-0.8,0-1.2c-0.3-2.3-0.4-4.7,0.5-6.9c0.7-1.5,1.3-1.8,2.8-1.2
			c1.7,0.7,3.5,1.4,5.3,1.9c5.1,1.5,10,1.9,14.8-1.1c2.5-1.6,3.9-1.1,5.1,1.7c0.6,1.5,0.9,3,0.5,4.7
			C135,160.1,135,160.9,135.3,161.7z M84,114.6c0-0.1,0.1-0.2,0-0.3c-0.7-3.1-1.4-6.1,0.8-8.9c0.2-0.3,0.4-0.8,0.3-1.1
			c-0.5-2.6,0.2-5.2-0.1-7.8c-0.7,1.5-1.9,3-1.6,4.6c0.3,2.2,0,3.9-1,5.8C81.2,109.3,82.1,113.2,84,114.6z M110.4,171.1
			c3.3-0.5,6.6-0.9,9.9-1c3.3,0,6.6,0.7,9.9,0.9C123.6,167.4,117,168.5,110.4,171.1z M155.8,95c0.5,2.6,0.6,5.1,0.5,7.7
			c-0.1,1.3,0.2,2.6,0.9,3.7s0.9,2.4,0.9,3.7c0,1.6-0.7,3.2-0.9,5.2c1.8-2.9,3-5.5,1.4-8.4c-1.1-2-1.5-4.1-1.4-6.3
			C157.2,98.7,156.7,96.8,155.8,95z M96.1,121.3c-1.7,1.1-3.3,1.5-4.9,0.4c-1.6-1.1-1.6-2.8-1.5-4.8c-1,2.1-0.5,5.1,0.9,6.6
			c0.9,1,2,1.6,3.3,1.1C95.2,124.1,96,123,96.1,121.3z M88.4,115.5c4.7-1.9,7,0.9,9.2,4.2c-0.5-2.5-1.5-4.7-3.8-6.2
			C92.2,112.5,89.3,112.8,88.4,115.5z M145.5,121.4c0.2,2.4,2,3.9,3.8,3.2c2.5-0.9,4-4.6,2.9-7.1
			C151.7,122.2,149.1,123.8,145.5,121.4z M153,115.5c-0.9-1.9-2.3-3-3.4-2.8c-2.8,0.5-5.3,3.8-5.5,6.7
			C146.2,116,148.7,113.7,153,115.5z M126.1,157.1c-2,2.7-2,5.5-0.4,6.5c1.6,1,4.2-0.1,5.7-2.6c-1.5,0.9-2.9,1.6-4.4,0.5
			C125.6,160.5,125.5,159,126.1,157.1z M109.8,161.6c1.6,2.3,3.8,3.1,5.1,2c1.2-1,1.7-3.7,0.7-4.8
			C116,162.2,113.4,163.3,109.8,161.6z M129.7,135.4c-1.4,0.3-2.5,1-4,0.3C127.5,137.3,127.8,137.2,129.7,135.4z M150.3,117.6
			c-0.1-0.4-0.5-0.7-0.9-0.7c-0.5,0-0.6,0.4-0.6,0.8c0,0.4,0.3,0.6,0.7,0.6C150,118.4,150.2,118,150.3,117.6z"/>
	</g>
</g>
<g transform="matrix(1, 0, 0, 1, 118, 104)">
	<g>
		<defs>
			<rect id="SVGID_00000065041750623756215270000010545916120709452961_" x="-89.8" y="-94.4" width="185.3" height="66.7"/>
		</defs>
		<clipPath id="SVGID_00000178896500620995520410000006545846614946210976_">
			<use xlink:href="#SVGID_00000065041750623756215270000010545916120709452961_"  style="overflow:visible;"/>
		</clipPath>
		<g style="clip-path:url(#SVGID_00000178896500620995520410000006545846614946210976_);">
			<g>
				<g transform="translate(14.081463, 46.081714)">
					<g>
						<path class="st5" d="M-96.8-90.8l1.9-2.4l13,10l-1.9,2.4L-96.8-90.8z"/>
					</g>
				</g>
			</g>
			<g>
				<g transform="translate(18.117612, 40.395615)">
					<g>
						<path class="st5" d="M-82.7-104.4l11.2,12l-1.8,1.7l-14.2-2l7.6,8.1l-2.2,2.1l-11.2-12l1.8-1.7l14.2,2l-7.6-8.1L-82.7-104.4z"
							/>
					</g>
				</g>
			</g>
			<g>
				<g transform="translate(29.333279, 30.070112)">
					<g>
						<path class="st5" d="M-86.3-99.7l6.2-3.6c1.5-0.9,3-1.4,4.5-1.4c1.5-0.1,2.9,0.2,4.2,0.9c1.3,0.7,2.3,1.8,3.1,3.2
							c0.8,1.4,1.2,2.8,1.2,4.3c0,1.4-0.5,2.8-1.3,4.1c-0.8,1.3-2,2.3-3.5,3.2l-6.2,3.6L-86.3-99.7z M-73.3-91.2
							c1-0.6,1.8-1.3,2.4-2.2c0.6-0.9,0.8-1.8,0.8-2.8c0-1-0.3-2-0.9-2.9c-0.6-1-1.3-1.7-2.1-2.2c-0.8-0.5-1.8-0.7-2.8-0.6
							c-1,0.1-2.1,0.4-3.1,1l-3.5,2l5.6,9.8L-73.3-91.2z"/>
					</g>
				</g>
			</g>
			<g>
				<g transform="translate(43.270492, 22.596408)">
					<g>
						<path class="st5" d="M-79-103.1l2.9-1l5.7,15.4l-2.9,1L-79-103.1z"/>
					</g>
				</g>
			</g>
			<g>
				<g transform="translate(49.752201, 19.974558)">
					<g>
						<path class="st5" d="M-61.6-98.6l2.8-0.5l1.2,6.4c-0.7,0.8-1.6,1.5-2.6,2.1c-1,0.6-2.1,1-3.3,1.2c-1.6,0.3-3.2,0.3-4.6-0.2
							c-1.5-0.5-2.7-1.2-3.7-2.4c-1-1.1-1.6-2.5-1.9-4.1c-0.3-1.6-0.2-3.1,0.3-4.5c0.5-1.4,1.3-2.6,2.5-3.5c1.2-1,2.6-1.6,4.3-2
							c1.3-0.3,2.6-0.3,3.8,0c1.2,0.2,2.2,0.7,3.1,1.4l-1.5,2.2c-1.5-1-3.1-1.3-4.8-1c-1.1,0.2-2.1,0.7-2.9,1.3
							c-0.8,0.7-1.3,1.5-1.7,2.4c-0.3,0.9-0.4,2-0.2,3.1c0.2,1.1,0.6,2,1.3,2.8c0.7,0.8,1.5,1.3,2.5,1.6c1,0.3,2,0.4,3.2,0.1
							c1.2-0.2,2.3-0.7,3.1-1.5L-61.6-98.6z"/>
					</g>
				</g>
			</g>
			<g>
				<g transform="translate(64.209851, 17.378589)">
					<g>
						<path class="st5" d="M-53.8-91l0,2.6l-12.3-0.2l0.2-16.4l12,0.2l0,2.6l-8.9-0.1l-0.1,4.3l7.9,0.1l0,2.5l-7.9-0.1l0,4.5
							L-53.8-91z"/>
					</g>
				</g>
			</g>
			<g>
				<g transform="translate(77.102002, 17.532067)">
					<g>
						<path class="st5" d="M-44.1-100.9l-3.6,16l-2.5-0.5l-6.4-12.8L-59-87.4l-3-0.7l3.6-16l2.4,0.6l6.4,12.8l2.4-10.9L-44.1-100.9z
							"/>
					</g>
				</g>
			</g>
			<g>
				<g transform="translate(91.947942, 20.96551)">
					<g>
						<path class="st5" d="M-50.3-82.9c-1.5-0.7-2.7-1.7-3.6-3c-0.9-1.2-1.4-2.6-1.5-4.1c-0.1-1.5,0.2-3,0.9-4.4
							c0.7-1.4,1.7-2.6,2.9-3.4c1.2-0.8,2.6-1.3,4.2-1.3c1.5-0.1,3,0.2,4.5,1c1.5,0.7,2.7,1.7,3.6,3c0.9,1.2,1.4,2.6,1.5,4.1
							c0.1,1.5-0.1,2.9-0.9,4.4c-0.7,1.4-1.7,2.6-2.9,3.4c-1.2,0.8-2.6,1.3-4.2,1.3C-47.3-81.9-48.8-82.2-50.3-82.9z M-49.2-85.3
							c1,0.5,2,0.7,3,0.6c1-0.1,1.9-0.4,2.8-1c0.8-0.6,1.5-1.3,2-2.3c0.5-1,0.7-2,0.6-3c-0.1-1-0.4-1.9-0.9-2.8
							c-0.6-0.8-1.3-1.5-2.3-2c-1-0.5-2-0.7-3-0.6c-1,0.1-1.9,0.4-2.8,1c-0.8,0.6-1.5,1.4-2,2.4c-0.5,1-0.7,2-0.6,3
							c0.1,1,0.4,1.9,1,2.7C-50.9-86.5-50.2-85.8-49.2-85.3z"/>
					</g>
				</g>
			</g>
			<g>
				<g transform="translate(106.094448, 28.011242)">
					<g>
						<path class="st5" d="M-47.3-79.1c-1.8-1.4-2.7-3-2.9-4.8c-0.2-1.8,0.5-3.6,2-5.4l5.8-7.2l2.4,1.9l-5.8,7.1
							c-2,2.5-2,4.6,0.2,6.4c2.2,1.7,4.2,1.3,6.3-1.2l5.8-7.1l2.3,1.9l-5.8,7.2c-1.5,1.8-3.1,2.9-4.9,3.1
							C-43.8-77.1-45.6-77.7-47.3-79.1z"/>
					</g>
				</g>
			</g>
			<g>
				<g transform="translate(117.606267, 37.625975)">
					<g>
						<path class="st5" d="M-46.1-76.1c-0.8-1-1.4-2-1.9-3.2c-0.5-1.1-0.7-2.2-0.7-3.1l2.5-0.7c0,0.8,0.2,1.8,0.6,2.7
							c0.4,1,0.9,1.8,1.5,2.6c0.8,0.9,1.5,1.5,2.2,1.7c0.7,0.2,1.3,0.1,1.8-0.3c0.4-0.3,0.5-0.7,0.6-1.1c0-0.4-0.1-0.9-0.2-1.4
							c-0.2-0.5-0.5-1.2-0.9-2c-0.6-1.2-1-2.1-1.2-2.9c-0.2-0.8-0.3-1.6-0.2-2.4c0.1-0.8,0.6-1.6,1.5-2.3c0.7-0.6,1.5-0.9,2.4-1
							c0.9-0.1,1.8,0.1,2.8,0.6c1,0.5,1.9,1.3,2.8,2.4c0.6,0.8,1.2,1.6,1.6,2.5c0.4,0.9,0.7,1.8,0.8,2.6l-2.4,0.8
							c-0.1-0.8-0.4-1.6-0.7-2.3c-0.3-0.8-0.7-1.4-1.2-2c-0.8-0.9-1.5-1.5-2.2-1.7c-0.7-0.2-1.3-0.1-1.8,0.3
							c-0.3,0.3-0.5,0.7-0.5,1.1c0,0.4,0.1,0.9,0.3,1.4c0.2,0.5,0.5,1.2,0.9,2c0.6,1.1,1,2.1,1.2,2.9c0.3,0.8,0.3,1.6,0.2,2.4
							c-0.1,0.8-0.6,1.6-1.4,2.2c-0.7,0.6-1.5,0.9-2.4,1c-0.9,0.1-1.8-0.1-2.8-0.6C-44.2-74.2-45.2-75-46.1-76.1z"/>
					</g>
				</g>
			</g>
		</g>
	</g>
</g>
<g transform="matrix(1, 0, 0, 1, 117, 216)">
	<g>
		<defs>
			<rect id="SVGID_00000075851918403225427150000012602160117884821926_" x="-90.1" y="-57.1" width="188" height="70.7"/>
		</defs>
		<clipPath id="SVGID_00000057140417220618585060000000035892239914145709_">
			<use xlink:href="#SVGID_00000075851918403225427150000012602160117884821926_"  style="overflow:visible;"/>
		</clipPath>
		<g style="clip-path:url(#SVGID_00000057140417220618585060000000035892239914145709_);">
			<g>
				<g transform="translate(4.40089, 9.460336)">
					<g>
						<path class="st5" d="M-75.2-60.5l1.5,2.3l-10.4,6.9l4.3,6.4l-1.9,1.3l-5.8-8.7L-75.2-60.5z"/>
					</g>
				</g>
			</g>
			<g>
				<g transform="translate(11.242354, 19.517429)">
					<g>
						<path class="st5" d="M-75.9-44.6l-5.1-5.3l-3.5,1.3l-1.9-2.1l15.3-5.4l1.9,2l-6.1,15l-2-2.1L-75.9-44.6z M-75-46.7l2.8-6.5
							l-6.6,2.4L-75-46.7z"/>
					</g>
				</g>
			</g>
			<g>
				<g transform="translate(21.482655, 30.28297)">
					<g>
						<path class="st5" d="M-55.1-46.6l-12.1,9.7l-2.5-1.6l2.9-11.2l-9.1,7.2l-2.5-1.6l3.9-15l2.4,1.5l-3.1,11.4l9.4-7.3l2.1,1.4
							l-3,11.5l9.3-7.4L-55.1-46.6z"/>
					</g>
				</g>
			</g>
			<g>
				<g transform="translate(39.376627, 40.8423)">
				</g>
			</g>
			<g>
				<g transform="translate(45.57184, 43.309424)">
					<g>
						<path class="st5" d="M-68.6-56.2l2.6,0.8l-4.4,14.1l-2.6-0.8L-68.6-56.2z"/>
					</g>
				</g>
			</g>
			<g>
				<g transform="translate(52.832646, 45.662889)">
					<g>
						<path class="st5" d="M-55.3-54.2l-2.2,14.6l-2.2-0.3l-6.6-11.1l-1.5,9.9l-2.7-0.4l2.2-14.6l2.2,0.4l6.5,11.1l1.5-9.9
							L-55.3-54.2z"/>
					</g>
				</g>
			</g>
			<g>
				<g transform="translate(68.24219, 47.607789)">
					<g>
						<path class="st5" d="M-60.8-41.3c-1.1,0-2.2-0.1-3.3-0.4c-1.1-0.3-1.9-0.7-2.6-1.2l0.9-2.2c0.6,0.5,1.4,0.8,2.3,1.1
							c0.9,0.3,1.8,0.4,2.7,0.4c1.1,0,1.9-0.2,2.4-0.6c0.5-0.4,0.8-0.8,0.8-1.4c0-0.4-0.2-0.8-0.5-1c-0.3-0.3-0.7-0.5-1.2-0.6
							c-0.5-0.1-1.1-0.3-1.9-0.5c-1.1-0.2-2.1-0.5-2.8-0.7c-0.7-0.2-1.3-0.7-1.8-1.2c-0.5-0.6-0.8-1.3-0.8-2.3
							c0-0.8,0.2-1.5,0.6-2.2c0.4-0.7,1.1-1.2,1.9-1.7c0.9-0.4,2-0.7,3.3-0.7c0.9,0,1.8,0.1,2.7,0.2c0.9,0.2,1.7,0.5,2.3,0.9
							l-0.8,2.2c-0.7-0.4-1.4-0.6-2.1-0.8c-0.7-0.2-1.4-0.3-2.1-0.2c-1.1,0-1.9,0.3-2.4,0.6c-0.5,0.4-0.8,0.9-0.8,1.5
							c0,0.4,0.2,0.8,0.5,1c0.3,0.2,0.7,0.5,1.2,0.6c0.5,0.1,1.1,0.3,1.9,0.5c1.1,0.2,2,0.4,2.7,0.7c0.7,0.2,1.3,0.6,1.9,1.2
							c0.5,0.5,0.8,1.3,0.8,2.2c0,0.8-0.2,1.6-0.6,2.2c-0.4,0.7-1.1,1.2-2,1.6C-58.4-41.5-59.5-41.3-60.8-41.3z"/>
					</g>
				</g>
			</g>
			<g>
				<g transform="translate(80.793491, 46.946858)">
					<g>
						<path class="st5" d="M-60.7-54.7l-4.8,1L-66-56l12.3-2.4l0.4,2.2l-4.8,1l2.4,12.2l-2.7,0.5L-60.7-54.7z"/>
					</g>
				</g>
			</g>
			<g>
				<g transform="translate(92.48206, 44.318852)">
					<g>
						<path class="st5" d="M-62.1-57l2.6-0.9l4.7,14l-2.6,0.9L-62.1-57z"/>
					</g>
				</g>
			</g>
			<g>
				<g transform="translate(99.603007, 41.914783)">
					<g>
						<path class="st5" d="M-57.9-56.5l-4.4,2.1l-1-2.1l11.3-5.5l1,2.1l-4.4,2.1l5.4,11.2l-2.5,1.2L-57.9-56.5z"/>
					</g>
				</g>
			</g>
			<g>
				<g transform="translate(110.563764, 36.47834)">
					<g>
						<path class="st5" d="M-46.4-49.7c-1.7,1.2-3.3,1.7-4.9,1.4c-1.6-0.2-3-1.2-4.3-3l-4.9-6.7l2.2-1.6l4.9,6.6
							c1.7,2.3,3.6,2.8,5.6,1.3c2-1.5,2.1-3.4,0.4-5.7l-4.9-6.6l2.2-1.6l4.9,6.7c1.3,1.7,1.8,3.4,1.5,5
							C-43.8-52.3-44.7-50.9-46.4-49.7z"/>
					</g>
				</g>
			</g>
			<g>
				<g transform="translate(122.595283, 27.231233)">
					<g>
						<path class="st5" d="M-54.8-60.2l-3.4,3.5l-1.7-1.6l8.6-9.1l1.7,1.6l-3.4,3.5l9,8.6l-1.9,2L-54.8-60.2z"/>
					</g>
				</g>
			</g>
			<g>
				<g transform="translate(130.858086, 18.302185)">
					<g>
						<path class="st5" d="M-41.1-63.1l1.9,1.3l-6.2,9.2l-12.2-8.3l6-8.9l1.9,1.3l-4.5,6.7l3.2,2.2l4-5.9l1.9,1.3l-4,5.9l3.4,2.3
							L-41.1-63.1z"/>
					</g>
				</g>
			</g>
		</g>
	</g>
</g>
</svg>
